<?xml version="1.0" standalone="no"?>
<!DOCTYPE svg PUBLIC "-//W3C//DTD SVG 20010904//EN"
 "http://www.w3.org/TR/2001/REC-SVG-20010904/DTD/svg10.dtd">
<svg version="1.0" xmlns="http://www.w3.org/2000/svg"
 width="700.000000pt" height="700.000000pt" viewBox="0 0 700.000000 700.000000"
 preserveAspectRatio="xMidYMid meet">
<metadata>
Created by potrace 1.11, written by Peter Selinger 2001-2013
</metadata>
<g transform="translate(0.000000,700.000000) scale(0.100000,-0.100000)"
fill="#000000" stroke="none">
<path d="M835 6380 l-600 -5 -52 -24 c-120 -54 -182 -177 -180 -355 1 -176 71
-344 192 -461 56 -54 148 -113 168 -107 4 1 7 -2 7 -6 0 -4 10 -8 23 -9 63 -2
93 -9 105 -23 11 -13 11 -13 6 3 -5 13 -1 17 18 17 13 0 30 -6 37 -12 10 -10
12 -10 7 -1 -5 9 6 12 39 11 26 0 45 -5 45 -12 0 -6 4 -6 9 2 4 8 19 12 32 10
21 -3 27 -14 47 -93 38 -151 55 -235 76 -375 13 -83 18 -119 32 -230 3 -25 13
-132 19 -205 4 -42 14 -194 20 -305 4 -63 9 -314 20 -1060 4 -195 8 -382 10
-415 13 -194 16 -238 20 -267 2 -18 6 -64 10 -102 4 -38 8 -79 10 -90 2 -12
11 -70 20 -131 20 -131 66 -331 100 -435 16 -47 27 -108 30 -163 6 -108 25
-178 77 -279 33 -63 43 -76 57 -69 19 10 43 3 35 -10 -3 -6 4 -7 18 -4 18 5
25 2 25 -9 0 -10 -4 -13 -12 -6 -6 5 -16 5 -25 0 -11 -7 -12 -10 -2 -10 7 0
10 -5 6 -11 -4 -8 -9 -7 -15 2 -4 7 -5 17 -3 21 3 4 0 8 -6 8 -6 0 -8 5 -5 10
10 17 -2 11 -16 -7 -7 -10 -9 -15 -5 -11 5 5 14 -2 21 -15 6 -12 17 -21 23
-20 7 2 13 -2 13 -7 1 -6 2 -14 3 -20 0 -5 6 -11 11 -12 6 -1 18 -12 29 -25
10 -13 20 -22 23 -19 7 7 32 -18 26 -26 -2 -4 3 -5 12 -2 10 4 15 2 13 -7 -2
-7 3 -14 10 -15 6 -1 17 -2 23 -3 5 0 7 -7 3 -13 -4 -7 -4 -10 0 -6 5 4 26 -4
47 -18 21 -13 39 -21 39 -17 0 5 5 1 10 -7 6 -10 10 -11 10 -2 0 6 5 12 11 12
5 0 7 -5 3 -12 -4 -7 -3 -8 4 -4 7 4 12 1 12 -6 0 -10 3 -9 9 2 11 16 4 33
-10 25 -5 -4 -6 2 -2 11 4 12 8 14 11 6 3 -10 7 -10 18 -1 8 7 17 9 21 6 3 -4
-1 -9 -10 -13 -15 -5 -15 -8 0 -31 12 -18 18 -21 24 -11 12 18 11 30 -1 23 -6
-3 -10 -1 -10 5 0 7 6 10 13 7 6 -2 12 -14 12 -27 0 -17 7 -25 28 -31 28 -7
32 -1 28 41 -1 12 0 12 7 2 5 -7 8 -25 6 -40 -2 -15 -1 -19 2 -9 5 14 9 16 20
6 11 -9 12 -15 2 -28 -12 -15 -11 -15 7 0 11 9 32 15 47 14 16 -1 25 2 21 8
-3 5 0 7 8 5 8 -3 19 2 26 11 11 14 12 14 13 1 0 -9 -6 -22 -12 -30 -11 -12
-10 -12 3 -2 9 6 18 10 20 7 3 -2 5 5 6 15 1 11 -8 27 -20 35 -12 8 -16 15
-10 15 14 0 43 -28 43 -41 0 -5 4 -9 10 -9 5 0 7 6 4 13 -3 8 3 20 13 28 16
13 17 12 4 -3 -12 -16 -11 -18 8 -18 11 0 20 5 18 12 -1 8 15 12 50 12 28 0
49 4 47 8 -3 5 9 8 26 8 22 0 29 -4 24 -12 -6 -9 -3 -9 9 0 9 8 21 11 26 8 5
-4 12 -2 16 3 8 14 36 2 29 -13 -3 -6 1 -3 9 7 10 12 17 14 22 7 3 -5 12 -7
18 -3 20 13 227 12 220 -1 -5 -8 -3 -8 8 0 8 6 31 10 52 10 20 -1 37 3 37 8 0
5 8 2 17 -5 11 -10 14 -10 9 -2 -5 10 -1 11 18 3 19 -7 26 -6 26 3 0 8 3 8 9
-2 5 -7 11 -9 14 -4 5 8 52 10 52 3 0 -1 8 -3 18 -5 9 -2 17 0 17 5 0 13 55 6
68 -10 8 -8 11 -10 8 -3 -4 6 -2 14 4 18 5 3 10 1 10 -5 0 -6 5 -8 13 -3 18
11 67 10 67 -2 0 -5 4 -5 8 2 8 13 29 12 51 -1 10 -6 12 -5 7 2 -10 16 7 15
23 0 8 -7 11 -8 8 -3 -3 7 8 11 29 12 22 0 31 -3 27 -11 -4 -6 1 -5 10 3 14
11 20 11 34 0 11 -10 14 -10 9 -1 -4 7 -2 12 8 12 8 0 17 -6 19 -12 4 -10 6
-10 6 0 1 6 6 12 12 12 6 0 9 -6 6 -14 -3 -8 0 -17 7 -19 10 -4 12 1 9 14 -4
16 0 19 26 19 21 0 30 -4 26 -11 -4 -6 2 -5 13 2 17 11 24 10 38 -2 11 -9 15
-9 10 -1 -5 9 4 12 33 12 26 0 41 -5 41 -12 0 -10 2 -10 9 0 5 9 25 13 58 11
27 -1 54 1 60 4 7 4 14 3 18 -3 3 -5 16 -15 28 -20 20 -10 21 -10 4 3 -11 9
-14 18 -8 21 5 4 12 2 16 -4 4 -6 11 -7 17 -4 18 12 89 10 84 -2 -2 -6 2 -11
9 -11 8 0 13 5 12 10 -1 5 28 10 65 10 42 1 64 -2 60 -8 -3 -5 1 -4 9 2 12 10
18 10 29 0 7 -7 10 -7 7 -1 -7 12 33 11 54 -2 7 -4 10 -3 6 2 -8 14 166 13
175 0 5 -8 8 -7 8 1 0 7 15 12 39 11 32 0 38 -4 34 -17 -4 -13 -3 -14 5 -1 14
19 100 24 120 8 13 -11 14 -11 8 1 -7 11 0 12 36 8 24 -3 50 -2 58 3 7 4 24 4
37 -1 12 -5 23 -5 23 -1 0 4 15 7 34 7 19 0 32 -4 28 -9 -3 -5 5 -6 19 -2 41
12 89 14 94 5 7 -10 46 10 58 28 4 7 12 13 18 13 11 0 101 66 135 98 12 12 23
19 25 17 2 -2 29 30 59 70 30 41 58 71 62 69 4 -3 5 2 2 11 -4 8 -2 21 4 28 5
6 15 30 22 52 7 22 15 45 19 50 6 10 7 16 9 48 1 12 6 15 15 11 9 -6 9 -5 0 7
-14 18 -13 59 2 59 5 0 3 5 -5 10 -13 9 -13 11 0 20 8 5 10 10 4 10 -7 0 -12
15 -13 33 -1 48 -5 71 -13 77 -4 3 -8 20 -10 38 -1 18 -5 32 -8 32 -3 0 -12
17 -19 38 -20 53 -94 154 -154 208 -76 69 -130 90 -219 88 -230 -6 -577 -6
-587 0 -6 4 -11 3 -11 -2 0 -14 -41 -7 -51 9 -7 11 -9 11 -9 -3 0 -11 -5 -15
-15 -12 -17 7 -39 69 -31 89 3 8 2 15 -2 15 -11 0 -31 80 -21 81 5 1 13 2 18
3 5 0 13 4 16 8 4 4 -3 5 -17 3 -22 -4 -25 1 -40 57 -13 48 -14 64 -5 70 9 6
9 8 -1 8 -7 0 -10 5 -7 10 4 6 11 7 17 4 7 -4 8 -2 4 4 -4 6 -12 9 -20 6 -7
-3 -13 1 -14 8 -3 46 -10 87 -16 97 -4 6 -9 31 -11 54 -2 23 -5 42 -5 42 -4 0
-12 55 -14 87 0 20 -4 34 -7 32 -3 -2 -7 11 -8 29 -4 55 -8 82 -14 97 -15 41
-15 62 -1 56 10 -4 12 -2 8 6 -5 7 -2 9 8 6 8 -4 15 0 15 7 0 10 -5 11 -19 4
-10 -5 -18 -8 -19 -7 -6 25 -11 60 -12 90 -1 21 -5 38 -8 38 -4 0 -5 18 -4 40
1 22 -1 40 -4 40 -4 0 -7 10 -8 23 0 32 -12 138 -18 167 -6 31 3 62 16 55 5
-4 9 -1 9 4 0 6 7 11 15 11 8 0 15 5 15 10 0 6 7 10 15 10 8 0 15 3 15 8 0 4
21 20 48 37 26 16 53 35 61 43 7 7 20 11 28 8 8 -3 12 -2 8 3 -7 12 44 53 59
48 6 -2 10 -14 10 -25 -1 -12 2 -22 7 -22 10 0 7 29 -5 48 -4 7 -5 16 -1 20 3
3 10 1 14 -7 6 -10 10 -9 14 4 4 9 3 13 -3 10 -6 -3 -10 -3 -10 2 0 11 53 46
64 41 5 -1 12 7 17 20 5 12 13 22 19 22 6 0 9 -4 6 -8 -3 -5 2 -9 10 -9 10 0
11 4 5 10 -14 14 7 50 24 43 9 -3 12 0 8 10 -3 9 1 14 12 14 10 0 13 5 9 12
-5 8 -2 9 10 5 10 -4 15 -3 11 3 -3 5 15 31 40 57 24 26 45 54 45 61 0 7 4 11
9 8 5 -3 15 2 22 12 12 15 12 16 -1 6 -20 -15 -51 -9 -70 13 -8 10 -27 24 -42
32 -46 24 -25 22 50 -3 69 -24 107 -47 96 -59 -3 -3 1 -4 10 -3 8 1 19 6 23
11 4 4 3 5 -3 2 -7 -4 -17 0 -24 8 -10 12 -8 13 9 10 12 -2 25 -6 30 -10 5 -3
13 -1 16 5 5 8 12 7 23 -2 12 -10 14 -10 8 0 -4 7 -2 12 4 12 7 0 34 11 61 25
27 13 49 21 49 17 0 -4 6 4 13 18 12 25 69 41 64 18 -1 -6 5 -13 13 -15 12 -4
12 -3 2 5 -8 5 -14 13 -15 18 -1 5 -8 8 -14 8 -18 -2 -16 15 2 22 8 4 15 12
15 19 0 8 10 15 22 17 12 2 23 9 24 16 1 7 0 8 -3 2 -2 -5 -9 -10 -14 -10 -5
0 0 13 12 30 12 16 25 27 29 25 4 -3 7 3 6 13 0 9 4 16 11 15 7 -2 10 3 7 10
-2 7 3 21 12 32 8 11 13 15 10 8 -4 -6 -2 -14 3 -18 6 -3 8 4 6 17 -5 21 32
88 48 88 4 0 7 6 7 13 0 6 12 23 25 36 14 13 25 27 25 33 0 5 5 6 10 3 6 -3
10 0 10 7 0 8 16 28 35 47 36 33 44 51 24 51 -8 0 -7 5 1 15 11 13 10 14 -4 9
-9 -3 -16 -9 -16 -13 0 -4 -23 -7 -51 -8 -33 0 -46 3 -38 8 8 5 9 9 4 9 -6 0
-16 -5 -23 -12 -9 -9 -12 -8 -12 5 0 16 16 21 73 20 9 0 17 4 17 9 0 5 5 6 10
3 6 -4 8 -12 4 -18 -3 -7 0 -5 8 4 7 9 23 15 36 14 13 -1 25 2 28 7 3 4 9 6
14 3 4 -3 10 5 13 16 4 13 10 18 18 13 8 -4 10 -3 5 5 -9 14 84 112 98 104 5
-3 6 -1 2 6 -10 15 13 43 30 37 8 -3 11 0 7 10 -3 9 1 14 13 14 9 0 15 3 11 6
-8 8 25 44 41 44 7 0 11 3 9 8 -2 4 11 22 30 40 18 19 33 30 33 26 0 -5 7 2
16 14 8 12 20 19 26 16 6 -4 8 -3 5 3 -7 11 65 83 84 83 7 0 10 3 6 6 -8 8 94
103 111 104 8 0 10 5 6 12 -5 8 -2 9 10 5 9 -4 15 -3 11 3 -3 5 4 18 16 29 18
16 26 18 38 10 9 -7 3 1 -13 16 -16 14 -32 23 -35 18 -15 -22 -146 -67 -163
-57 -4 3 -8 1 -8 -3 0 -5 -10 -9 -22 -10 -20 -2 -19 0 7 15 17 9 33 15 38 14
4 -1 7 3 7 8 0 6 7 10 16 10 8 0 12 -4 9 -10 -3 -5 -1 -10 4 -10 6 0 11 6 11
14 0 17 59 38 112 40 14 1 24 4 21 9 -2 4 3 7 11 7 9 0 13 -6 10 -14 -3 -8 -1
-17 5 -21 7 -4 8 0 4 11 -5 13 -3 15 7 9 9 -5 11 -4 6 3 -7 11 38 38 57 33 4
-1 7 4 6 11 -3 27 2 38 17 38 9 0 12 -5 8 -12 -4 -7 -3 -8 5 -4 9 6 9 11 -1
24 -11 13 -10 15 4 9 13 -4 15 -2 11 10 -4 11 -2 14 5 9 7 -4 12 -1 12 7 0 8
8 21 17 28 14 12 16 12 8 0 -5 -10 -4 -12 3 -7 7 4 12 14 12 22 0 19 17 18 28
-1 7 -14 11 -12 27 7 11 13 13 17 5 11 -18 -16 -34 -17 -24 -1 4 7 3 8 -4 4
-28 -17 -8 11 24 34 19 14 55 40 80 58 24 18 49 30 56 26 6 -4 8 -3 4 4 -8 13
52 44 67 35 6 -3 7 -1 3 5 -6 10 93 66 110 62 4 -1 10 2 13 7 6 9 54 33 102
52 19 7 30 6 38 -2 9 -9 11 -8 6 5 -7 18 26 34 46 22 7 -4 9 -3 6 3 -8 12 59
37 74 27 8 -5 9 -3 4 6 -6 10 -3 12 13 8 13 -4 23 0 27 10 3 8 8 12 12 9 3 -4
13 -2 20 5 11 9 17 9 24 -3 7 -11 9 -10 9 5 0 11 3 16 7 13 3 -4 13 -1 21 6
13 9 14 9 8 0 -4 -7 -3 -13 2 -13 6 0 13 7 16 16 5 14 9 14 23 3 12 -10 15
-10 9 -1 -7 12 5 21 36 26 38 6 87 29 82 38 -6 9 -387 3 -424 -7 -8 -2 -44 -7
-79 -10 -81 -8 -207 -47 -254 -79 -33 -23 -57 -20 -42 4 22 36 -81 11 -390
-93 -347 -118 -614 -226 -667 -270 -15 -12 -43 -59 -63 -107 l-36 -85 5 63 c4
39 2 62 -4 62 -6 0 -38 -14 -72 -31 -176 -89 -511 -340 -562 -420 -15 -24 -29
-121 -31 -211 0 -23 -4 -27 -24 -23 -13 2 -20 1 -16 -3 3 -4 12 -7 18 -7 8 0
13 -32 15 -100 2 -55 1 -97 -3 -94 -3 4 -7 18 -9 31 -1 13 -5 29 -9 34 -16 26
-24 93 -13 105 8 9 8 10 -1 5 -7 -4 -13 -4 -14 1 -5 70 -12 129 -18 145 -6 18
-11 16 -61 -23 -139 -109 -243 -262 -272 -401 -12 -56 -13 -57 -42 -52 -16 3
-33 7 -38 10 -4 3 -5 -1 -2 -9 2 -7 15 -13 27 -12 43 4 55 -33 23 -74 -6 -8
-6 -12 -1 -9 6 3 10 -5 10 -18 0 -13 -4 -24 -10 -24 -5 0 -3 -5 5 -10 8 -5 10
-10 4 -10 -7 0 -8 -17 -4 -50 4 -27 3 -50 -1 -50 -7 0 -11 29 -24 169 -7 66
-19 70 -56 17 -18 -25 -36 -46 -41 -46 -4 0 -7 16 -6 35 1 19 -2 38 -5 42 -4
3 -2 12 4 19 8 10 16 11 30 4 15 -8 17 -7 13 4 -3 8 -14 13 -25 11 -21 -4 -35
10 -19 20 5 3 10 12 10 18 0 8 -3 8 -9 -1 -5 -9 -9 7 -10 43 0 31 -4 62 -8 67
-4 7 -1 8 7 3 9 -6 11 -4 5 6 -17 27 -25 149 -11 168 8 11 8 13 -1 8 -8 -5
-11 8 -11 43 -1 28 -4 61 -8 73 -6 20 -6 21 12 7 18 -14 18 -14 4 4 -15 19
-17 32 -25 156 -2 36 -4 65 -5 65 -8 0 -6 103 2 113 8 9 7 11 -4 7 -11 -4 -14
4 -15 40 -1 25 -2 46 -3 48 -1 1 -3 26 -5 55 -3 48 -2 52 13 40 13 -11 14 -11
8 0 -4 7 -2 21 5 30 11 14 11 15 -1 5 -8 -7 -21 -13 -29 -13 -14 0 -14 1 -1
10 8 5 10 10 3 10 -6 0 -10 13 -9 30 1 17 -1 36 -5 42 -4 7 -2 19 4 27 9 12 9
13 -1 7 -9 -6 -11 -1 -8 18 3 14 1 26 -3 26 -4 0 -8 6 -8 13 0 6 -3 38 -7 71
-6 47 -5 57 6 51 7 -3 6 0 -3 7 -20 16 -32 88 -15 88 8 0 8 3 -1 8 -10 6 -36
93 -30 98 1 0 11 6 22 13 18 10 17 11 -7 5 -25 -6 -28 -3 -28 21 0 14 -5 35
-10 45 -7 13 -7 21 0 25 5 3 10 12 10 18 0 8 -3 8 -9 -1 -7 -11 -9 -11 -14 2
-4 9 -1 16 6 16 7 0 4 5 -5 11 -24 14 -23 29 2 24 13 -3 18 0 14 7 -5 7 -2 9
9 5 11 -4 14 -2 10 9 -5 13 -7 13 -22 0 -19 -18 -39 -8 -35 17 1 9 -1 17 -6
17 -4 0 -13 14 -19 32 -9 24 -8 34 1 41 9 6 8 7 -5 3 -11 -4 -20 0 -24 12 -13
34 -83 130 -115 157 -18 16 -53 38 -78 49 -45 21 -54 21 -885 21 -462 0 -1110
-2 -1440 -5z m405 -5174 c0 -3 -4 -8 -10 -11 -5 -3 -10 -1 -10 4 0 6 5 11 10
11 6 0 10 -2 10 -4z m100 -56 c-8 -5 -11 -12 -8 -15 4 -4 12 2 19 13 12 18 13
18 48 -14 19 -19 39 -34 43 -34 4 0 8 -7 8 -16 0 -8 4 -13 8 -10 4 2 14 1 22
-5 13 -8 13 -9 0 -9 -10 0 -7 -5 8 -16 12 -8 27 -12 32 -9 6 3 10 2 10 -3 0
-15 -30 -23 -30 -9 0 7 -5 4 -11 -5 -11 -21 3 -59 15 -39 4 6 2 11 -3 11 -6 0
-11 4 -11 8 0 13 33 11 49 -2 11 -9 13 -6 6 14 -7 23 -7 23 9 7 10 -9 22 -14
28 -11 7 4 8 2 4 -4 -5 -8 1 -12 16 -13 18 -1 19 -2 5 -6 -10 -3 -24 1 -32 7
-12 10 -16 9 -21 -4 -4 -11 -13 -15 -28 -10 -21 6 -21 6 -1 -9 17 -13 21 -13
32 2 11 15 12 15 13 -1 0 -10 -3 -18 -7 -19 -5 0 -16 -2 -26 -4 -10 -2 -21 3
-24 11 -3 8 -9 11 -14 8 -5 -3 -20 6 -33 19 -13 13 -31 22 -40 21 -9 -1 -14 1
-11 6 5 8 -45 46 -57 42 -4 -1 -15 9 -24 23 -9 14 -19 23 -23 20 -4 -2 -8 1
-9 8 0 7 -3 23 -6 35 -4 20 -3 22 10 11 13 -10 16 -9 21 10 4 16 9 19 17 11 8
-8 7 -13 -4 -20z m325 -172 c5 4 5 2 2 -4 -4 -7 0 -14 7 -17 8 -3 16 -1 19 6
2 7 6 7 10 1 3 -5 -4 -16 -16 -23 -12 -8 -19 -10 -15 -6 4 4 -5 18 -20 32 -15
14 -20 20 -11 14 9 -6 20 -7 24 -3z m100 -50 c5 4 5 1 1 -5 -11 -20 -22 -15
-35 15 l-11 27 19 -22 c10 -12 22 -19 26 -15z m25 12 c0 -5 -2 -10 -4 -10 -3
0 -8 5 -11 10 -3 6 -1 10 4 10 6 0 11 -4 11 -10z m22 -6 c-5 -9 -7 -26 -5 -38
4 -19 3 -19 -7 -4 -10 17 1 58 16 58 3 0 1 -7 -4 -16z m32 -10 c3 -8 2 -12 -4
-9 -6 3 -10 1 -10 -6 0 -7 -2 -10 -5 -7 -5 5 4 38 10 38 2 0 6 -7 9 -16z
m-144 -4 c0 -5 -5 -10 -11 -10 -5 0 -7 5 -4 10 3 6 8 10 11 10 2 0 4 -4 4 -10z
m83 -23 c3 -8 -1 -14 -8 -14 -7 0 -11 6 -8 14 3 7 6 13 8 13 2 0 5 -6 8 -13z"/>
<path d="M1350 1135 c-9 -11 -17 -12 -31 -4 -10 5 -19 8 -19 6 0 -8 51 -71 54
-67 2 3 13 -4 25 -14 12 -11 21 -15 21 -11 0 5 6 0 14 -11 8 -10 19 -19 25
-19 5 0 17 -9 24 -20 14 -18 15 -18 12 8 -2 15 2 27 8 27 7 0 4 5 -6 11 -9 6
-15 15 -11 20 3 5 2 9 -3 8 -19 -3 -34 2 -29 10 4 5 -11 23 -33 40 -33 27 -40
29 -51 16z m68 -42 c7 -7 10 -13 5 -13 -4 0 3 -9 16 -19 14 -10 26 -26 27 -35
2 -13 -1 -14 -10 -7 -7 6 -15 8 -19 5 -3 -3 -10 4 -17 15 -6 12 -15 19 -20 16
-5 -3 -15 4 -23 16 -8 11 -16 16 -18 11 -2 -6 -13 1 -23 16 -11 14 -15 22 -9
19 6 -4 16 0 23 8 13 16 17 14 68 -32z"/>
<path d="M1350 1116 c-11 -15 -7 -20 12 -17 4 0 12 -8 18 -19 6 -11 15 -18 20
-15 5 3 15 -3 22 -12 7 -10 20 -19 28 -21 9 -2 5 6 -10 20 -14 13 -37 36 -51
51 -23 25 -27 26 -39 13z m50 -40 c0 -6 -7 0 -16 12 -8 12 -20 19 -26 16 -7
-5 -8 -2 -4 5 6 9 13 8 27 -5 10 -9 19 -22 19 -28z"/>
<path d="M1510 996 c0 -2 7 -7 16 -10 8 -3 12 -2 9 4 -6 10 -25 14 -25 6z"/>
<path d="M3426 6082 c-3 -5 1 -9 9 -9 8 0 15 4 15 9 0 4 -4 8 -9 8 -6 0 -12
-4 -15 -8z"/>
<path d="M3471 6053 c7 -12 15 -20 18 -17 3 2 -3 12 -13 22 -17 16 -18 16 -5
-5z"/>
<path d="M3513 5985 c0 -8 4 -12 9 -9 5 3 6 10 3 15 -9 13 -12 11 -12 -6z"/>
<path d="M3481 5941 c-8 -5 -9 -11 -3 -15 5 -3 12 1 16 9 6 17 6 18 -13 6z"/>
<path d="M3536 5933 c-6 -14 -5 -15 5 -6 7 7 10 15 7 18 -3 3 -9 -2 -12 -12z"/>
<path d="M3550 5900 c0 -5 5 -10 11 -10 5 0 7 5 4 10 -3 6 -8 10 -11 10 -2 0
-4 -4 -4 -10z"/>
<path d="M3555 5860 c-16 -7 -17 -9 -3 -9 9 -1 20 4 23 9 7 11 7 11 -20 0z"/>
<path d="M6816 5831 c-4 -5 3 -7 14 -4 23 6 26 13 6 13 -8 0 -17 -4 -20 -9z"/>
<path d="M3485 5819 c-4 -6 -5 -12 -2 -15 2 -3 7 2 10 11 7 17 1 20 -8 4z"/>
<path d="M3518 5823 c7 -3 16 -2 19 1 4 3 -2 6 -13 5 -11 0 -14 -3 -6 -6z"/>
<path d="M6907 5813 c3 -7 6 -13 8 -13 2 0 5 6 8 13 3 8 -1 14 -8 14 -7 0 -11
-6 -8 -14z"/>
<path d="M6974 5805 c1 -8 6 -18 11 -22 4 -4 5 -3 2 4 -4 6 -2 13 5 15 8 3 6
6 -4 10 -10 4 -15 2 -14 -7z"/>
<path d="M6933 5795 c0 -7 6 -11 14 -8 7 3 13 6 13 8 0 2 -6 5 -13 8 -8 3 -14
-1 -14 -8z"/>
<path d="M6615 5790 c-3 -6 1 -7 9 -4 18 7 21 14 7 14 -6 0 -13 -4 -16 -10z"/>
<path d="M6773 5765 c0 -8 5 -11 10 -8 6 4 8 0 5 -8 -4 -10 1 -15 15 -17 17
-1 19 1 7 8 -14 9 -7 14 13 11 5 -1 6 3 2 9 -3 6 -11 8 -16 4 -5 -3 -16 -1
-23 5 -9 8 -13 7 -13 -4z"/>
<path d="M3548 5752 c-4 -12 1 -18 13 -18 12 0 15 4 9 12 -6 6 -7 14 -3 17 3
4 2 7 -4 7 -6 0 -13 -8 -15 -18z"/>
<path d="M6673 5763 c4 -3 3 -11 -3 -17 -6 -8 -3 -12 9 -12 12 0 17 6 13 18
-2 10 -9 18 -15 18 -6 0 -7 -3 -4 -7z"/>
<path d="M6436 5742 c-3 -5 1 -9 9 -9 8 0 12 4 9 9 -3 4 -7 8 -9 8 -2 0 -6 -4
-9 -8z"/>
<path d="M6548 5733 c6 -2 18 -2 25 0 6 3 1 5 -13 5 -14 0 -19 -2 -12 -5z"/>
<path d="M3580 5720 c-12 -7 -10 -9 8 -7 12 0 22 5 22 9 0 11 -12 10 -30 -2z"/>
<path d="M6490 5722 c0 -4 10 -9 22 -9 18 -2 20 0 8 7 -18 12 -30 13 -30 2z"/>
<path d="M6753 5715 c0 -8 4 -12 9 -9 4 3 8 9 8 15 0 5 -4 9 -8 9 -5 0 -9 -7
-9 -15z"/>
<path d="M6850 5718 c0 -6 3 -8 7 -5 3 4 13 1 22 -6 14 -11 14 -10 2 6 -15 20
-31 22 -31 5z"/>
<path d="M6950 5720 c0 -5 5 -10 10 -10 6 0 10 5 10 10 0 6 -4 10 -10 10 -5 0
-10 -4 -10 -10z"/>
<path d="M3508 5703 c6 -2 18 -2 25 0 6 3 1 5 -13 5 -14 0 -19 -2 -12 -5z"/>
<path d="M3616 5693 c-6 -14 -5 -15 5 -6 7 7 10 15 7 18 -3 3 -9 -2 -12 -12z"/>
<path d="M6474 5696 c1 -8 5 -18 8 -22 4 -3 5 1 4 10 -1 8 -5 18 -8 22 -4 3
-5 -1 -4 -10z"/>
<path d="M6628 5691 c4 -10 1 -12 -8 -6 -9 5 -11 4 -6 -4 4 -6 12 -9 17 -5 5
3 16 1 23 -5 9 -8 13 -7 13 4 0 8 -5 11 -10 8 -6 -4 -8 0 -5 8 4 10 -1 15 -12
15 -11 0 -16 -5 -12 -15z"/>
<path d="M6720 5691 c-7 -15 -7 -19 5 -17 8 1 18 6 22 11 5 4 2 5 -6 0 -11 -6
-13 -4 -8 8 9 23 0 21 -13 -2z"/>
<path d="M6827 5689 c6 -22 20 -26 20 -4 0 8 -6 16 -13 19 -7 3 -10 -2 -7 -15z"/>
<path d="M6334 5681 c0 -15 5 -17 21 -11 11 4 23 7 27 6 3 0 10 2 14 6 3 4 -4
5 -16 3 -13 -3 -29 0 -35 5 -7 6 -11 3 -11 -9z"/>
<path d="M3510 5685 c0 -7 30 -13 34 -7 3 4 -4 9 -15 9 -10 1 -19 0 -19 -2z"/>
<path d="M6436 5682 c-2 -4 -1 -14 4 -22 7 -11 9 -9 7 8 -1 24 -3 26 -11 14z"/>
<path d="M6501 5674 c0 -11 3 -14 6 -6 3 7 2 16 -1 19 -3 4 -6 -2 -5 -13z"/>
<path d="M6533 5675 c0 -7 8 -10 19 -7 10 2 18 6 18 7 0 1 -8 5 -18 7 -11 3
-19 0 -19 -7z"/>
<path d="M3570 5649 c0 -5 -6 -7 -12 -3 -7 4 -10 4 -6 -1 4 -4 3 -13 -2 -20
-7 -8 -5 -12 5 -12 8 0 11 5 8 10 -4 6 0 8 9 4 12 -4 14 -1 11 14 -6 21 -13
26 -13 8z"/>
<path d="M6406 5647 c-17 -12 -17 -14 1 -28 17 -13 17 -13 3 5 -13 18 -13 19
1 14 10 -4 16 -1 16 8 0 17 1 17 -21 1z"/>
<path d="M6933 5645 c0 -7 6 -11 14 -8 7 3 13 6 13 8 0 2 -6 5 -13 8 -8 3 -14
-1 -14 -8z"/>
<path d="M6979 5658 c-8 -27 -5 -36 9 -30 10 4 12 7 4 10 -7 2 -10 8 -6 13 3
5 3 9 0 9 -3 0 -6 -1 -7 -2z"/>
<path d="M3596 5638 c3 -5 10 -6 15 -3 13 9 11 12 -6 12 -8 0 -12 -4 -9 -9z"/>
<path d="M6494 5638 c-4 -5 -3 -12 0 -15 3 -4 6 -1 6 6 0 7 4 10 9 6 5 -3 12
-2 15 3 3 5 -2 9 -10 9 -8 0 -17 -4 -20 -9z"/>
<path d="M6754 5634 c1 -8 6 -17 11 -21 4 -5 5 -2 0 6 -6 11 -4 13 8 8 10 -4
14 -2 11 7 -6 17 -32 16 -30 0z"/>
<path d="M6854 5638 c-5 -7 -3 -8 6 -3 9 6 12 4 8 -7 -4 -8 0 -15 7 -15 10 0
11 5 4 19 -11 21 -15 22 -25 6z"/>
<path d="M6908 5632 c-3 -11 0 -19 7 -19 7 0 10 8 7 19 -2 10 -6 18 -7 18 -1
0 -5 -8 -7 -18z"/>
<path d="M3514 5606 c1 -8 5 -18 8 -22 4 -3 5 1 4 10 -1 8 -5 18 -8 22 -4 3
-5 -1 -4 -10z"/>
<path d="M3595 5609 c-4 -6 -5 -12 -2 -15 2 -3 7 2 10 11 7 17 1 20 -8 4z"/>
<path d="M6293 5605 c0 -8 5 -11 10 -8 6 4 8 0 5 -8 -4 -10 1 -15 12 -15 11 0
16 5 12 15 -4 10 -1 12 8 6 9 -5 11 -4 6 4 -4 6 -12 9 -17 5 -5 -3 -16 -1 -23
5 -9 8 -13 7 -13 -4z"/>
<path d="M6608 5613 c-10 -2 -18 -9 -18 -15 0 -6 3 -8 7 -5 3 4 11 3 17 -3 8
-6 12 -3 12 11 0 10 0 18 -1 18 0 -1 -8 -3 -17 -6z"/>
<path d="M6656 5606 c5 -14 40 -14 53 0 3 4 -1 4 -9 2 -8 -3 -23 -1 -32 4 -13
6 -16 5 -12 -6z"/>
<path d="M6118 5598 c-9 -5 -6 -7 9 -5 12 2 25 6 28 8 8 9 -23 6 -37 -3z"/>
<path d="M6419 5599 c-10 -7 -6 -8 13 -5 15 2 29 0 32 -5 2 -5 3 -4 2 2 -3 15
-29 20 -47 8z"/>
<path d="M6950 5598 c0 -4 4 -8 9 -8 6 0 12 4 15 8 3 5 -1 9 -9 9 -8 0 -15 -4
-15 -9z"/>
<path d="M6155 5581 c-3 -5 -2 -12 3 -15 5 -3 9 1 9 9 0 17 -3 19 -12 6z"/>
<path d="M6547 5573 c4 -10 2 -14 -4 -10 -6 4 -16 0 -22 -7 -9 -10 -9 -16 -1
-21 6 -4 10 -3 9 2 -3 18 2 27 9 16 6 -9 11 -7 19 7 10 14 9 19 -2 24 -10 3
-12 0 -8 -11z"/>
<path d="M6713 5571 c10 -12 9 -14 -4 -9 -9 4 -16 1 -16 -7 0 -10 5 -11 19 -4
10 6 16 14 13 19 -3 4 1 10 7 13 7 3 3 4 -9 4 -18 -1 -20 -4 -10 -16z"/>
<path d="M6908 5568 c7 -27 17 -29 17 -4 0 13 -5 23 -11 23 -6 0 -9 -9 -6 -19z"/>
<path d="M6180 5571 c0 -6 4 -13 10 -16 6 -3 7 1 4 9 -7 18 -14 21 -14 7z"/>
<path d="M6803 5558 c-9 -19 -8 -25 2 -25 8 0 11 7 7 15 -3 10 -1 13 6 8 6 -3
14 -1 18 5 4 7 3 9 -4 5 -5 -3 -12 -1 -14 5 -2 6 -9 0 -15 -13z"/>
<path d="M3573 5555 c0 -8 4 -12 9 -9 5 3 6 10 3 15 -9 13 -12 11 -12 -6z"/>
<path d="M3600 5550 c-6 -12 -5 -17 5 -17 7 0 11 7 7 15 -3 10 -1 13 6 8 6 -3
13 -3 16 2 3 5 -2 9 -10 9 -8 0 -19 -8 -24 -17z"/>
<path d="M6067 5564 c-4 -4 -7 -12 -7 -18 0 -6 5 -4 10 4 9 13 11 13 21 0 9
-12 10 -12 7 -1 -5 17 -21 25 -31 15z"/>
<path d="M6625 5560 c-3 -6 1 -7 9 -4 18 7 21 14 7 14 -6 0 -13 -4 -16 -10z"/>
<path d="M6891 5554 c0 -11 3 -14 6 -6 3 7 2 16 -1 19 -3 4 -6 -2 -5 -13z"/>
<path d="M6597 5547 c-3 -8 1 -14 8 -14 7 0 11 6 8 14 -3 7 -6 13 -8 13 -2 0
-5 -6 -8 -13z"/>
<path d="M3554 5528 c2 -15 0 -29 -5 -32 -5 -2 -4 -3 2 -2 15 3 20 29 8 47 -7
10 -8 6 -5 -13z"/>
<path d="M6267 5529 c6 -22 20 -26 20 -4 0 8 -6 16 -13 19 -7 3 -10 -2 -7 -15z"/>
<path d="M6166 5531 c-19 -7 -19 -8 0 -13 13 -3 21 0 21 8 0 8 -1 14 -1 13 -1
0 -10 -4 -20 -8z"/>
<path d="M6213 5525 c0 -7 6 -11 14 -8 7 3 13 6 13 8 0 2 -6 5 -13 8 -8 3 -14
-1 -14 -8z"/>
<path d="M6453 5525 c0 -8 5 -11 10 -8 6 4 8 0 4 -9 -4 -12 -1 -14 16 -10 12
3 16 7 9 10 -7 2 -9 9 -5 15 3 7 3 9 -2 5 -4 -4 -13 -3 -20 2 -8 7 -12 5 -12
-5z"/>
<path d="M3626 5521 c-3 -4 6 -7 19 -7 14 0 22 2 19 5 -8 8 -34 10 -38 2z"/>
<path d="M6556 5515 c-9 -26 -7 -32 5 -12 6 10 9 21 6 23 -2 3 -7 -2 -11 -11z"/>
<path d="M6748 5512 c-4 -12 1 -18 13 -18 12 0 15 4 9 12 -6 6 -7 14 -3 17 3
4 2 7 -4 7 -6 0 -13 -8 -15 -18z"/>
<path d="M6635 5511 c-3 -5 -2 -12 3 -15 5 -3 9 1 9 9 0 17 -3 19 -12 6z"/>
<path d="M5996 5501 c-17 -6 -17 -8 -4 -14 10 -3 19 0 22 9 3 8 4 14 3 13 -1
0 -11 -4 -21 -8z"/>
<path d="M6070 5500 c0 -5 5 -10 10 -10 6 0 10 5 10 10 0 6 -4 10 -10 10 -5 0
-10 -4 -10 -10z"/>
<path d="M6148 5492 c4 -10 7 -12 10 -4 2 7 9 9 15 5 7 -3 8 -2 4 2 -14 16
-36 14 -29 -3z"/>
<path d="M6598 5491 c5 -13 3 -14 -9 -4 -12 10 -15 8 -16 -10 0 -12 1 -16 4
-9 3 6 9 10 13 7 5 -3 13 3 19 13 7 14 6 19 -4 19 -8 0 -11 -7 -7 -16z"/>
<path d="M3634 5492 c4 -7 3 -19 -3 -26 -8 -9 -7 -13 4 -13 8 0 11 5 8 10 -4
6 0 8 8 5 10 -4 15 1 16 16 0 11 -1 15 -4 8 -4 -10 -8 -10 -21 0 -13 11 -14
11 -8 0z"/>
<path d="M6332 5491 c-11 -7 -11 -9 0 -14 9 -3 15 1 15 9 0 8 -1 14 -1 14 -1
0 -7 -4 -14 -9z"/>
<path d="M6715 5490 c-4 -6 -11 -8 -16 -5 -5 4 -9 1 -9 -4 0 -16 16 -13 30 4
7 8 10 15 7 15 -3 0 -9 -5 -12 -10z"/>
<path d="M6180 5480 c-8 -5 -10 -10 -5 -10 6 0 17 5 25 10 8 5 11 10 5 10 -5
0 -17 -5 -25 -10z"/>
<path d="M6358 5472 c-3 -11 0 -19 7 -19 7 0 10 8 7 19 -2 10 -6 18 -7 18 -1
0 -5 -8 -7 -18z"/>
<path d="M6440 5480 c8 -5 20 -10 25 -10 6 0 3 5 -5 10 -8 5 -19 10 -25 10 -5
0 -3 -5 5 -10z"/>
<path d="M3559 5468 c-6 -15 -4 -58 3 -58 4 0 6 11 4 24 -2 14 1 27 7 30 9 3
9 5 0 5 -7 1 -13 0 -14 -1z"/>
<path d="M5924 5456 c-3 -9 -13 -12 -22 -9 -9 4 -14 3 -11 -1 11 -12 48 -15
55 -4 5 7 2 8 -6 3 -10 -6 -12 -4 -7 8 3 10 4 17 1 17 -2 0 -7 -6 -10 -14z"/>
<path d="M6227 5453 c5 -12 3 -14 -8 -8 -8 5 -11 4 -6 0 4 -5 13 -10 21 -11
16 -2 17 24 0 30 -9 3 -11 -1 -7 -11z"/>
<path d="M6396 5461 c-3 -5 1 -14 8 -20 10 -9 16 -9 21 -1 4 6 3 10 -2 9 -20
-3 -27 2 -13 11 9 6 10 10 3 10 -6 0 -14 -4 -17 -9z"/>
<path d="M6055 5450 c-4 -6 -11 -8 -16 -5 -5 4 -9 2 -9 -3 0 -5 8 -12 18 -14
12 -4 18 1 18 13 0 22 -2 23 -11 9z"/>
<path d="M6094 5441 c0 -12 6 -17 18 -13 10 2 18 9 18 15 0 6 -3 7 -7 4 -3 -4
-11 -3 -17 3 -8 6 -12 3 -12 -9z"/>
<path d="M6528 5453 c-10 -2 -18 -9 -18 -15 0 -6 3 -8 7 -5 3 4 11 3 17 -3 8
-6 12 -3 12 11 0 10 0 18 -1 18 0 -1 -8 -3 -17 -6z"/>
<path d="M3673 5431 c0 -11 5 -18 9 -15 4 3 5 11 1 19 -7 21 -12 19 -10 -4z"/>
<path d="M6306 5442 c-3 -5 1 -9 9 -9 8 0 15 4 15 9 0 4 -4 8 -9 8 -6 0 -12
-4 -15 -8z"/>
<path d="M6596 5441 c3 -3 18 -6 34 -6 16 0 27 2 24 5 -3 3 -19 5 -35 6 -16 0
-26 -2 -23 -5z"/>
<path d="M6277 5408 c19 -22 19 -22 26 -4 4 11 1 13 -10 9 -10 -4 -14 -2 -10
4 3 5 0 10 -8 10 -13 0 -12 -4 2 -19z"/>
<path d="M6358 5408 c2 -10 6 -18 7 -18 1 0 5 8 7 18 3 11 0 19 -7 19 -7 0
-10 -8 -7 -19z"/>
<path d="M6473 5415 c0 -8 4 -12 9 -9 5 3 6 10 3 15 -9 13 -12 11 -12 -6z"/>
<path d="M5971 5404 c0 -11 3 -14 6 -6 3 7 2 16 -1 19 -3 4 -6 -2 -5 -13z"/>
<path d="M6450 5406 c0 -8 4 -17 9 -20 5 -4 7 3 4 14 -6 23 -13 26 -13 6z"/>
<path d="M335 5400 c3 -5 8 -10 11 -10 2 0 4 5 4 10 0 6 -5 10 -11 10 -5 0 -7
-4 -4 -10z"/>
<path d="M395 5400 c-3 -5 -1 -10 4 -10 6 0 11 5 11 10 0 6 -2 10 -4 10 -3 0
-8 -4 -11 -10z"/>
<path d="M5907 5399 c7 -7 15 -10 18 -7 3 3 -2 9 -12 12 -14 6 -15 5 -6 -5z"/>
<path d="M5994 5396 c1 -8 5 -18 8 -22 4 -3 5 1 4 10 -1 8 -5 18 -8 22 -4 3
-5 -1 -4 -10z"/>
<path d="M6325 5397 c-14 -11 -15 -16 -5 -22 9 -6 11 -4 5 5 -6 9 -4 12 7 8 9
-4 15 0 15 8 0 17 1 17 -22 1z"/>
<path d="M6428 5392 c-3 -11 0 -19 7 -19 7 0 10 8 7 19 -2 10 -6 18 -7 18 -1
0 -5 -8 -7 -18z"/>
<path d="M6555 5400 c3 -5 8 -10 11 -10 2 0 4 5 4 10 0 6 -5 10 -11 10 -5 0
-7 -4 -4 -10z"/>
<path d="M467 5387 c-3 -8 1 -14 8 -14 7 0 11 6 8 14 -3 7 -6 13 -8 13 -2 0
-5 -6 -8 -13z"/>
<path d="M5840 5391 c0 -6 4 -13 10 -16 6 -3 7 1 4 9 -7 18 -14 21 -14 7z"/>
<path d="M6495 5390 c-4 -6 1 -7 11 -3 13 5 15 3 9 -7 -5 -9 -4 -11 4 -6 6 4
9 12 6 17 -8 12 -22 12 -30 -1z"/>
<path d="M519 5380 c-4 -34 -3 -44 9 -46 7 -1 8 0 3 2 -5 3 -7 16 -5 30 2 13
2 24 -1 24 -3 0 -6 -4 -6 -10z"/>
<path d="M3547 5379 c7 -7 15 -10 18 -7 3 3 -2 9 -12 12 -14 6 -15 5 -6 -5z"/>
<path d="M654 5369 c3 -15 29 -20 47 -8 10 7 6 8 -13 5 -15 -2 -29 0 -32 5 -2
5 -3 4 -2 -2z"/>
<path d="M5934 5361 c0 -12 6 -17 18 -13 10 2 18 9 18 15 0 6 -3 7 -7 4 -3 -4
-11 -3 -17 3 -8 6 -12 3 -12 -9z"/>
<path d="M6090 5371 c-8 -6 -19 -7 -25 -3 -5 3 -4 -1 3 -10 10 -13 10 -17 0
-21 -7 -3 -3 -4 9 -4 18 1 20 4 10 16 -10 12 -9 14 4 9 10 -4 16 -1 16 8 0 8
-1 14 -1 14 -1 0 -8 -4 -16 -9z"/>
<path d="M6220 5372 c0 -6 -11 -9 -27 -6 -15 3 -25 3 -22 -1 12 -11 49 -14 55
-4 3 6 3 13 0 16 -3 4 -6 1 -6 -5z"/>
<path d="M436 5362 c-3 -5 1 -9 9 -9 8 0 12 4 9 9 -3 4 -7 8 -9 8 -2 0 -6 -4
-9 -8z"/>
<path d="M630 5361 c0 -6 4 -13 10 -16 6 -3 7 1 4 9 -7 18 -14 21 -14 7z"/>
<path d="M3628 5352 c-4 -12 1 -18 13 -18 12 0 15 4 9 12 -6 6 -7 14 -3 17 3
4 2 7 -4 7 -6 0 -13 -8 -15 -18z"/>
<path d="M6256 5354 c-3 -7 2 -10 15 -7 22 6 26 20 4 20 -8 0 -16 -6 -19 -13z"/>
<path d="M6395 5360 c-3 -5 -3 -10 2 -10 4 0 2 -4 -5 -9 -11 -7 -10 -9 3 -14
9 -4 14 -3 10 2 -3 5 1 12 7 14 10 4 10 6 0 6 -7 1 -10 6 -7 11 3 6 4 10 1 10
-3 0 -8 -4 -11 -10z"/>
<path d="M6470 5359 c0 -5 5 -7 10 -4 6 3 10 8 10 11 0 2 -4 4 -10 4 -5 0 -10
-5 -10 -11z"/>
<path d="M591 5334 c6 -7 8 -18 5 -23 -4 -5 -2 -13 4 -16 6 -4 10 -3 9 2 -3
20 2 27 11 13 7 -12 9 -10 8 7 -2 14 -7 19 -17 15 -8 -3 -12 -1 -8 5 3 5 0 10
-8 10 -11 0 -12 -4 -4 -13z"/>
<path d="M710 5338 c5 -6 6 -18 0 -28 -6 -11 -5 -17 4 -17 15 0 14 34 -2 47
-9 7 -9 7 -2 -2z"/>
<path d="M6157 5333 c3 -7 6 -13 8 -13 2 0 5 6 8 13 3 8 -1 14 -8 14 -7 0 -11
-6 -8 -14z"/>
<path d="M439 5338 c-5 -18 -6 -38 -1 -34 7 8 12 36 6 36 -2 0 -4 -1 -5 -2z"/>
<path d="M3670 5324 c0 -20 27 -37 36 -23 4 7 3 9 -4 5 -6 -3 -15 2 -21 11 -6
10 -11 13 -11 7z"/>
<path d="M5870 5310 c-6 -12 -5 -17 5 -17 7 0 11 7 7 15 -3 10 -1 13 6 8 6 -3
13 -3 16 2 3 5 -2 9 -10 9 -8 0 -19 -8 -24 -17z"/>
<path d="M6020 5320 c8 -5 20 -10 25 -10 6 0 3 5 -5 10 -8 5 -19 10 -25 10 -5
0 -3 -5 5 -10z"/>
<path d="M6110 5320 c0 -5 5 -10 10 -10 6 0 10 5 10 10 0 6 -4 10 -10 10 -5 0
-10 -4 -10 -10z"/>
<path d="M6233 5312 c2 -12 9 -28 17 -35 10 -10 11 -9 4 3 -5 8 -9 21 -10 28
-2 8 -5 17 -8 20 -4 3 -5 -4 -3 -16z"/>
<path d="M6319 5328 c-6 -20 -6 -39 0 -42 4 -3 7 6 7 20 0 20 -4 32 -7 22z"/>
<path d="M6350 5310 c-9 -6 -10 -10 -3 -10 6 0 15 5 18 10 8 12 4 12 -15 0z"/>
<path d="M470 5299 c0 -15 18 -19 23 -6 3 8 -1 14 -9 14 -8 0 -14 -4 -14 -8z"/>
<path d="M3628 5288 c2 -10 9 -18 15 -18 6 0 7 3 4 7 -4 3 -3 11 3 17 6 8 3
12 -9 12 -12 0 -17 -6 -13 -18z"/>
<path d="M5833 5295 c0 -8 4 -12 9 -9 5 3 6 10 3 15 -9 13 -12 11 -12 -6z"/>
<path d="M5913 5288 c-2 -18 0 -20 7 -8 12 18 13 30 2 30 -4 0 -9 -10 -9 -22z"/>
<path d="M5995 5300 c-11 -5 -14 -9 -7 -9 8 -1 10 -6 6 -13 -4 -7 -4 -10 1 -6
4 4 13 3 20 -2 8 -7 12 -5 12 5 0 8 -5 11 -10 8 -6 -4 -8 0 -4 10 3 10 5 17 4
16 -1 0 -11 -4 -22 -9z"/>
<path d="M6079 5288 c-6 -13 -8 -20 -4 -16 5 4 13 3 20 -2 8 -7 12 -5 12 5 0
8 -5 11 -10 8 -6 -4 -8 0 -4 10 9 25 0 21 -14 -5z"/>
<path d="M6156 5302 c-3 -5 1 -9 9 -9 8 0 12 4 9 9 -3 4 -7 8 -9 8 -2 0 -6 -4
-9 -8z"/>
<path d="M501 5274 c0 -11 3 -14 6 -6 3 7 2 16 -1 19 -3 4 -6 -2 -5 -13z"/>
<path d="M555 5281 c-6 -11 13 -26 22 -17 4 3 1 6 -6 6 -7 0 -9 5 -6 10 3 6 4
10 1 10 -3 0 -7 -4 -11 -9z"/>
<path d="M676 5282 c-3 -4 4 -9 15 -9 23 -2 25 3 4 10 -8 4 -16 3 -19 -1z"/>
<path d="M6179 5279 c-10 -7 -6 -8 13 -5 15 2 29 0 32 -5 2 -5 3 -4 2 2 -3 15
-29 20 -47 8z"/>
<path d="M3696 5267 c3 -10 9 -15 12 -12 3 3 0 11 -7 18 -10 9 -11 8 -5 -6z"/>
<path d="M5759 5268 c-8 -20 -3 -55 7 -55 11 0 11 3 1 16 -10 12 -9 14 4 9 9
-4 16 -1 16 7 0 8 -7 11 -15 7 -10 -3 -13 -1 -8 6 4 7 5 12 2 12 -3 0 -6 -1
-7 -2z"/>
<path d="M5867 5253 c3 -7 6 -13 8 -13 2 0 5 6 8 13 3 8 -1 14 -8 14 -7 0 -11
-6 -8 -14z"/>
<path d="M5951 5263 c3 -18 -2 -27 -9 -16 -6 9 -11 7 -19 -7 -10 -14 -9 -19 2
-24 10 -3 12 0 8 11 -4 10 -2 14 4 10 6 -4 16 0 22 7 9 10 9 16 1 21 -6 4 -10
3 -9 -2z"/>
<path d="M6278 5263 c7 -3 16 -2 19 1 4 3 -2 6 -13 5 -11 0 -14 -3 -6 -6z"/>
<path d="M6257 5249 c7 -7 15 -10 18 -7 3 3 -2 9 -12 12 -14 6 -15 5 -6 -5z"/>
<path d="M3560 5236 c0 -8 4 -17 9 -20 5 -4 7 3 4 14 -6 23 -13 26 -13 6z"/>
<path d="M3654 5239 c-3 -6 -3 -13 0 -16 3 -4 6 -1 6 5 0 6 7 9 15 6 8 -4 15
-4 15 -1 0 11 -30 16 -36 6z"/>
<path d="M5731 5234 c0 -11 3 -14 6 -6 3 7 2 16 -1 19 -3 4 -6 -2 -5 -13z"/>
<path d="M5840 5240 c-9 -6 -10 -10 -3 -10 6 0 15 5 18 10 8 12 4 12 -15 0z"/>
<path d="M6114 5234 c1 -7 6 -17 10 -21 4 -4 7 -3 6 2 -5 22 1 29 11 15 8 -12
10 -12 7 -1 -5 18 -37 23 -34 5z"/>
<path d="M6231 5227 c-8 -10 -7 -14 2 -14 8 0 14 6 14 14 0 7 -1 13 -2 13 -2
0 -8 -6 -14 -13z"/>
<path d="M5854 5201 c0 -12 6 -17 18 -13 10 2 18 9 18 15 0 6 -3 7 -7 4 -3 -4
-11 -3 -17 3 -8 6 -12 3 -12 -9z"/>
<path d="M6014 5209 c3 -15 29 -20 47 -8 10 7 6 8 -13 5 -15 -2 -29 0 -32 5
-2 5 -3 4 -2 -2z"/>
<path d="M3595 5191 c1 -8 7 -16 14 -17 7 -2 7 0 1 3 -7 3 -8 9 -1 17 8 9 7
13 -3 13 -8 0 -13 -7 -11 -16z"/>
<path d="M5790 5199 c0 -3 9 -9 19 -12 13 -3 18 0 15 7 -5 13 -34 18 -34 5z"/>
<path d="M3565 5179 c-4 -6 -5 -12 -2 -15 2 -3 7 2 10 11 7 17 1 20 -8 4z"/>
<path d="M5667 5174 c2 -7 11 -10 19 -7 19 7 18 10 -5 16 -13 3 -18 1 -14 -9z"/>
<path d="M6073 5171 c10 -12 9 -14 -4 -9 -9 4 -16 1 -16 -7 0 -10 5 -11 16 -5
9 4 19 7 23 7 3 -1 10 2 15 6 4 5 4 8 -2 7 -21 -5 -29 1 -15 10 12 7 10 9 -7
7 -18 -1 -20 -4 -10 -16z"/>
<path d="M5980 5169 c0 -5 -4 -8 -9 -4 -5 3 -12 1 -15 -4 -4 -5 2 -8 11 -7 15
3 33 26 19 26 -3 0 -6 -5 -6 -11z"/>
<path d="M3681 5156 c-9 -10 -8 -15 3 -19 11 -4 13 -1 9 10 -5 12 -3 14 7 8 9
-5 11 -4 6 3 -9 15 -11 15 -25 -2z"/>
<path d="M5747 5133 c5 -12 3 -14 -7 -8 -8 5 -11 4 -6 -3 4 -6 13 -9 22 -5 11
4 12 9 3 19 -15 19 -20 18 -12 -3z"/>
<path d="M6033 5131 c0 -11 5 -18 9 -15 4 3 5 11 1 19 -7 21 -12 19 -10 -4z"/>
<path d="M5595 5129 c-4 -6 -5 -12 -2 -15 2 -3 7 2 10 11 7 17 1 20 -8 4z"/>
<path d="M5813 5125 c0 -8 5 -11 10 -8 6 4 8 0 5 -8 -4 -10 1 -15 12 -15 11 0
16 5 12 15 -4 10 -1 12 8 6 9 -5 11 -4 6 4 -4 6 -12 9 -17 5 -5 -3 -16 -1 -23
5 -9 8 -13 7 -13 -4z"/>
<path d="M5926 5131 c-19 -7 -19 -8 0 -13 13 -3 21 0 21 8 0 8 -1 14 -1 13 -1
0 -10 -4 -20 -8z"/>
<path d="M5973 5126 c0 -8 7 -12 15 -8 10 3 13 1 8 -6 -3 -6 -2 -13 3 -16 5
-4 8 1 7 10 -3 21 -33 39 -33 20z"/>
<path d="M5616 5114 c-3 -7 2 -10 15 -7 22 6 26 20 4 20 -8 0 -16 -6 -19 -13z"/>
<path d="M3592 5091 c7 -9 13 -17 14 -19 1 -1 7 4 14 13 11 13 10 14 -5 9 -11
-5 -16 -4 -12 3 3 5 0 10 -8 10 -12 0 -12 -3 -3 -16z"/>
<path d="M3707 5090 c3 -11 9 -22 13 -25 5 -3 6 4 3 15 -3 11 -9 22 -13 25 -5
3 -6 -4 -3 -15z"/>
<path d="M5548 5103 c7 -3 16 -2 19 1 4 3 -2 6 -13 5 -11 0 -14 -3 -6 -6z"/>
<path d="M5511 5087 c-8 -10 -7 -14 2 -14 8 0 14 6 14 14 0 7 -1 13 -2 13 -2
0 -8 -6 -14 -13z"/>
<path d="M5794 5089 c-3 -6 -2 -15 3 -20 5 -5 9 -1 9 11 0 23 -2 24 -12 9z"/>
<path d="M3636 5082 c-3 -5 1 -9 9 -9 8 0 12 4 9 9 -3 4 -7 8 -9 8 -2 0 -6 -4
-9 -8z"/>
<path d="M5701 5074 c0 -11 3 -14 6 -6 3 7 2 16 -1 19 -3 4 -6 -2 -5 -13z"/>
<path d="M5879 5073 c-12 -16 -12 -17 2 -6 9 7 19 10 22 6 4 -3 7 -1 7 5 0 17
-16 15 -31 -5z"/>
<path d="M5940 5080 c-8 -5 -10 -10 -5 -10 6 0 17 5 25 10 8 5 11 10 5 10 -5
0 -17 -5 -25 -10z"/>
<path d="M5828 5051 c4 -10 1 -12 -8 -6 -8 5 -11 4 -7 -2 7 -11 43 -10 54 2 5
4 2 4 -6 0 -10 -6 -13 -4 -9 6 4 10 -1 15 -12 15 -11 0 -16 -5 -12 -15z"/>
<path d="M5988 5063 c7 -3 16 -2 19 1 4 3 -2 6 -13 5 -11 0 -14 -3 -6 -6z"/>
<path d="M6028 5063 c6 -2 18 -2 25 0 6 3 1 5 -13 5 -14 0 -19 -2 -12 -5z"/>
<path d="M3590 5050 c-12 -8 -12 -10 -1 -10 11 0 11 -3 0 -17 -11 -15 -11 -16
1 -6 8 7 15 20 16 28 3 18 3 17 -16 5z"/>
<path d="M5493 5045 c0 -8 5 -11 10 -8 7 4 8 -1 3 -12 -5 -15 -4 -16 9 -5 9 7
14 13 13 14 -2 1 -10 7 -19 14 -13 9 -16 9 -16 -3z"/>
<path d="M5614 5039 c0 -12 4 -15 12 -9 6 6 14 7 17 3 4 -3 7 -2 7 4 0 6 -8
13 -18 15 -12 4 -18 -1 -18 -13z"/>
<path d="M3670 5041 c0 -6 4 -13 10 -16 6 -3 7 1 4 9 -7 18 -14 21 -14 7z"/>
<path d="M5734 5038 c-5 -7 -2 -8 6 -3 10 6 12 4 6 -10 -5 -15 -4 -16 9 -5 19
15 19 16 0 23 -8 4 -17 1 -21 -5z"/>
<path d="M5976 5038 c3 -5 10 -6 15 -3 13 9 11 12 -6 12 -8 0 -12 -4 -9 -9z"/>
<path d="M3631 5014 c6 -7 8 -18 5 -23 -4 -5 -2 -13 4 -16 6 -4 10 -3 9 2 -3
20 2 27 11 13 7 -12 9 -10 8 7 -2 14 -7 19 -17 15 -8 -3 -12 -1 -8 5 3 5 0 10
-8 10 -11 0 -12 -4 -4 -13z"/>
<path d="M5559 5023 c-1 -5 -1 -12 0 -17 1 -4 -3 -14 -8 -20 -8 -9 -7 -13 4
-13 8 0 11 5 8 10 -4 6 0 8 8 5 10 -4 15 1 17 15 1 17 -1 19 -8 7 -9 -14 -14
-7 -11 13 0 4 -1 7 -4 7 -3 0 -6 -3 -6 -7z"/>
<path d="M6000 5020 c-8 -5 -10 -10 -5 -10 6 0 17 5 25 10 8 5 11 10 5 10 -5
0 -17 -5 -25 -10z"/>
<path d="M5717 5013 c-10 -9 -9 -23 1 -23 5 0 9 7 9 15 0 17 -1 18 -10 8z"/>
<path d="M3721 4992 c-7 -13 -6 -19 2 -19 7 0 13 9 13 19 0 10 -1 18 -3 18 -1
0 -7 -8 -12 -18z"/>
<path d="M5444 4998 c-3 -4 5 -5 17 -3 30 6 36 14 9 12 -12 -1 -24 -5 -26 -9z"/>
<path d="M5668 4988 c-7 -17 15 -19 29 -3 4 4 3 5 -4 2 -6 -4 -13 -2 -15 5 -3
8 -6 6 -10 -4z"/>
<path d="M5479 4988 c-6 -20 -5 -38 2 -49 7 -10 8 -6 5 13 -3 15 1 29 7 32 9
3 9 5 0 5 -7 1 -13 0 -14 -1z"/>
<path d="M5956 4973 c-6 -14 -5 -15 5 -6 7 7 10 15 7 18 -3 3 -9 -2 -12 -12z"/>
<path d="M5595 4969 c-4 -6 -5 -12 -2 -15 2 -3 7 2 10 11 7 17 1 20 -8 4z"/>
<path d="M5808 4973 c-22 -5 -24 -20 -3 -20 8 0 16 6 19 14 3 7 4 12 3 12 -1
-1 -10 -3 -19 -6z"/>
<path d="M5854 4959 c0 -12 4 -15 12 -9 6 6 14 7 17 3 4 -3 7 -2 7 4 0 6 -8
13 -18 15 -12 4 -18 -1 -18 -13z"/>
<path d="M3676 4954 c-8 -20 -8 -24 2 -24 4 0 8 9 9 20 2 24 -3 26 -11 4z"/>
<path d="M5414 4958 c-5 -7 -3 -8 6 -3 10 6 12 4 7 -8 -4 -11 -2 -14 9 -10 11
4 12 9 3 19 -14 17 -16 17 -25 2z"/>
<path d="M5686 4961 c-19 -7 -19 -8 0 -13 13 -3 21 0 21 8 0 8 -1 14 -1 13 -1
0 -10 -4 -20 -8z"/>
<path d="M5733 4955 c0 -7 6 -11 14 -8 7 3 13 6 13 8 0 2 -6 5 -13 8 -8 3 -14
-1 -14 -8z"/>
<path d="M3598 4943 c7 -3 16 -2 19 1 4 3 -2 6 -13 5 -11 0 -14 -3 -6 -6z"/>
<path d="M3718 4943 c7 -3 16 -2 19 1 4 3 -2 6 -13 5 -11 0 -14 -3 -6 -6z"/>
<path d="M5395 4930 c-4 -6 -10 -8 -14 -6 -4 3 -13 0 -21 -5 -11 -7 -10 -8 8
-6 20 3 56 27 40 27 -4 0 -10 -5 -13 -10z"/>
<path d="M5446 4921 c-15 -16 -15 -19 -2 -24 11 -4 13 -1 9 10 -4 10 -2 14 4
10 5 -3 10 0 10 8 0 19 0 19 -21 -4z"/>
<path d="M5606 4923 c-6 -14 -5 -15 5 -6 7 7 10 15 7 18 -3 3 -9 -2 -12 -12z"/>
<path d="M3693 4918 c-4 -7 -1 -8 7 -3 9 6 12 4 8 -7 -4 -8 -1 -15 7 -15 8 0
11 7 7 15 -4 11 -1 13 9 7 8 -5 11 -4 6 0 -12 13 -36 15 -44 3z"/>
<path d="M5515 4920 c-3 -5 -1 -10 4 -10 6 0 11 5 11 10 0 6 -2 10 -4 10 -3 0
-8 -4 -11 -10z"/>
<path d="M5696 4922 c-3 -5 1 -9 9 -9 8 0 12 4 9 9 -3 4 -7 8 -9 8 -2 0 -6 -4
-9 -8z"/>
<path d="M5772 4921 c-11 -7 -11 -9 0 -14 9 -3 15 1 15 9 0 8 -1 14 -1 14 -1
0 -7 -4 -14 -9z"/>
<path d="M5830 4926 c0 -2 7 -7 16 -10 8 -3 12 -2 9 4 -6 10 -25 14 -25 6z"/>
<path d="M5890 4921 c0 -6 4 -13 10 -16 6 -3 7 1 4 9 -7 18 -14 21 -14 7z"/>
<path d="M5866 4903 c-6 -14 -5 -15 5 -6 7 7 10 15 7 18 -3 3 -9 -2 -12 -12z"/>
<path d="M5399 4908 c-6 -20 -5 -38 2 -49 7 -10 8 -6 5 13 -3 15 1 29 7 32 9
3 9 5 0 5 -7 1 -13 0 -14 -1z"/>
<path d="M5534 4879 c0 -12 4 -15 12 -9 6 6 14 7 17 3 4 -3 7 -2 7 4 0 6 -8
13 -18 15 -12 4 -18 -1 -18 -13z"/>
<path d="M3636 4878 c3 -4 11 -5 19 -1 21 7 19 12 -4 10 -11 0 -18 -5 -15 -9z"/>
<path d="M5310 4880 c0 -5 5 -10 11 -10 5 0 7 5 4 10 -3 6 -8 10 -11 10 -2 0
-4 -4 -4 -10z"/>
<path d="M5459 4879 c-10 -7 -6 -8 13 -5 15 2 29 0 32 -5 2 -5 3 -4 2 2 -3 15
-29 20 -47 8z"/>
<path d="M5834 4872 c3 -5 0 -13 -6 -15 -9 -4 -10 -6 -1 -6 17 -1 25 16 12 25
-7 4 -9 3 -5 -4z"/>
<path d="M3666 4856 c5 -12 4 -17 -3 -13 -5 3 -10 -1 -10 -9 0 -13 2 -13 16 0
12 13 13 18 2 28 -10 11 -11 9 -5 -6z"/>
<path d="M5639 4868 c-8 -27 -4 -35 17 -34 13 1 27 6 31 10 4 5 2 6 -4 2 -8
-4 -13 -2 -13 6 0 9 -3 9 -10 -2 -9 -13 -14 -7 -11 13 1 6 -8 11 -10 5z"/>
<path d="M5746 4855 c5 -11 4 -16 -3 -12 -5 3 -10 0 -10 -8 0 -12 3 -12 16 -3
9 7 17 13 19 14 1 1 -4 7 -13 14 -13 11 -14 10 -9 -5z"/>
<path d="M3713 4845 c0 -8 4 -12 8 -9 4 2 9 -1 11 -8 3 -7 7 -4 12 7 4 11 4
16 0 12 -4 -4 -12 -2 -19 3 -8 7 -12 5 -12 -5z"/>
<path d="M5283 4850 c-29 -12 -29 -15 0 -15 13 0 24 6 24 13 0 6 -1 12 -1 11
-1 0 -11 -4 -23 -9z"/>
<path d="M5341 4844 c7 -9 14 -23 15 -31 2 -8 5 -18 8 -21 4 -3 4 5 2 19 -2
13 -5 27 -5 30 -1 4 -8 10 -17 13 -15 6 -15 4 -3 -10z"/>
<path d="M5571 4834 c0 -11 3 -14 6 -6 3 7 2 16 -1 19 -3 4 -6 -2 -5 -13z"/>
<path d="M5434 4816 c1 -14 4 -28 7 -31 3 -3 5 6 5 19 -1 14 -4 28 -7 31 -3 3
-5 -6 -5 -19z"/>
<path d="M5593 4825 c0 -8 4 -12 9 -9 5 3 6 10 3 15 -9 13 -12 11 -12 -6z"/>
<path d="M3634 4808 c2 -15 0 -29 -5 -32 -5 -2 -4 -3 2 -2 15 3 20 29 8 47 -7
10 -8 6 -5 -13z"/>
<path d="M5712 4820 c3 -8 1 -23 -4 -32 -6 -13 -5 -16 6 -12 14 5 14 40 0 53
-4 3 -4 -1 -2 -9z"/>
<path d="M5756 4821 c-3 -5 1 -14 8 -20 10 -9 16 -9 21 -1 4 6 3 10 -2 9 -20
-3 -27 2 -13 11 9 6 10 10 3 10 -6 0 -14 -4 -17 -9z"/>
<path d="M5798 4823 c7 -3 16 -2 19 1 4 3 -2 6 -13 5 -11 0 -14 -3 -6 -6z"/>
<path d="M3690 4805 c-10 -13 -11 -18 -1 -28 10 -9 11 -8 5 7 -5 12 -4 17 3
13 5 -3 10 0 10 8 0 19 -2 19 -17 0z"/>
<path d="M5461 4804 c0 -11 3 -14 6 -6 3 7 2 16 -1 19 -3 4 -6 -2 -5 -13z"/>
<path d="M5493 4805 c0 -8 7 -11 16 -7 13 5 14 3 4 -9 -10 -12 -8 -15 10 -16
12 0 16 1 9 4 -10 4 -10 8 0 21 7 10 9 14 4 10 -5 -4 -16 -3 -26 2 -12 6 -17
5 -17 -5z"/>
<path d="M5610 4805 c-10 -13 -11 -18 -1 -28 10 -9 11 -8 5 7 -5 12 -4 17 3
13 5 -3 10 0 10 8 0 19 -2 19 -17 0z"/>
<path d="M5298 4798 c-10 -7 -9 -8 2 -5 8 2 23 0 32 -5 13 -6 16 -5 12 5 -6
16 -27 18 -46 5z"/>
<path d="M5397 4777 c4 -6 0 -8 -8 -5 -10 4 -15 -1 -17 -15 -1 -17 1 -19 8 -7
9 14 14 7 11 -13 -1 -5 3 -6 9 -2 6 3 8 11 4 16 -3 5 -1 16 5 23 8 9 7 13 -4
13 -8 0 -11 -5 -8 -10z"/>
<path d="M3670 4761 c0 -10 19 -25 25 -20 1 2 -3 10 -11 17 -8 7 -14 8 -14 3z"/>
<path d="M3720 4760 c18 -12 30 -13 30 -2 0 4 -10 9 -22 9 -18 2 -20 0 -8 -7z"/>
<path d="M5195 4762 c3 -3 0 -10 -5 -17 -7 -8 -5 -12 5 -12 8 0 11 5 8 10 -4
6 0 8 10 4 10 -4 14 -2 11 7 -3 7 -11 13 -19 13 -8 0 -13 -3 -10 -5z"/>
<path d="M5450 4758 c0 -11 12 -10 30 2 12 7 10 9 -8 7 -12 0 -22 -5 -22 -9z"/>
<path d="M5560 4760 c-12 -7 -10 -9 8 -7 12 0 22 5 22 9 0 11 -12 10 -30 -2z"/>
<path d="M5630 4760 c0 -5 5 -10 10 -10 6 0 10 5 10 10 0 6 -4 10 -10 10 -5 0
-10 -4 -10 -10z"/>
<path d="M5239 4740 c-4 -34 -3 -44 9 -46 7 -1 8 0 3 2 -5 3 -7 16 -5 30 2 13
2 24 -1 24 -3 0 -6 -4 -6 -10z"/>
<path d="M5510 4740 c14 -9 7 -14 -13 -11 -5 1 -6 -3 -2 -9 3 -6 11 -8 16 -4
5 3 16 1 23 -5 9 -8 13 -7 13 4 0 8 -5 11 -10 8 -6 -4 -8 0 -5 8 4 10 -1 15
-15 17 -17 1 -19 -1 -7 -8z"/>
<path d="M5605 4742 c-5 -4 -11 -14 -13 -22 -2 -8 0 -12 4 -8 4 4 12 3 19 -2
8 -7 12 -5 12 5 0 8 -5 11 -10 8 -6 -4 -8 0 -4 10 7 19 6 20 -8 9z"/>
<path d="M5706 4737 c3 -10 9 -15 12 -12 3 3 0 11 -7 18 -10 9 -11 8 -5 -6z"/>
<path d="M3633 4709 c-2 -23 3 -25 10 -4 4 8 3 16 -1 19 -4 3 -9 -4 -9 -15z"/>
<path d="M3686 4718 c3 -5 10 -6 15 -3 13 9 11 12 -6 12 -8 0 -12 -4 -9 -9z"/>
<path d="M5350 4725 c0 -5 5 -17 10 -25 5 -8 10 -10 10 -5 0 6 -5 17 -10 25
-5 8 -10 11 -10 5z"/>
<path d="M5434 4722 c3 -5 0 -13 -6 -15 -9 -4 -10 -6 -1 -6 17 -1 25 16 12 25
-7 4 -9 3 -5 -4z"/>
<path d="M3676 4698 c5 -7 2 -9 -8 -6 -8 4 -15 0 -15 -7 0 -10 5 -11 19 -4 16
9 17 29 2 29 -3 0 -2 -5 2 -12z"/>
<path d="M5155 4700 c6 -9 4 -12 -6 -8 -10 4 -15 -1 -15 -12 0 -11 5 -16 15
-12 8 3 12 1 8 -5 -3 -5 0 -10 8 -10 11 0 12 4 4 13 -6 7 -8 18 -5 23 4 5 1
13 -5 17 -8 5 -9 3 -4 -6z"/>
<path d="M5308 4688 c2 -10 6 -18 7 -18 1 0 5 8 7 18 3 11 0 19 -7 19 -7 0
-10 -8 -7 -19z"/>
<path d="M3730 4689 c0 -5 -6 -7 -12 -3 -7 4 -10 4 -6 -1 4 -4 3 -13 -2 -20
-7 -8 -5 -12 5 -12 8 0 11 5 8 10 -4 6 0 8 9 4 12 -4 14 -1 11 14 -6 21 -13
26 -13 8z"/>
<path d="M5333 4685 c-3 -9 -3 -18 -1 -21 3 -3 8 4 11 16 6 23 -1 27 -10 5z"/>
<path d="M5425 4680 c-3 -6 1 -7 9 -4 18 7 21 14 7 14 -6 0 -13 -4 -16 -10z"/>
<path d="M5636 4678 c3 -5 10 -6 15 -3 13 9 11 12 -6 12 -8 0 -12 -4 -9 -9z"/>
<path d="M5227 4649 c6 -22 20 -26 20 -4 0 8 -6 16 -13 19 -7 3 -10 -2 -7 -15z"/>
<path d="M5488 4653 c-10 -2 -18 -9 -18 -15 0 -6 3 -8 7 -5 3 4 11 3 17 -3 8
-6 12 -3 12 11 0 10 0 18 -1 18 0 -1 -8 -3 -17 -6z"/>
<path d="M5534 4649 c3 -15 29 -20 47 -8 10 7 6 8 -13 5 -15 -2 -29 0 -32 5
-2 5 -3 4 -2 -2z"/>
<path d="M3614 4639 c-3 -6 -3 -13 0 -16 3 -4 6 -1 6 5 0 6 11 9 27 6 15 -3
25 -3 22 1 -12 11 -49 14 -55 4z"/>
<path d="M3753 4631 c0 -11 5 -18 9 -15 4 3 5 11 1 19 -7 21 -12 19 -10 -4z"/>
<path d="M5281 4636 c-9 -10 -9 -16 -1 -21 6 -4 14 -4 17 -1 4 3 1 6 -7 6 -10
0 -10 3 0 15 7 8 10 15 7 15 -2 0 -10 -6 -16 -14z"/>
<path d="M5393 4643 c4 -3 3 -11 -3 -17 -6 -8 -3 -12 9 -12 12 0 17 6 13 18
-2 10 -9 18 -15 18 -6 0 -7 -3 -4 -7z"/>
<path d="M5075 4621 c-3 -6 3 -14 13 -20 14 -7 19 -6 19 4 0 7 -7 11 -15 7
-10 -3 -13 -1 -8 6 4 7 5 12 2 12 -3 0 -7 -4 -11 -9z"/>
<path d="M5586 4618 c3 -5 10 -6 15 -3 13 9 11 12 -6 12 -8 0 -12 -4 -9 -9z"/>
<path d="M5437 4613 c-10 -9 -9 -23 1 -23 5 0 9 7 9 15 0 17 -1 18 -10 8z"/>
<path d="M3700 4595 c-11 -13 -10 -14 5 -9 11 5 16 4 12 -3 -3 -5 0 -10 8 -10
12 0 12 3 3 16 -7 9 -13 17 -14 19 -1 1 -7 -4 -14 -13z"/>
<path d="M5158 4592 c-3 -11 0 -19 7 -19 7 0 10 8 7 19 -2 10 -6 18 -7 18 -1
0 -5 -8 -7 -18z"/>
<path d="M5257 4596 c-4 -10 -1 -13 8 -9 8 3 12 9 9 14 -7 12 -11 11 -17 -5z"/>
<path d="M5330 4600 c0 -5 5 -10 10 -10 6 0 10 5 10 10 0 6 -4 10 -10 10 -5 0
-10 -4 -10 -10z"/>
<path d="M5510 4599 c0 -5 5 -7 10 -4 6 3 10 8 10 11 0 2 -4 4 -10 4 -5 0 -10
-5 -10 -11z"/>
<path d="M4155 4591 c-3 -5 -2 -12 3 -15 5 -3 9 1 9 9 0 17 -3 19 -12 6z"/>
<path d="M5282 4581 c-10 -6 -10 -10 2 -20 11 -9 16 -9 22 0 5 8 3 9 -6 4 -10
-6 -12 -4 -7 8 7 19 7 20 -11 8z"/>
<path d="M5388 4568 c2 -10 9 -18 15 -18 6 0 7 3 4 7 -4 3 -3 11 3 17 6 8 3
12 -9 12 -12 0 -17 -6 -13 -18z"/>
<path d="M3676 4567 c3 -10 9 -15 12 -12 3 3 0 11 -7 18 -10 9 -11 8 -5 -6z"/>
<path d="M5100 4572 c0 -6 -11 -9 -27 -6 -15 3 -25 3 -22 -1 12 -11 49 -14 55
-4 3 6 3 13 0 16 -3 4 -6 1 -6 -5z"/>
<path d="M5486 4563 c-6 -14 -5 -15 5 -6 7 7 10 15 7 18 -3 3 -9 -2 -12 -12z"/>
<path d="M3619 4559 c-10 -7 -6 -8 13 -5 15 2 29 0 32 -5 2 -5 3 -4 2 2 -3 15
-29 20 -47 8z"/>
<path d="M5016 4562 c-3 -5 1 -9 9 -9 8 0 12 4 9 9 -3 4 -7 8 -9 8 -2 0 -6 -4
-9 -8z"/>
<path d="M5119 4563 c0 -5 -3 -19 -5 -32 -2 -14 -2 -22 1 -19 8 8 17 58 10 58
-3 0 -5 -3 -6 -7z"/>
<path d="M5195 4551 c-3 -5 -2 -12 3 -15 5 -3 9 1 9 9 0 17 -3 19 -12 6z"/>
<path d="M3750 4546 c0 -2 7 -7 16 -10 8 -3 12 -2 9 4 -6 10 -25 14 -25 6z"/>
<path d="M5035 4540 c-16 -7 -17 -9 -3 -9 9 -1 20 4 23 9 7 11 7 11 -20 0z"/>
<path d="M5158 4532 c3 -10 1 -13 -6 -8 -6 3 -13 2 -16 -3 -4 -5 1 -8 10 -7
21 3 39 33 20 33 -8 0 -12 -7 -8 -15z"/>
<path d="M5330 4529 c0 -5 -6 -7 -12 -3 -7 4 -10 4 -6 -1 4 -4 3 -13 -2 -20
-7 -8 -5 -12 5 -12 8 0 11 5 8 10 -4 6 0 8 9 4 12 -4 14 -1 11 14 -6 21 -13
26 -13 8z"/>
<path d="M4980 4520 c8 -5 20 -10 25 -10 6 0 3 5 -5 10 -8 5 -19 10 -25 10 -5
0 -3 -5 5 -10z"/>
<path d="M5415 4520 c-6 -9 -4 -11 5 -5 10 6 12 4 7 -9 -5 -11 -3 -15 5 -10 8
5 9 2 5 -9 -9 -25 0 -21 14 6 6 12 8 19 4 15 -4 -4 -13 0 -20 9 -9 13 -14 13
-20 3z"/>
<path d="M5037 4507 c-3 -8 1 -14 8 -14 7 0 11 6 8 14 -3 7 -6 13 -8 13 -2 0
-5 -6 -8 -13z"/>
<path d="M4959 4488 c-6 -13 -8 -20 -4 -16 5 4 13 3 20 -2 8 -7 12 -5 12 5 0
8 -5 11 -10 8 -6 -4 -8 0 -4 10 9 25 0 21 -14 -5z"/>
<path d="M5245 4502 c-13 -9 -17 -32 -6 -32 5 0 11 9 14 20 6 22 6 22 -8 12z"/>
<path d="M3648 4493 c-10 -2 -18 -9 -18 -15 0 -6 3 -8 7 -5 3 4 11 3 17 -3 8
-6 12 -3 12 11 0 10 0 18 -1 18 0 -1 -8 -3 -17 -6z"/>
<path d="M3694 4489 c3 -15 29 -20 47 -8 10 7 6 8 -13 5 -15 -2 -29 0 -32 5
-2 5 -3 4 -2 -2z"/>
<path d="M5059 4479 c-10 -7 -6 -8 13 -5 15 2 29 0 32 -5 2 -5 3 -4 2 2 -3 15
-29 20 -47 8z"/>
<path d="M3752 4454 c10 -10 20 -16 22 -13 3 3 -5 11 -17 18 -21 13 -21 12 -5
-5z"/>
<path d="M5188 4452 c3 -10 1 -13 -6 -8 -6 3 -13 2 -16 -3 -4 -5 1 -8 10 -7
21 3 39 33 20 33 -8 0 -12 -7 -8 -15z"/>
<path d="M3665 4440 c-3 -6 1 -7 9 -4 18 7 21 14 7 14 -6 0 -13 -4 -16 -10z"/>
<path d="M4985 4439 c-3 -4 2 -6 10 -5 21 3 28 13 10 13 -9 0 -18 -4 -20 -8z"/>
<path d="M5101 4434 c0 -11 3 -14 6 -6 3 7 2 16 -1 19 -3 4 -6 -2 -5 -13z"/>
<path d="M5278 4432 c-3 -11 0 -19 7 -19 7 0 10 8 7 19 -2 10 -6 18 -7 18 -1
0 -5 -8 -7 -18z"/>
<path d="M3695 4430 c-4 -6 1 -7 11 -3 10 4 15 2 11 -4 -3 -5 0 -10 8 -10 11
0 12 4 4 14 -14 15 -26 17 -34 3z"/>
<path d="M5355 4420 c6 -30 16 -40 12 -12 -2 12 -6 24 -10 28 -3 4 -4 -4 -2
-16z"/>
<path d="M5234 4408 c2 -15 0 -29 -5 -32 -5 -2 -4 -3 2 -2 15 3 20 29 8 47 -7
10 -8 6 -5 -13z"/>
<path d="M4981 4404 c0 -11 3 -14 6 -6 3 7 2 16 -1 19 -3 4 -6 -2 -5 -13z"/>
<path d="M5013 4405 c0 -7 8 -10 19 -7 10 2 18 6 18 7 0 1 -8 5 -18 7 -11 3
-19 0 -19 -7z"/>
<path d="M3683 4398 c-9 -16 -16 -54 -7 -46 3 3 6 12 8 20 1 7 5 19 9 26 5 6
6 12 3 12 -3 0 -8 -6 -13 -12z"/>
<path d="M3753 4395 c0 -8 4 -15 9 -15 4 0 8 4 8 9 0 6 -4 12 -8 15 -5 3 -9
-1 -9 -9z"/>
<path d="M4895 4399 c-4 -6 -4 -13 -1 -16 3 -4 6 -1 6 6 0 7 5 9 12 5 7 -4 8
-3 4 4 -9 15 -13 15 -21 1z"/>
<path d="M4930 4400 c0 -5 5 -10 10 -10 6 0 10 5 10 10 0 6 -4 10 -10 10 -5 0
-10 -4 -10 -10z"/>
<path d="M5116 4395 c-9 -26 -7 -32 5 -12 6 10 9 21 6 23 -2 3 -7 -2 -11 -11z"/>
<path d="M5305 4400 c-3 -5 3 -7 12 -6 10 2 22 -2 26 -8 6 -7 7 -6 5 3 -5 16
-35 24 -43 11z"/>
<path d="M5026 4381 c-4 -5 3 -7 14 -4 23 6 26 13 6 13 -8 0 -17 -4 -20 -9z"/>
<path d="M5157 4377 c4 -6 0 -8 -8 -5 -10 4 -15 -1 -17 -15 -1 -17 1 -19 8 -7
9 14 14 7 11 -13 -1 -5 3 -6 9 -2 6 3 8 11 4 16 -3 5 -1 16 5 23 8 9 7 13 -4
13 -8 0 -11 -5 -8 -10z"/>
<path d="M5000 4360 c8 -5 20 -10 25 -10 6 0 3 5 -5 10 -8 5 -19 10 -25 10 -5
0 -3 -5 5 -10z"/>
<path d="M5270 4361 c0 -6 4 -13 10 -16 6 -3 7 1 4 9 -7 18 -14 21 -14 7z"/>
<path d="M4839 4358 c-5 -18 -6 -38 -1 -34 7 8 12 36 6 36 -2 0 -4 -1 -5 -2z"/>
<path d="M4957 4349 c7 -7 15 -10 18 -7 3 3 -2 9 -12 12 -14 6 -15 5 -6 -5z"/>
<path d="M5230 4334 c6 -6 7 -14 3 -17 -3 -4 -2 -7 4 -7 6 0 13 8 15 18 4 12
-1 18 -13 18 -12 0 -15 -4 -9 -12z"/>
<path d="M4895 4329 c-4 -6 -13 -8 -21 -5 -7 3 -16 1 -19 -5 -4 -5 -3 -9 2 -8
20 3 27 -2 13 -11 -12 -7 -10 -9 7 -8 14 2 19 7 15 17 -3 8 -1 12 5 8 5 -3 10
0 10 8 0 18 -3 19 -12 4z"/>
<path d="M5095 4330 c-4 -6 -11 -8 -16 -5 -5 4 -9 2 -9 -3 0 -5 8 -12 18 -14
12 -4 18 1 18 13 0 22 -2 23 -11 9z"/>
<path d="M5290 4330 c-9 -6 -10 -10 -3 -10 6 0 15 5 18 10 8 12 4 12 -15 0z"/>
<path d="M4950 4325 c0 -7 30 -13 34 -7 3 4 -4 9 -15 9 -10 1 -19 0 -19 -2z"/>
<path d="M5111 4287 c-13 -21 -12 -21 5 -5 10 10 16 20 13 22 -3 3 -11 -5 -18
-17z"/>
<path d="M5011 4284 c0 -11 3 -14 6 -6 3 7 2 16 -1 19 -3 4 -6 -2 -5 -13z"/>
<path d="M4940 4286 c0 -2 8 -10 18 -17 15 -13 16 -12 3 4 -13 16 -21 21 -21
13z"/>
<path d="M5194 4282 c4 -3 14 -7 22 -8 9 -1 13 0 10 4 -4 3 -14 7 -22 8 -9 1
-13 0 -10 -4z"/>
<path d="M5255 4279 c-4 -6 -4 -13 -1 -16 3 -4 6 -1 6 6 0 7 5 9 12 5 7 -4 8
-3 4 4 -9 15 -13 15 -21 1z"/>
<path d="M3640 4271 c0 -6 4 -13 10 -16 6 -3 7 1 4 9 -7 18 -14 21 -14 7z"/>
<path d="M4783 4256 c-3 -6 -3 -8 2 -4 4 4 13 0 20 -9 9 -13 14 -13 20 -3 6 9
4 11 -5 5 -9 -6 -12 -4 -8 7 7 17 -19 21 -29 4z"/>
<path d="M4908 4248 c2 -10 9 -18 15 -18 6 0 7 3 4 7 -4 3 -3 11 3 17 6 8 3
12 -9 12 -12 0 -17 -6 -13 -18z"/>
<path d="M4966 4241 c-15 -16 -15 -19 -2 -24 11 -4 13 -1 9 10 -4 10 -2 14 4
10 5 -3 10 0 10 8 0 19 0 19 -21 -4z"/>
<path d="M5091 4251 c-8 -5 -21 -7 -30 -3 -9 3 -13 2 -10 -2 13 -14 48 -14 53
0 6 16 6 17 -13 5z"/>
<path d="M5136 4246 c3 -7 11 -13 19 -13 22 0 18 14 -4 20 -13 3 -18 0 -15 -7z"/>
<path d="M4790 4220 c14 -9 7 -14 -13 -11 -5 1 -6 -3 -2 -9 5 -8 11 -8 21 1
15 12 10 29 -9 29 -7 0 -6 -4 3 -10z"/>
<path d="M4850 4209 c0 -5 -4 -8 -9 -5 -11 7 -8 -21 4 -31 4 -5 5 -2 0 6 -6
11 -4 13 7 8 12 -4 14 -1 11 14 -6 21 -13 26 -13 8z"/>
<path d="M4935 4200 c-6 -9 -4 -11 5 -5 10 6 12 4 7 -7 -6 -16 17 -20 28 -5 3
4 2 5 -2 2 -3 -3 -11 3 -18 12 -9 13 -14 13 -20 3z"/>
<path d="M4990 4200 c0 -5 5 -10 10 -10 6 0 10 5 10 10 0 6 -4 10 -10 10 -5 0
-10 -4 -10 -10z"/>
<path d="M5110 4200 c0 -5 5 -10 10 -10 6 0 10 5 10 10 0 6 -4 10 -10 10 -5 0
-10 -4 -10 -10z"/>
<path d="M5037 4187 c-3 -8 1 -14 8 -14 7 0 11 6 8 14 -3 7 -6 13 -8 13 -2 0
-5 -6 -8 -13z"/>
<path d="M5188 4188 c-7 -17 15 -19 29 -3 4 4 3 5 -4 2 -6 -4 -13 -2 -15 5 -3
8 -6 6 -10 -4z"/>
<path d="M4748 4152 c-4 -12 1 -18 13 -18 12 0 15 4 9 12 -6 6 -7 14 -3 17 3
4 2 7 -4 7 -6 0 -13 -8 -15 -18z"/>
<path d="M4966 4161 c-19 -7 -19 -8 0 -13 13 -3 21 0 21 8 0 8 -1 14 -1 13 -1
0 -10 -4 -20 -8z"/>
<path d="M5013 4155 c0 -7 6 -11 14 -8 7 3 13 6 13 8 0 2 -6 5 -13 8 -8 3 -14
-1 -14 -8z"/>
<path d="M5060 4160 c-12 -7 -10 -9 7 -7 12 0 19 5 17 9 -6 10 -6 10 -24 -2z"/>
<path d="M5157 4149 c7 -7 15 -10 18 -7 3 3 -2 9 -12 12 -14 6 -15 5 -6 -5z"/>
<path d="M4886 4123 c-6 -14 -5 -15 5 -6 7 7 10 15 7 18 -3 3 -9 -2 -12 -12z"/>
<path d="M4790 4119 c0 -5 5 -7 10 -4 6 3 10 8 10 11 0 2 -4 4 -10 4 -5 0 -10
-5 -10 -11z"/>
<path d="M4975 4121 c-3 -5 -2 -12 3 -15 5 -3 9 1 9 9 0 17 -3 19 -12 6z"/>
<path d="M4947 4107 c-3 -8 1 -14 8 -14 7 0 11 6 8 14 -3 7 -6 13 -8 13 -2 0
-5 -6 -8 -13z"/>
<path d="M4748 4092 c5 -9 7 -24 4 -32 -2 -8 -2 -12 2 -9 14 13 14 48 0 53
-11 4 -12 1 -6 -12z"/>
<path d="M4848 4093 c-22 -5 -24 -20 -3 -20 8 0 16 6 19 14 3 7 4 12 3 12 -1
-1 -10 -3 -19 -6z"/>
<path d="M4650 4086 c0 -2 7 -7 16 -10 8 -3 12 -2 9 4 -6 10 -25 14 -25 6z"/>
<path d="M4993 4075 c0 -8 6 -16 13 -19 7 -3 10 2 7 15 -6 22 -20 26 -20 4z"/>
<path d="M5105 4080 c-3 -6 1 -7 9 -4 18 7 21 14 7 14 -6 0 -13 -4 -16 -10z"/>
<path d="M5082 4064 c10 -10 20 -16 22 -13 3 3 -5 11 -17 18 -21 13 -21 12 -5
-5z"/>
<path d="M5045 4062 c-14 -9 -13 -29 3 -41 9 -8 9 -8 2 1 -6 7 -5 18 1 30 11
20 9 22 -6 10z"/>
<path d="M4773 4045 c0 -8 5 -11 10 -8 6 4 8 0 5 -9 -4 -8 0 -15 8 -15 7 0 10
5 7 10 -4 6 0 8 9 5 8 -4 15 -1 15 7 0 7 -6 11 -14 8 -7 -3 -19 0 -26 6 -10 8
-14 7 -14 -4z"/>
<path d="M4713 4030 c-1 -11 2 -20 7 -20 4 0 7 7 6 15 -3 23 -12 26 -13 5z"/>
<path d="M4896 4038 c3 -5 10 -6 15 -3 13 9 11 12 -6 12 -8 0 -12 -4 -9 -9z"/>
<path d="M4958 4023 c7 -3 16 -2 19 1 4 3 -2 6 -13 5 -11 0 -14 -3 -6 -6z"/>
<path d="M4884 4005 c-10 -8 -14 -15 -9 -15 6 0 3 -5 -5 -11 -13 -9 -13 -10 0
-6 8 2 14 10 12 17 -2 7 3 10 11 7 8 -3 14 1 14 9 0 17 1 17 -23 -1z"/>
<path d="M4933 4005 c0 -7 8 -10 19 -7 10 2 18 6 18 7 0 1 -8 5 -18 7 -11 3
-19 0 -19 -7z"/>
<path d="M4627 3999 c7 -7 15 -10 18 -7 3 3 -2 9 -12 12 -14 6 -15 5 -6 -5z"/>
<path d="M4597 3977 c4 -7 -1 -8 -13 -3 -15 6 -17 5 -6 -5 10 -11 15 -10 28 2
13 14 13 16 0 16 -8 0 -12 -5 -9 -10z"/>
<path d="M4679 3988 c-5 -18 -6 -38 -1 -34 7 8 12 36 6 36 -2 0 -4 -1 -5 -2z"/>
<path d="M5037 3977 c4 -6 0 -8 -10 -4 -10 4 -14 2 -11 -7 3 -7 11 -13 19 -13
8 0 13 3 10 5 -3 3 0 10 5 17 7 8 5 12 -5 12 -8 0 -11 -5 -8 -10z"/>
<path d="M4524 3964 c-10 -8 -14 -13 -7 -10 6 4 13 1 15 -6 3 -7 7 -2 10 10 7
26 7 26 -18 6z"/>
<path d="M4651 3954 c0 -11 3 -14 6 -6 3 7 2 16 -1 19 -3 4 -6 -2 -5 -13z"/>
<path d="M4736 3958 c3 -5 10 -6 15 -3 13 9 11 12 -6 12 -8 0 -12 -4 -9 -9z"/>
<path d="M4877 3958 c-7 -5 0 -6 17 -4 16 3 31 7 33 10 8 8 -37 2 -50 -6z"/>
<path d="M4465 3940 c-3 -6 1 -7 9 -4 18 7 21 14 7 14 -6 0 -13 -4 -16 -10z"/>
<path d="M4827 3929 c6 -22 20 -26 20 -4 0 8 -6 16 -13 19 -7 3 -10 -2 -7 -15z"/>
<path d="M4948 3943 c7 -3 16 -2 19 1 4 3 -2 6 -13 5 -11 0 -14 -3 -6 -6z"/>
<path d="M4608 3933 c-10 -2 -18 -9 -18 -15 0 -6 3 -8 7 -5 3 4 11 3 17 -3 8
-6 12 -3 12 11 0 10 0 18 -1 18 0 -1 -8 -3 -17 -6z"/>
<path d="M4726 3931 c-19 -7 -19 -8 0 -13 13 -3 21 0 21 8 0 8 -1 14 -1 13 -1
0 -10 -4 -20 -8z"/>
<path d="M4773 3925 c0 -7 6 -11 14 -8 7 3 13 6 13 8 0 2 -6 5 -13 8 -8 3 -14
-1 -14 -8z"/>
<path d="M4966 3931 c-19 -7 -19 -8 0 -13 13 -3 21 0 21 8 0 8 -1 14 -1 13 -1
0 -10 -4 -20 -8z"/>
<path d="M4480 3920 c-12 -7 -10 -9 7 -7 12 0 19 5 17 9 -6 10 -6 10 -24 -2z"/>
<path d="M4320 3900 c-9 -6 -10 -10 -3 -10 6 0 15 5 18 10 8 12 4 12 -15 0z"/>
<path d="M4708 3892 c4 -10 7 -12 10 -4 2 7 9 9 15 5 7 -3 8 -2 4 2 -14 16
-36 14 -29 -3z"/>
<path d="M4414 3889 c3 -17 33 -20 33 -3 0 10 -4 11 -13 3 -8 -7 -14 -6 -17 1
-3 6 -5 6 -3 -1z"/>
<path d="M4890 3890 c-11 -7 -11 -10 -2 -10 8 0 10 -5 6 -12 -4 -7 -3 -9 1 -5
7 6 17 37 12 37 -1 0 -9 -5 -17 -10z"/>
<path d="M4325 3883 c-33 -8 -36 -18 -6 -18 15 0 28 5 28 13 0 6 -1 11 -1 11
-1 -1 -10 -3 -21 -6z"/>
<path d="M4520 3880 c-8 -5 -10 -10 -5 -10 6 0 17 5 25 10 8 5 11 10 5 10 -5
0 -17 -5 -25 -10z"/>
<path d="M4633 3870 c-1 -11 2 -20 5 -20 4 0 8 9 9 20 1 11 -2 20 -5 20 -4 0
-8 -9 -9 -20z"/>
<path d="M4750 3881 c0 -6 4 -12 8 -15 5 -3 9 1 9 9 0 8 -4 15 -9 15 -4 0 -8
-4 -8 -9z"/>
<path d="M4918 3872 c-3 -11 0 -19 7 -19 7 0 10 8 7 19 -2 10 -6 18 -7 18 -1
0 -5 -8 -7 -18z"/>
<path d="M4359 3860 c-4 -34 -3 -44 9 -46 7 -1 8 0 3 2 -5 3 -7 16 -5 30 2 13
2 24 -1 24 -3 0 -6 -4 -6 -10z"/>
<path d="M4475 3861 c6 -10 4 -13 -7 -9 -8 4 -15 1 -15 -7 0 -8 7 -11 16 -7
13 5 14 3 4 -9 -10 -13 -10 -16 1 -16 14 0 16 41 2 54 -5 5 -6 2 -1 -6z"/>
<path d="M4548 3858 c5 -5 16 -8 23 -6 8 3 3 7 -10 11 -17 4 -21 3 -13 -5z"/>
<path d="M4787 3852 c5 -11 3 -13 -8 -7 -8 5 -11 4 -6 0 10 -12 39 -16 32 -5
-3 5 0 10 7 12 7 3 3 7 -9 10 -17 4 -20 2 -16 -10z"/>
<path d="M4955 3861 c-3 -5 -2 -12 3 -15 5 -3 9 1 9 9 0 17 -3 19 -12 6z"/>
<path d="M4249 3843 c-13 -16 -12 -17 4 -4 9 7 17 15 17 17 0 8 -8 3 -21 -13z"/>
<path d="M4501 3834 c0 -11 3 -14 6 -6 3 7 2 16 -1 19 -3 4 -6 -2 -5 -13z"/>
<path d="M4533 3835 c0 -7 8 -10 19 -7 10 2 18 6 18 7 0 1 -8 5 -18 7 -11 3
-19 0 -19 -7z"/>
<path d="M4656 3834 c-3 -7 2 -10 15 -7 22 6 26 20 4 20 -8 0 -16 -6 -19 -13z"/>
<path d="M4866 3842 c-3 -5 1 -9 9 -9 8 0 15 4 15 9 0 4 -4 8 -9 8 -6 0 -12
-4 -15 -8z"/>
<path d="M4839 3828 c0 -2 -2 -10 -4 -19 -3 -19 22 -21 29 -3 3 9 -1 11 -11 7
-11 -4 -14 -2 -9 5 4 7 5 12 2 12 -3 0 -6 -1 -7 -2z"/>
<path d="M4917 3813 c3 -7 6 -13 8 -13 2 0 5 6 8 13 3 8 -1 14 -8 14 -7 0 -11
-6 -8 -14z"/>
<path d="M4235 3810 c-3 -6 1 -7 9 -4 18 7 21 14 7 14 -6 0 -13 -4 -16 -10z"/>
<path d="M4620 3813 c0 -19 21 -27 33 -13 9 10 9 11 -2 5 -8 -4 -17 -2 -22 6
-6 9 -9 10 -9 2z"/>
<path d="M4740 3809 c0 -5 -4 -8 -8 -5 -4 2 -13 -3 -19 -13 -9 -14 -8 -18 3
-18 7 0 10 5 7 10 -4 6 0 8 8 5 10 -4 15 1 16 13 1 10 0 19 -3 19 -2 0 -4 -5
-4 -11z"/>
<path d="M4279 3799 c-7 -4 5 -6 27 -4 21 1 46 -2 54 -8 13 -9 13 -9 2 3 -14
16 -63 22 -83 9z"/>
<path d="M4440 3800 c8 -5 20 -10 25 -10 6 0 3 5 -5 10 -8 5 -19 10 -25 10 -5
0 -3 -5 5 -10z"/>
<path d="M4535 3790 c-4 -6 1 -7 11 -3 10 4 15 2 11 -4 -3 -5 0 -10 8 -10 11
0 12 4 4 14 -14 15 -26 17 -34 3z"/>
<path d="M4230 3783 c5 -2 8 -9 5 -13 -3 -5 3 -13 13 -19 14 -7 19 -6 19 4 0
7 -7 11 -14 8 -8 -3 -13 0 -11 7 2 7 -3 14 -10 16 -7 1 -8 0 -2 -3z"/>
<path d="M4388 3771 c3 -8 1 -12 -5 -8 -5 3 -10 0 -10 -8 0 -11 4 -12 13 -4 7
6 18 8 23 5 5 -4 13 -1 17 5 5 8 3 9 -6 4 -9 -6 -12 -4 -8 6 4 10 -1 15 -12
15 -11 0 -16 -5 -12 -15z"/>
<path d="M4514 3768 c2 -15 0 -29 -5 -32 -5 -2 -4 -3 2 -2 15 3 20 29 8 47 -7
10 -8 6 -5 -13z"/>
<path d="M4759 3780 c-4 -34 -3 -44 9 -46 7 -1 8 0 3 2 -5 3 -7 16 -5 30 2 13
2 24 -1 24 -3 0 -6 -4 -6 -10z"/>
<path d="M4828 3773 c7 -3 16 -2 19 1 4 3 -2 6 -13 5 -11 0 -14 -3 -6 -6z"/>
<path d="M4893 3765 c0 -8 4 -12 9 -9 5 3 6 10 3 15 -9 13 -12 11 -12 -6z"/>
<path d="M4195 3761 c-3 -5 -2 -12 3 -15 5 -3 9 1 9 9 0 17 -3 19 -12 6z"/>
<path d="M4293 3755 c0 -7 8 -10 19 -7 10 2 18 6 18 7 0 1 -8 5 -18 7 -11 3
-19 0 -19 -7z"/>
<path d="M4579 3759 c-10 -7 -6 -8 13 -5 15 2 29 0 32 -5 2 -5 3 -4 2 2 -3 15
-29 20 -47 8z"/>
<path d="M4654 3759 c-3 -6 -3 -13 0 -16 3 -4 6 -1 6 5 0 6 11 9 27 6 15 -3
25 -3 22 1 -12 11 -49 14 -55 4z"/>
<path d="M4805 3742 c-5 -4 -11 -12 -12 -19 -3 -13 22 -12 34 2 5 4 2 5 -6 0
-11 -6 -13 -4 -8 8 7 19 6 20 -8 9z"/>
<path d="M4840 3740 c8 -5 20 -10 25 -10 6 0 3 5 -5 10 -8 5 -19 10 -25 10 -5
0 -3 -5 5 -10z"/>
<path d="M4170 3725 c-10 -13 -11 -18 -1 -28 10 -9 11 -8 5 7 -5 12 -4 17 3
13 5 -3 10 0 10 8 0 19 -2 19 -17 0z"/>
<path d="M4256 3722 c-3 -5 1 -9 9 -9 8 0 12 4 9 9 -3 4 -7 8 -9 8 -2 0 -6 -4
-9 -8z"/>
<path d="M4719 3728 c-5 -18 -6 -38 -1 -34 7 8 12 36 6 36 -2 0 -4 -1 -5 -2z"/>
<path d="M4550 3701 c14 -10 7 -16 -15 -11 -5 1 -6 -2 -2 -6 4 -4 14 -9 21
-10 18 -3 13 29 -5 34 -11 3 -11 1 1 -7z"/>
<path d="M4750 3686 c5 -13 7 -27 4 -30 -2 -3 -1 -4 3 -1 12 10 10 44 -3 49
-10 4 -11 -1 -4 -18z"/>
<path d="M4368 3693 c-22 -5 -24 -20 -3 -20 8 0 16 6 19 14 3 7 4 12 3 12 -1
-1 -10 -3 -19 -6z"/>
<path d="M4414 3679 c0 -12 4 -15 12 -9 6 6 14 7 17 3 4 -3 7 -2 7 4 0 6 -8
13 -18 15 -12 4 -18 -1 -18 -13z"/>
<path d="M4180 3680 c-12 -7 -10 -9 7 -7 12 0 19 5 17 9 -6 10 -6 10 -24 -2z"/>
<path d="M4630 3680 c0 -5 5 -10 10 -10 6 0 10 5 10 10 0 6 -4 10 -10 10 -5 0
-10 -4 -10 -10z"/>
<path d="M4308 3651 c3 -9 1 -12 -6 -7 -6 3 -14 1 -18 -5 -4 -7 -3 -9 4 -5 5
3 12 2 14 -3 1 -5 10 1 19 13 16 20 16 22 -1 22 -11 0 -16 -5 -12 -15z"/>
<path d="M4479 3663 c-1 -5 -1 -12 0 -17 1 -5 -4 -6 -12 -3 -7 3 -14 -1 -14
-8 0 -8 7 -11 15 -7 11 4 13 1 7 -9 -5 -8 -4 -11 1 -6 8 8 15 57 7 57 -1 0 -4
-3 -4 -7z"/>
<path d="M4592 3650 c12 -19 35 -22 35 -4 0 7 -7 10 -15 6 -9 -3 -13 -1 -9 5
3 5 0 10 -7 10 -11 0 -11 -5 -4 -17z"/>
<path d="M4677 3657 c4 -6 0 -8 -10 -4 -14 5 -15 3 -4 -13 8 -14 13 -16 16 -8
2 7 8 18 12 24 5 7 3 11 -6 11 -8 0 -11 -5 -8 -10z"/>
<path d="M4051 3651 c-8 -5 -9 -11 -3 -15 5 -3 12 1 16 9 6 17 6 18 -13 6z"/>
<path d="M4206 3638 c3 -5 10 -6 15 -3 13 9 11 12 -6 12 -8 0 -12 -4 -9 -9z"/>
<path d="M4336 3633 c-6 -14 -5 -15 5 -6 7 7 10 15 7 18 -3 3 -9 -2 -12 -12z"/>
<path d="M4385 3640 c-3 -6 1 -7 9 -4 18 7 21 14 7 14 -6 0 -13 -4 -16 -10z"/>
<path d="M4067 3627 c-3 -8 1 -14 8 -14 7 0 11 6 8 14 -3 7 -6 13 -8 13 -2 0
-5 -6 -8 -13z"/>
<path d="M4357 3627 c-3 -8 1 -14 8 -14 7 0 11 6 8 14 -3 7 -6 13 -8 13 -2 0
-5 -6 -8 -13z"/>
<path d="M4119 3623 c0 -5 -2 -16 -4 -25 -2 -9 3 -19 11 -22 11 -4 12 -1 6 12
-5 9 -7 23 -5 30 3 6 2 12 -1 12 -3 0 -6 -3 -7 -7z"/>
<path d="M4587 3619 c7 -7 15 -10 18 -7 3 3 -2 9 -12 12 -14 6 -15 5 -6 -5z"/>
<path d="M4172 3611 c-11 -7 -11 -9 0 -14 9 -3 15 1 15 9 0 8 -1 14 -1 14 -1
0 -7 -4 -14 -9z"/>
<path d="M4213 3605 c0 -7 8 -10 19 -7 10 2 18 6 18 7 0 1 -8 5 -18 7 -11 3
-19 0 -19 -7z"/>
<path d="M4535 3610 c-4 -6 -11 -8 -16 -5 -5 4 -9 4 -9 1 0 -3 8 -10 18 -15
14 -7 18 -6 18 10 0 22 -2 23 -11 9z"/>
<path d="M4316 3594 c-8 -20 -8 -24 2 -24 4 0 8 9 9 20 2 24 -3 26 -11 4z"/>
<path d="M4394 3593 c2 -9 8 -18 15 -19 6 -1 7 0 1 3 -5 2 -8 9 -5 13 3 5 1
11 -4 14 -5 4 -8 -2 -7 -11z"/>
<path d="M4066 3577 c3 -9 10 -17 15 -17 19 0 24 -2 39 -13 13 -11 13 -10 1 6
-8 9 -16 15 -19 12 -3 -3 -14 3 -24 12 -18 16 -18 16 -12 0z"/>
<path d="M4223 3577 c-3 -6 -1 -7 5 -3 5 3 12 1 14 -6 3 -8 6 -7 10 3 7 17
-19 22 -29 6z"/>
<path d="M4358 3572 c3 -10 1 -13 -6 -8 -6 3 -13 2 -16 -3 -4 -5 1 -8 10 -7
21 3 39 33 20 33 -8 0 -12 -7 -8 -15z"/>
<path d="M4507 3569 c4 -13 8 -18 11 -10 2 7 -1 18 -6 23 -8 8 -9 4 -5 -13z"/>
<path d="M3946 3563 c-6 -14 -5 -15 5 -6 7 7 10 15 7 18 -3 3 -9 -2 -12 -12z"/>
<path d="M4193 3555 c0 -8 4 -12 9 -9 4 3 8 9 8 15 0 5 -4 9 -8 9 -5 0 -9 -7
-9 -15z"/>
<path d="M4148 3531 c3 -8 1 -12 -5 -8 -5 3 -10 0 -10 -8 0 -11 4 -12 13 -4 7
6 18 8 23 5 5 -4 13 -1 17 5 5 8 3 9 -6 4 -9 -6 -12 -4 -8 6 4 10 -1 15 -12
15 -11 0 -16 -5 -12 -15z"/>
<path d="M4439 3548 c-6 -20 -5 -38 2 -49 7 -10 8 -6 5 13 -3 15 1 29 7 32 9
3 9 5 0 5 -7 1 -13 0 -14 -1z"/>
<path d="M3895 3529 c-4 -6 -5 -12 -2 -15 2 -3 7 2 10 11 7 17 1 20 -8 4z"/>
<path d="M4295 3530 c-4 -6 -11 -8 -16 -5 -5 4 -9 2 -9 -3 0 -5 8 -12 18 -14
12 -4 18 1 18 13 0 22 -2 23 -11 9z"/>
<path d="M3950 3519 c0 -3 9 -9 19 -12 13 -3 18 0 15 7 -5 13 -34 18 -34 5z"/>
<path d="M4016 3514 c-3 -7 2 -10 15 -7 22 6 26 20 4 20 -8 0 -16 -6 -19 -13z"/>
<path d="M4356 3518 c3 -4 11 -5 19 -1 21 7 19 12 -4 10 -11 0 -18 -5 -15 -9z"/>
<path d="M4387 3493 c3 -7 6 -13 8 -13 2 0 5 6 8 13 3 8 -1 14 -8 14 -7 0 -11
-6 -8 -14z"/>
<path d="M3890 3489 c0 -5 -4 -8 -9 -5 -11 7 -8 -21 4 -31 4 -5 5 -2 0 6 -6
11 -4 13 7 8 12 -4 14 -1 11 14 -6 21 -13 26 -13 8z"/>
<path d="M4211 3484 c0 -11 3 -14 6 -6 3 7 2 16 -1 19 -3 4 -6 -2 -5 -13z"/>
<path d="M4419 3498 c-5 -18 -6 -38 -1 -34 7 8 12 36 6 36 -2 0 -4 -1 -5 -2z"/>
<path d="M4064 3475 c-18 -15 -18 -15 0 -8 12 4 17 3 13 -4 -3 -5 0 -10 8 -10
10 0 12 4 5 12 -5 7 -7 15 -3 18 12 13 -3 7 -23 -8z"/>
<path d="M4232 3485 c4 -5 3 -13 -2 -20 -7 -8 -5 -12 5 -12 8 0 11 5 8 10 -4
6 0 8 10 4 25 -9 21 0 -5 14 -13 6 -20 8 -16 4z"/>
<path d="M3957 3467 c-3 -8 1 -14 8 -14 7 0 11 6 8 14 -3 7 -6 13 -8 13 -2 0
-5 -6 -8 -13z"/>
<path d="M4347 3467 c-3 -8 1 -14 8 -14 7 0 11 6 8 14 -3 7 -6 13 -8 13 -2 0
-5 -6 -8 -13z"/>
<path d="M4277 3455 c-4 -8 -3 -16 1 -19 4 -3 9 4 9 15 2 23 -3 25 -10 4z"/>
<path d="M3813 3445 c0 -7 8 -10 19 -7 10 2 18 6 18 7 0 1 -8 5 -18 7 -11 3
-19 0 -19 -7z"/>
<path d="M3906 3438 c3 -4 9 -8 15 -8 5 0 9 4 9 8 0 5 -7 9 -15 9 -8 0 -12 -4
-9 -9z"/>
<path d="M4110 3439 c0 -3 9 -9 19 -12 13 -3 18 0 15 7 -5 13 -34 18 -34 5z"/>
<path d="M4174 3439 c-3 -6 -3 -13 0 -16 3 -4 6 -1 6 5 0 6 11 9 27 6 15 -3
25 -3 22 1 -12 11 -49 14 -55 4z"/>
<path d="M4390 3439 c0 -5 5 -7 10 -4 6 3 10 8 10 11 0 2 -4 4 -10 4 -5 0 -10
-5 -10 -11z"/>
<path d="M3995 3431 c-3 -5 -2 -12 3 -15 5 -3 9 1 9 9 0 17 -3 19 -12 6z"/>
<path d="M4356 3427 c3 -10 9 -15 12 -12 3 3 0 11 -7 18 -10 9 -11 8 -5 -6z"/>
<path d="M3958 3408 c2 -10 6 -18 7 -18 1 0 5 8 7 18 3 11 0 19 -7 19 -7 0
-10 -8 -7 -19z"/>
<path d="M3790 3400 c0 -5 5 -10 10 -10 6 0 10 5 10 10 0 6 -4 10 -10 10 -5 0
-10 -4 -10 -10z"/>
<path d="M3932 3401 c-11 -7 -11 -9 0 -14 9 -3 15 1 15 9 0 8 -1 14 -1 14 -1
0 -7 -4 -14 -9z"/>
<path d="M4239 3408 c-1 -2 -2 -15 -3 -29 -3 -26 13 -33 31 -15 4 4 4 7 -2 6
-21 -5 -29 1 -15 10 11 7 11 10 2 10 -7 0 -10 5 -7 10 3 6 4 10 1 10 -3 0 -6
-1 -7 -2z"/>
<path d="M4332 3401 c-11 -7 -11 -9 0 -14 9 -3 15 1 15 9 0 8 -1 14 -1 14 -1
0 -7 -4 -14 -9z"/>
<path d="M3708 3378 c5 -5 16 -8 23 -6 8 3 3 7 -10 11 -17 4 -21 3 -13 -5z"/>
<path d="M4067 3373 c5 -12 3 -14 -8 -8 -8 5 -11 4 -6 0 4 -5 13 -10 21 -11
16 -2 17 24 0 30 -9 3 -11 -1 -7 -11z"/>
<path d="M3766 3361 c-19 -7 -19 -8 0 -13 13 -3 21 0 21 8 0 8 -1 14 -1 13 -1
0 -10 -4 -20 -8z"/>
<path d="M3813 3355 c0 -7 6 -11 14 -8 7 3 13 6 13 8 0 2 -6 5 -13 8 -8 3 -14
-1 -14 -8z"/>
<path d="M3867 3351 c-3 -13 0 -18 7 -15 7 3 13 11 13 19 0 22 -14 18 -20 -4z"/>
<path d="M4146 3362 c-3 -5 1 -9 9 -9 8 0 15 4 15 9 0 4 -4 8 -9 8 -6 0 -12
-4 -15 -8z"/>
<path d="M4114 3331 c13 -12 18 -13 28 -2 11 10 9 11 -6 5 -12 -5 -17 -4 -13
3 3 5 -1 10 -9 10 -13 0 -13 -2 0 -16z"/>
<path d="M4197 3337 c4 -6 0 -8 -10 -4 -25 9 -21 0 6 -14 12 -6 19 -8 15 -4
-4 5 -3 13 2 20 7 8 5 12 -5 12 -8 0 -11 -5 -8 -10z"/>
<path d="M3988 3333 c6 -2 9 -10 6 -15 -4 -7 -2 -8 5 -4 13 9 5 26 -12 25 -9
0 -8 -2 1 -6z"/>
<path d="M3776 3322 c-3 -5 1 -9 9 -9 8 0 12 4 9 9 -3 4 -7 8 -9 8 -2 0 -6 -4
-9 -8z"/>
<path d="M3877 3311 c-10 -12 -9 -13 3 -6 8 5 21 10 28 11 24 4 25 13 3 11
-12 -1 -28 -8 -34 -16z"/>
<path d="M4081 3312 c-7 -14 -6 -19 4 -19 7 0 11 7 7 15 -4 11 -1 13 8 7 9 -5
11 -4 6 3 -10 16 -14 15 -25 -6z"/>
<path d="M3841 3296 c-9 -10 -8 -15 3 -19 9 -4 18 -1 22 5 5 7 2 8 -6 3 -10
-6 -12 -4 -7 8 8 21 3 22 -12 3z"/>
<path d="M3947 3289 c6 -22 20 -26 20 -4 0 8 -6 16 -13 19 -7 3 -10 -2 -7 -15z"/>
<path d="M4150 3301 c0 -5 8 -15 18 -22 15 -12 16 -12 5 2 -7 9 -10 19 -6 22
3 4 1 7 -5 7 -7 0 -12 -4 -12 -9z"/>
<path d="M4240 3300 c-9 -6 -10 -10 -3 -10 6 0 15 5 18 10 8 12 4 12 -15 0z"/>
<path d="M3726 3287 c-16 -12 -16 -14 -3 -14 9 0 18 6 21 14 3 7 4 13 3 13 -2
0 -11 -6 -21 -13z"/>
<path d="M4028 3272 c-4 -12 1 -18 13 -18 12 0 15 4 9 12 -6 6 -7 14 -3 17 3
4 2 7 -4 7 -6 0 -13 -8 -15 -18z"/>
<path d="M3827 3253 c4 -10 2 -14 -4 -10 -5 3 -10 0 -10 -8 0 -13 4 -12 19 2
22 19 22 19 4 26 -11 4 -13 1 -9 -10z"/>
<path d="M3890 3249 c0 -5 -4 -8 -9 -5 -11 7 -8 -21 4 -31 4 -5 5 -2 0 6 -6
11 -4 13 7 8 12 -4 14 -1 11 14 -6 21 -13 26 -13 8z"/>
<path d="M4140 3249 c0 -5 -4 -8 -9 -4 -6 3 -15 -5 -21 -17 -10 -20 -10 -21 3
-6 9 11 17 14 23 8 6 -6 10 -2 11 10 1 11 0 20 -3 20 -2 0 -4 -5 -4 -11z"/>
<path d="M3750 3239 c0 -5 5 -7 10 -4 6 3 10 8 10 11 0 2 -4 4 -10 4 -5 0 -10
-5 -10 -11z"/>
<path d="M3975 3240 c-6 -9 -4 -11 5 -5 10 6 12 4 7 -7 -6 -16 17 -20 28 -5 3
4 2 5 -2 2 -3 -3 -11 3 -18 12 -9 13 -14 13 -20 3z"/>
<path d="M4076 3208 c5 -7 2 -9 -8 -6 -8 4 -15 0 -15 -7 0 -10 5 -11 17 -5 10
5 21 6 26 2 5 -4 2 1 -5 11 -15 19 -26 23 -15 5z"/>
<path d="M3787 3191 c-3 -13 0 -18 7 -15 7 3 13 11 13 19 0 22 -14 18 -20 -4z"/>
<path d="M4006 3201 c-19 -7 -19 -8 0 -13 13 -3 21 0 21 8 0 8 -1 14 -1 13 -1
0 -10 -4 -20 -8z"/>
<path d="M3935 3168 c1 -7 8 -12 15 -10 7 2 10 -3 7 -11 -3 -7 1 -14 8 -14 10
0 11 5 4 19 -6 10 -14 16 -19 13 -4 -3 -11 0 -13 5 -3 6 -4 5 -2 -2z"/>
<path d="M3740 3166 c0 -2 8 -10 18 -17 15 -13 16 -12 3 4 -13 16 -21 21 -21
13z"/>
<path d="M3830 3159 c0 -5 5 -7 10 -4 6 3 10 8 10 11 0 2 -4 4 -10 4 -5 0 -10
-5 -10 -11z"/>
<path d="M3787 3129 c6 -22 20 -26 20 -4 0 8 -6 16 -13 19 -7 3 -10 -2 -7 -15z"/>
<path d="M4000 3140 c-9 -6 -10 -10 -3 -10 6 0 15 5 18 10 8 12 4 12 -15 0z"/>
<path d="M3888 3133 c-22 -5 -24 -20 -3 -20 8 0 16 6 19 14 3 7 4 12 3 12 -1
-1 -10 -3 -19 -6z"/>
<path d="M3916 3113 c-6 -14 -5 -15 5 -6 7 7 10 15 7 18 -3 3 -9 -2 -12 -12z"/>
<path d="M3940 3100 c-9 -6 -10 -10 -3 -10 6 0 15 5 18 10 8 12 4 12 -15 0z"/>
<path d="M3753 3070 c-1 -11 2 -20 7 -20 4 0 7 7 6 15 -3 23 -12 26 -13 5z"/>
<path d="M3813 3076 c-4 -5 0 -6 7 -1 9 6 12 4 8 -7 -4 -8 0 -15 8 -15 7 0 10
5 7 10 -4 6 0 8 9 5 8 -4 15 -1 15 5 0 14 -46 16 -54 3z"/>
<path d="M3771 3013 c-1 -17 16 -25 25 -12 4 7 3 9 -4 5 -5 -3 -13 0 -15 6 -4
9 -6 10 -6 1z"/>
<path d="M3838 2983 c7 -3 16 -2 19 1 4 3 -2 6 -13 5 -11 0 -14 -3 -6 -6z"/>
<path d="M3813 2965 c0 -7 8 -10 19 -7 10 2 18 6 18 7 0 1 -8 5 -18 7 -11 3
-19 0 -19 -7z"/>
<path d="M3893 2965 c0 -8 4 -12 9 -9 5 3 6 10 3 15 -9 13 -12 11 -12 -6z"/>
<path d="M3890 2926 c0 -8 4 -17 9 -20 5 -4 7 3 4 14 -6 23 -13 26 -13 6z"/>
<path d="M3790 2920 c0 -5 5 -10 10 -10 6 0 10 5 10 10 0 6 -4 10 -10 10 -5 0
-10 -4 -10 -10z"/>
<path d="M3867 2911 c-4 -17 -3 -21 5 -13 5 5 8 16 6 23 -3 8 -7 3 -11 -10z"/>
<path d="M3827 2899 c7 -7 15 -10 18 -7 3 3 -2 9 -12 12 -14 6 -15 5 -6 -5z"/>
<path d="M3781 2874 c0 -11 3 -14 6 -6 3 7 2 16 -1 19 -3 4 -6 -2 -5 -13z"/>
<path d="M3813 2875 c0 -7 6 -11 14 -8 7 3 13 6 13 8 0 2 -6 5 -13 8 -8 3 -14
-1 -14 -8z"/>
<path d="M3842 2861 c-10 -6 -10 -10 2 -20 11 -9 16 -9 22 0 5 8 3 9 -6 4 -10
-6 -12 -4 -7 8 7 19 7 20 -11 8z"/>
<path d="M3773 2836 c-3 -6 -3 -8 2 -4 4 4 13 3 20 -2 8 -7 12 -5 12 3 0 16
-25 18 -34 3z"/>
<path d="M3873 2803 c4 -3 3 -11 -3 -17 -6 -8 -3 -12 9 -12 12 0 17 6 13 18
-2 10 -9 18 -15 18 -6 0 -7 -3 -4 -7z"/>
<path d="M3798 2768 c2 -10 6 -18 7 -18 1 0 5 8 7 18 3 11 0 19 -7 19 -7 0
-10 -8 -7 -19z"/>
<path d="M3869 2744 c5 -3 7 -17 5 -32 -3 -19 -2 -23 5 -13 12 18 7 44 -8 47
-6 1 -7 0 -2 -2z"/>
<path d="M3917 2697 c4 -6 0 -8 -9 -5 -8 4 -15 1 -15 -7 0 -8 7 -11 15 -7 11
4 13 1 7 -9 -5 -8 -5 -11 1 -6 5 5 9 12 9 15 0 4 3 12 7 18 4 6 1 11 -7 11 -8
0 -11 -5 -8 -10z"/>
<path d="M3868 2653 c7 -3 16 -2 19 1 4 3 -2 6 -13 5 -11 0 -14 -3 -6 -6z"/>
<path d="M3910 2640 c0 -5 5 -10 11 -10 5 0 7 5 4 10 -3 6 -8 10 -11 10 -2 0
-4 -4 -4 -10z"/>
<path d="M3868 2608 c2 -10 6 -18 7 -18 1 0 5 8 7 18 3 11 0 19 -7 19 -7 0
-10 -8 -7 -19z"/>
<path d="M3817 2609 c7 -7 15 -10 18 -7 3 3 -2 9 -12 12 -14 6 -15 5 -6 -5z"/>
<path d="M3893 2605 c-3 -9 -3 -18 -1 -21 3 -3 8 4 11 16 6 23 -1 27 -10 5z"/>
<path d="M3953 2563 c4 -3 1 -13 -6 -22 -11 -14 -10 -14 5 -2 16 12 16 31 1
31 -4 0 -3 -3 0 -7z"/>
<path d="M3891 2525 c4 -3 19 -8 35 -11 16 -3 26 -2 23 1 -4 3 -19 8 -35 11
-16 3 -26 2 -23 -1z"/>
<path d="M3870 2494 c6 -6 7 -14 3 -17 -3 -4 -2 -7 4 -7 6 0 13 8 15 18 4 12
-1 18 -13 18 -12 0 -15 -4 -9 -12z"/>
<path d="M3906 2438 c3 -4 9 -8 15 -8 5 0 9 4 9 8 0 5 -7 9 -15 9 -8 0 -12 -4
-9 -9z"/>
<path d="M3934 2401 c0 -12 6 -17 18 -13 10 2 18 9 18 15 0 6 -3 7 -7 4 -3 -4
-11 -3 -17 3 -8 6 -12 3 -12 -9z"/>
<path d="M3859 2399 c-10 -7 -6 -8 13 -5 15 2 29 0 32 -5 2 -5 3 -4 2 2 -3 15
-29 20 -47 8z"/>
<path d="M3896 2354 c-3 -9 1 -11 11 -7 10 4 14 2 10 -4 -3 -5 0 -10 8 -10 10
0 12 4 5 12 -5 7 -8 14 -5 17 3 2 -2 5 -10 5 -8 0 -16 -6 -19 -13z"/>
<path d="M3939 2319 c-10 -7 -6 -8 13 -5 15 2 29 0 32 -5 2 -5 3 -4 2 2 -3 15
-29 20 -47 8z"/>
<path d="M4011 2244 c0 -11 3 -14 6 -6 3 7 2 16 -1 19 -3 4 -6 -2 -5 -13z"/>
<path d="M3898 2238 c5 -5 16 -8 23 -6 8 3 3 7 -10 11 -17 4 -21 3 -13 -5z"/>
<path d="M3947 2213 c3 -7 6 -13 8 -13 2 0 5 6 8 13 3 8 -1 14 -8 14 -7 0 -11
-6 -8 -14z"/>
<path d="M4016 2207 c3 -10 9 -15 12 -12 3 3 0 11 -7 18 -10 9 -11 8 -5 -6z"/>
<path d="M3936 2166 c5 -14 40 -14 53 0 3 4 -1 4 -9 2 -8 -3 -23 -1 -32 4 -13
6 -16 5 -12 -6z"/>
<path d="M3986 2138 c3 -5 10 -6 15 -3 13 9 11 12 -6 12 -8 0 -12 -4 -9 -9z"/>
<path d="M4036 2131 c-3 -5 -19 -8 -34 -7 -17 1 -29 -3 -29 -10 0 -8 7 -10 21
-5 12 5 28 7 37 6 9 -2 16 4 16 11 0 16 -4 18 -11 5z"/>
<path d="M5037 1728 c19 -22 19 -22 26 -4 4 11 1 13 -10 9 -10 -4 -14 -2 -10
4 3 5 0 10 -8 10 -13 0 -12 -4 2 -19z"/>
<path d="M5076 1678 c3 -4 11 -5 19 -1 21 7 19 12 -4 10 -11 0 -18 -5 -15 -9z"/>
<path d="M5106 1656 c5 -12 4 -17 -3 -13 -5 3 -10 -1 -10 -9 0 -13 2 -13 16 0
12 13 13 18 2 28 -10 11 -11 9 -5 -6z"/>
<path d="M5074 1608 c2 -15 0 -29 -5 -32 -5 -2 -4 -3 2 -2 15 3 20 29 8 47 -7
10 -8 6 -5 -13z"/>
<path d="M5115 1621 c-3 -6 3 -14 13 -20 14 -7 19 -6 19 4 0 7 -7 11 -15 7
-10 -3 -13 -1 -8 6 4 7 5 12 2 12 -3 0 -7 -4 -11 -9z"/>
<path d="M5110 1560 c0 -5 5 -10 11 -10 5 0 7 5 4 10 -3 6 -8 10 -11 10 -2 0
-4 -4 -4 -10z"/>
<path d="M5068 1532 c5 -9 7 -24 4 -32 -2 -8 -2 -12 2 -9 14 13 14 48 0 53
-11 4 -12 1 -6 -12z"/>
<path d="M5165 1542 c-13 -9 -19 -35 -6 -28 5 4 11 0 14 -6 2 -7 4 -1 3 14 0
16 -1 28 -1 28 0 0 -4 -4 -10 -8z"/>
<path d="M5093 1485 c0 -8 5 -11 10 -8 6 4 8 0 5 -8 -4 -10 1 -15 12 -15 11 0
16 5 12 15 -3 8 -1 12 5 8 5 -3 10 0 10 8 0 11 -4 12 -14 4 -9 -8 -17 -8 -26
0 -10 8 -14 7 -14 -4z"/>
<path d="M5056 1398 c3 -5 10 -6 15 -3 13 9 11 12 -6 12 -8 0 -12 -4 -9 -9z"/>
<path d="M5166 1398 c3 -5 10 -6 15 -3 13 9 11 12 -6 12 -8 0 -12 -4 -9 -9z"/>
<path d="M5046 1371 c-19 -7 -19 -8 0 -13 13 -3 21 0 21 8 0 8 -1 14 -1 13 -1
0 -10 -4 -20 -8z"/>
<path d="M5093 1365 c0 -5 12 -10 27 -10 15 0 27 5 27 10 0 6 -12 10 -27 10
-15 0 -27 -4 -27 -10z"/>
<path d="M5173 1366 c0 -6 10 -11 23 -11 25 0 23 10 -4 17 -10 3 -19 0 -19 -6z"/>
<path d="M5030 1346 c0 -2 7 -7 16 -10 8 -3 12 -2 9 4 -6 10 -25 14 -25 6z"/>
<path d="M5070 1320 c0 -5 5 -10 10 -10 6 0 10 5 10 10 0 6 -4 10 -10 10 -5 0
-10 -4 -10 -10z"/>
<path d="M5160 1320 c8 -5 20 -10 25 -10 6 0 3 5 -5 10 -8 5 -19 10 -25 10 -5
0 -3 -5 5 -10z"/>
<path d="M5119 1308 c-10 -33 6 -46 28 -24 4 4 4 7 -2 6 -21 -5 -29 1 -15 10
10 6 11 10 3 10 -7 0 -13 -1 -14 -2z"/>
<path d="M5010 1277 c0 -6 3 -8 6 -4 3 3 16 2 28 -3 16 -6 23 -5 23 3 0 7 -13
12 -29 13 -15 1 -28 -3 -28 -9z"/>
<path d="M4991 1263 c3 -19 -2 -27 -10 -15 -7 11 -9 11 -14 -1 -6 -17 17 -17
34 0 8 8 8 13 0 18 -6 3 -11 3 -10 -2z"/>
<path d="M5170 1249 c0 -5 -6 -7 -12 -3 -7 4 -10 4 -6 -1 4 -4 3 -13 -2 -20
-7 -8 -5 -12 5 -12 8 0 11 5 8 10 -4 6 0 8 9 4 12 -4 14 -1 11 14 -6 21 -13
26 -13 8z"/>
<path d="M4958 1213 c7 -3 16 -2 19 1 4 3 -2 6 -13 5 -11 0 -14 -3 -6 -6z"/>
<path d="M5054 1209 c3 -15 29 -20 47 -8 10 7 6 8 -13 5 -15 -2 -29 0 -32 5
-2 5 -3 4 -2 -2z"/>
<path d="M4910 1190 c-8 -15 -8 -18 3 -14 8 3 14 11 14 19 0 20 -4 19 -17 -5z"/>
<path d="M4993 1166 c0 -17 30 -14 33 3 2 7 0 7 -3 1 -3 -7 -9 -8 -17 -1 -9 8
-13 7 -13 -3z"/>
<path d="M5153 1164 c0 -7 4 -11 8 -8 4 2 10 -2 12 -8 4 -8 6 -7 6 3 1 9 -5
19 -12 22 -8 3 -14 -1 -14 -9z"/>
<path d="M4918 1158 c-9 -5 -6 -7 9 -5 12 2 25 6 28 8 8 9 -23 6 -37 -3z"/>
<path d="M5093 1155 c0 -7 7 -11 15 -7 11 4 13 1 7 -8 -5 -9 -4 -11 3 -6 16
10 15 14 -6 25 -14 7 -19 6 -19 -4z"/>
<path d="M4959 1143 c-1 -5 -1 -12 0 -17 1 -5 -4 -6 -12 -3 -7 3 -14 -1 -14
-8 0 -8 7 -11 15 -7 9 3 13 1 9 -5 -3 -5 0 -10 8 -10 12 0 12 3 2 16 -10 12
-9 14 4 9 9 -4 16 -1 16 7 0 8 -7 11 -15 7 -10 -3 -13 -1 -8 6 4 7 5 12 2 12
-3 0 -7 -3 -7 -7z"/>
<path d="M5074 1128 c2 -15 0 -29 -5 -32 -5 -2 -4 -3 2 -2 15 3 20 29 8 47 -7
10 -8 6 -5 -13z"/>
<path d="M4877 1133 c-12 -11 -8 -20 11 -25 11 -3 19 0 19 7 0 8 -7 11 -15 7
-10 -3 -13 -1 -8 6 8 13 3 16 -7 5z"/>
<path d="M5130 1125 c-11 -13 -11 -18 0 -28 10 -9 11 -9 6 1 -4 7 -2 19 4 27
7 8 10 15 7 15 -2 0 -10 -7 -17 -15z"/>
<path d="M4807 1090 c-9 -11 -13 -20 -7 -20 5 0 14 9 20 20 6 11 9 20 8 20 -2
0 -11 -9 -21 -20z"/>
<path d="M4880 1072 c-18 -14 -19 -19 -7 -19 9 0 13 5 10 10 -4 6 0 8 9 5 9
-4 15 0 15 8 0 18 0 18 -27 -4z"/>
<path d="M4980 1080 c-8 -5 -10 -10 -5 -10 6 0 17 5 25 10 8 5 11 10 5 10 -5
0 -17 -5 -25 -10z"/>
<path d="M5080 1080 c-8 -5 0 -7 18 -7 17 1 29 4 26 6 -8 9 -31 9 -44 1z"/>
<path d="M5030 1060 c14 -9 7 -14 -13 -11 -5 1 -6 -3 -2 -9 3 -6 11 -8 16 -4
5 3 16 1 23 -5 9 -8 13 -7 13 4 0 8 -5 11 -10 8 -6 -4 -8 0 -5 8 4 10 -1 15
-15 17 -17 1 -19 -1 -7 -8z"/>
<path d="M4764 1039 c-4 -7 -3 -9 4 -5 5 3 13 0 15 -6 4 -9 6 -10 6 -1 1 17
-16 25 -25 12z"/>
<path d="M4816 1034 c-3 -7 2 -10 15 -7 22 6 26 20 4 20 -8 0 -16 -6 -19 -13z"/>
<path d="M4710 990 c-11 -7 -11 -10 -2 -10 7 0 10 -5 7 -10 -4 -6 -12 -7 -18
-4 -7 4 -8 3 -4 -1 16 -18 33 -12 33 11 0 13 0 24 0 24 -1 0 -8 -5 -16 -10z"/>
<path d="M4885 982 c-5 -4 -11 -12 -12 -19 -3 -13 22 -12 34 2 5 4 2 5 -6 0
-11 -6 -13 -4 -8 8 7 19 6 20 -8 9z"/>
<path d="M5008 973 c-10 -2 -18 -9 -18 -15 0 -6 3 -8 7 -5 3 4 11 3 17 -3 8
-6 12 -3 12 11 0 10 0 18 -1 18 0 -1 -8 -3 -17 -6z"/>
<path d="M3945 959 c-3 -4 2 -6 10 -5 21 3 28 13 10 13 -9 0 -18 -4 -20 -8z"/>
<path d="M4035 961 c-3 -5 -2 -12 3 -15 5 -3 9 1 9 9 0 17 -3 19 -12 6z"/>
<path d="M4230 962 c0 -6 9 -12 20 -15 11 -3 20 -3 20 -1 0 2 -9 8 -20 14 -11
6 -20 7 -20 2z"/>
<path d="M4393 952 c0 -12 5 -22 9 -22 11 0 10 12 -2 30 -7 12 -9 10 -7 -8z"/>
<path d="M4546 958 c3 -4 9 -8 15 -8 5 0 9 4 9 8 0 5 -7 9 -15 9 -8 0 -12 -4
-9 -9z"/>
<path d="M4790 962 c0 -5 7 -9 15 -9 8 0 12 4 9 9 -3 4 -9 8 -15 8 -5 0 -9 -4
-9 -8z"/>
<path d="M3074 952 c3 -5 0 -13 -6 -15 -9 -4 -10 -6 -1 -6 17 -1 25 16 12 25
-7 4 -9 3 -5 -4z"/>
<path d="M3576 951 c-4 -5 3 -7 14 -4 23 6 26 13 6 13 -8 0 -17 -4 -20 -9z"/>
<path d="M3750 956 c0 -2 9 -6 20 -9 11 -3 18 -1 14 4 -5 9 -34 13 -34 5z"/>
<path d="M2596 938 c5 -7 2 -9 -8 -6 -8 4 -15 0 -15 -7 0 -10 5 -11 19 -4 16
9 17 29 2 29 -3 0 -2 -5 2 -12z"/>
<path d="M2751 934 c6 -7 8 -18 5 -23 -4 -5 -1 -13 5 -17 8 -5 9 -3 4 6 -6 9
-4 12 6 8 10 -4 15 1 15 12 0 11 -5 16 -15 12 -8 -3 -12 -1 -8 5 3 5 0 10 -8
10 -11 0 -12 -4 -4 -13z"/>
<path d="M2868 938 c5 -5 16 -8 23 -6 8 3 3 7 -10 11 -17 4 -21 3 -13 -5z"/>
<path d="M3195 941 c-3 -5 -2 -12 3 -15 5 -3 9 1 9 9 0 17 -3 19 -12 6z"/>
<path d="M3316 941 c-3 -5 1 -14 8 -20 10 -9 16 -9 21 -1 4 6 4 14 1 17 -3 4
-6 1 -6 -6 0 -7 -5 -9 -10 -6 -6 4 -8 11 -5 16 4 5 4 9 1 9 -3 0 -7 -4 -10 -9z"/>
<path d="M3398 928 c2 -10 6 -18 7 -18 1 0 5 8 7 18 3 11 0 19 -7 19 -7 0 -10
-8 -7 -19z"/>
<path d="M3473 938 c2 -7 1 -20 -4 -29 -5 -10 -3 -16 6 -16 8 0 11 7 7 16 -5
14 -4 14 14 1 18 -14 18 -14 1 6 -9 11 -14 24 -10 27 3 4 1 7 -6 7 -7 0 -11
-6 -8 -12z"/>
<path d="M3844 939 c-3 -6 -2 -15 4 -21 6 -6 12 -6 17 3 6 8 4 10 -5 4 -10 -6
-12 -4 -7 8 7 19 2 23 -9 6z"/>
<path d="M3910 943 c0 -5 5 -15 10 -23 7 -12 9 -10 7 8 -1 19 -17 33 -17 15z"/>
<path d="M3997 928 c19 -22 19 -22 26 -4 4 11 1 13 -10 9 -10 -4 -14 -2 -10 4
3 5 0 10 -8 10 -13 0 -12 -4 2 -19z"/>
<path d="M4108 932 c3 -10 1 -13 -6 -8 -6 3 -13 2 -16 -2 -9 -15 43 -7 56 8
11 11 9 11 -6 0 -18 -13 -19 -13 -14 1 4 9 1 16 -7 16 -8 0 -11 -7 -7 -15z"/>
<path d="M4276 933 c-6 -14 -5 -15 5 -6 7 7 10 15 7 18 -3 3 -9 -2 -12 -12z"/>
<path d="M4468 943 c7 -3 16 -2 19 1 4 3 -2 6 -13 5 -11 0 -14 -3 -6 -6z"/>
<path d="M4670 941 c0 -6 4 -12 8 -15 5 -3 9 1 9 9 0 8 -4 15 -9 15 -4 0 -8
-4 -8 -9z"/>
<path d="M4752 931 c7 -9 13 -17 14 -19 1 -1 7 4 14 13 11 13 10 14 -5 9 -11
-5 -16 -4 -12 3 3 5 0 10 -8 10 -12 0 -12 -3 -3 -16z"/>
<path d="M4837 937 c4 -7 -1 -8 -12 -3 -15 5 -16 4 -5 -9 7 -9 13 -14 14 -13
1 2 7 10 14 19 9 13 9 16 -3 16 -8 0 -11 -5 -8 -10z"/>
<path d="M2420 929 c0 -5 -4 -8 -9 -4 -5 3 -12 1 -15 -4 -4 -5 2 -8 11 -7 15
3 33 26 19 26 -3 0 -6 -5 -6 -11z"/>
<path d="M2520 926 c7 -7 13 -7 20 0 6 6 3 10 -10 10 -13 0 -16 -4 -10 -10z"/>
<path d="M3691 924 c0 -11 3 -14 6 -6 3 7 2 16 -1 19 -3 4 -6 -2 -5 -13z"/>
<path d="M3715 929 c-4 -6 -5 -12 -2 -15 2 -3 7 2 10 11 7 17 1 20 -8 4z"/>
<path d="M4195 929 c-4 -6 -5 -12 -2 -15 2 -3 7 2 10 11 7 17 1 20 -8 4z"/>
<path d="M1970 916 c7 -7 13 -7 20 0 6 6 3 10 -10 10 -13 0 -16 -4 -10 -10z"/>
<path d="M2072 918 c2 -6 10 -13 16 -14 7 -1 8 0 2 3 -5 2 -8 9 -4 14 3 5 0 9
-6 9 -7 0 -10 -5 -8 -12z"/>
<path d="M2130 920 c0 -5 5 -10 10 -10 6 0 10 5 10 10 0 6 -4 10 -10 10 -5 0
-10 -4 -10 -10z"/>
<path d="M2486 922 c-3 -5 1 -9 9 -9 8 0 12 4 9 9 -3 4 -7 8 -9 8 -2 0 -6 -4
-9 -8z"/>
<path d="M2665 919 c-4 -6 -4 -13 -1 -16 3 -4 6 -1 6 6 0 7 5 9 10 6 6 -3 10
-1 10 4 0 14 -17 14 -25 0z"/>
<path d="M2930 922 c0 -4 10 -9 22 -9 18 -2 20 0 8 7 -18 12 -30 13 -30 2z"/>
<path d="M3110 920 c0 -5 5 -10 10 -10 6 0 10 5 10 10 0 6 -4 10 -10 10 -5 0
-10 -4 -10 -10z"/>
<path d="M3365 917 c-14 -11 -15 -16 -5 -22 9 -6 11 -4 5 5 -6 9 -4 12 7 8 9
-4 15 0 15 8 0 17 1 17 -22 1z"/>
<path d="M3784 918 c-5 -7 -3 -8 6 -3 9 6 12 4 8 -7 -4 -8 -1 -15 7 -15 7 0
10 8 7 19 -5 21 -17 23 -28 6z"/>
<path d="M4726 922 c-3 -5 1 -9 9 -9 8 0 12 4 9 9 -3 4 -7 8 -9 8 -2 0 -6 -4
-9 -8z"/>
<path d="M4855 919 c-4 -6 -4 -13 -1 -16 3 -4 6 -1 6 6 0 7 5 9 12 5 7 -4 8
-3 4 4 -9 15 -13 15 -21 1z"/>
<path d="M2235 911 c-3 -5 -2 -12 3 -15 5 -3 9 1 9 9 0 17 -3 19 -12 6z"/>
<path d="M2867 906 c-4 -10 -1 -13 8 -9 8 3 12 9 9 14 -7 12 -11 11 -17 -5z"/>
<path d="M3587 907 c-3 -8 1 -14 8 -14 7 0 11 6 8 14 -3 7 -6 13 -8 13 -2 0
-5 -6 -8 -13z"/>
<path d="M4387 907 c-3 -8 1 -14 8 -14 7 0 11 6 8 14 -3 7 -6 13 -8 13 -2 0
-5 -6 -8 -13z"/>
<path d="M4557 907 c-3 -8 1 -14 8 -14 7 0 11 6 8 14 -3 7 -6 13 -8 13 -2 0
-5 -6 -8 -13z"/>
<path d="M2029 904 c5 -3 7 -17 5 -32 -3 -19 -2 -23 5 -13 12 18 7 44 -8 47
-6 1 -7 0 -2 -2z"/>
<path d="M2190 894 c6 -6 7 -14 3 -17 -3 -4 -2 -7 4 -7 6 0 13 8 15 18 4 12
-1 18 -13 18 -12 0 -15 -4 -9 -12z"/>
<path d="M2313 888 c-2 -18 0 -20 7 -8 12 18 13 30 2 30 -4 0 -9 -10 -9 -22z"/>
<path d="M2909 904 c5 -3 7 -17 5 -32 -3 -19 -2 -23 5 -13 12 18 7 44 -8 47
-6 1 -7 0 -2 -2z"/>
<path d="M2999 908 c-6 -20 -5 -38 2 -49 7 -10 8 -6 5 13 -3 15 1 29 7 32 9 3
9 5 0 5 -7 1 -13 0 -14 -1z"/>
<path d="M3165 902 c-13 -9 -17 -32 -6 -32 5 0 11 9 14 20 6 22 6 22 -8 12z"/>
<path d="M3639 900 c-4 -34 -3 -44 9 -46 7 -1 8 0 3 2 -5 3 -7 16 -5 30 2 13
2 24 -1 24 -3 0 -6 -4 -6 -10z"/>
<path d="M4512 900 c3 -8 1 -23 -4 -32 -6 -13 -5 -16 6 -12 14 5 14 40 0 53
-4 3 -4 -1 -2 -9z"/>
<path d="M1953 885 c0 -8 4 -12 9 -9 4 3 8 0 8 -7 0 -7 2 -10 5 -7 7 7 -5 38
-14 38 -4 0 -8 -7 -8 -15z"/>
<path d="M2478 893 c7 -3 16 -2 19 1 4 3 -2 6 -13 5 -11 0 -14 -3 -6 -6z"/>
<path d="M2576 886 c3 -7 11 -13 19 -13 22 0 18 14 -4 20 -13 3 -18 0 -15 -7z"/>
<path d="M3248 893 c-10 -2 -18 -9 -18 -15 0 -6 3 -8 7 -5 3 4 11 3 17 -3 8
-6 12 -3 12 11 0 10 0 18 -1 18 0 -1 -8 -3 -17 -6z"/>
<path d="M3294 881 c0 -12 6 -17 18 -13 10 2 18 9 18 15 0 6 -3 7 -7 4 -3 -4
-11 -3 -17 3 -8 6 -12 3 -12 -9z"/>
<path d="M3515 889 c-4 -6 -5 -12 -2 -15 2 -3 7 2 10 11 7 17 1 20 -8 4z"/>
<path d="M4016 886 c3 -7 11 -13 19 -13 22 0 18 14 -4 20 -13 3 -18 0 -15 -7z"/>
<path d="M4288 893 c-10 -2 -18 -9 -18 -15 0 -6 3 -8 7 -5 3 4 11 3 17 -3 8
-6 12 -3 12 11 0 10 0 18 -1 18 0 -1 -8 -3 -17 -6z"/>
<path d="M4656 886 c5 -14 40 -14 53 0 3 4 -1 4 -9 2 -8 -3 -23 -1 -32 4 -13
6 -16 5 -12 -6z"/>
<path d="M4773 885 c0 -8 5 -11 10 -8 6 4 8 0 5 -8 -4 -10 1 -15 12 -15 11 0
16 5 12 15 -4 10 -1 12 8 6 9 -5 11 -4 6 4 -4 6 -12 9 -17 5 -5 -3 -16 -1 -23
5 -9 8 -13 7 -13 -4z"/>
<path d="M4925 891 c-11 -5 -23 -7 -27 -4 -5 2 -8 0 -8 -5 0 -14 49 -9 55 6 2
6 3 12 2 11 -1 0 -11 -4 -22 -8z"/>
<path d="M2428 872 c-4 -12 1 -18 13 -18 12 0 15 4 9 12 -6 6 -7 14 -3 17 3 4
2 7 -4 7 -6 0 -13 -8 -15 -18z"/>
<path d="M2693 877 c-4 -6 -1 -7 7 -2 10 6 12 4 7 -7 -4 -12 -1 -14 16 -10 12
3 16 7 9 10 -7 2 -10 7 -8 11 3 4 -2 8 -10 8 -8 0 -18 -5 -21 -10z"/>
<path d="M2836 882 c-3 -4 4 -9 15 -9 23 -2 25 3 4 10 -8 4 -16 3 -19 -1z"/>
<path d="M3435 880 c-3 -5 -3 -10 2 -10 4 0 1 -5 -7 -11 -12 -8 -12 -10 -1 -7
8 2 15 12 17 21 3 19 -2 22 -11 7z"/>
<path d="M3534 879 c-3 -6 -3 -13 0 -16 3 -4 6 -1 6 5 0 6 11 9 27 6 15 -3 25
-3 22 1 -12 11 -49 14 -55 4z"/>
<path d="M3750 880 c0 -5 5 -10 10 -10 6 0 10 5 10 10 0 6 -4 10 -10 10 -5 0
-10 -4 -10 -10z"/>
<path d="M3873 883 c4 -3 3 -11 -3 -17 -6 -8 -3 -12 9 -12 12 0 17 6 13 18 -2
10 -9 18 -15 18 -6 0 -7 -3 -4 -7z"/>
<path d="M4133 877 c-4 -6 -1 -7 7 -2 9 6 12 4 8 -6 -4 -10 1 -15 12 -15 11 0
16 5 12 15 -4 10 -1 12 9 6 8 -4 11 -4 6 0 -11 12 -47 13 -54 2z"/>
<path d="M4433 883 c4 -3 3 -11 -3 -17 -6 -8 -3 -12 9 -12 12 0 17 6 13 18 -2
10 -9 18 -15 18 -6 0 -7 -3 -4 -7z"/>
<path d="M2270 855 c5 -7 6 -16 2 -20 -4 -5 -2 -5 5 -2 6 4 13 2 15 -5 3 -7 7
-3 10 9 4 17 2 20 -10 16 -9 -4 -13 -2 -9 4 3 5 0 10 -8 10 -10 0 -12 -4 -5
-12z"/>
<path d="M2354 845 c0 -13 3 -22 7 -19 8 4 6 30 -2 38 -3 3 -5 -5 -5 -19z"/>
<path d="M3469 852 c5 -9 16 -17 25 -18 9 -1 14 2 10 7 -3 5 -10 6 -16 3 -7
-5 -9 -2 -6 8 4 8 0 15 -8 15 -9 0 -10 -5 -5 -15z"/>
<path d="M3710 855 c5 -7 7 -15 3 -19 -4 -4 1 -4 11 0 15 6 17 4 11 -7 -5 -8
-4 -11 0 -6 16 14 14 36 -3 30 -9 -4 -13 -2 -9 4 3 5 0 10 -8 10 -10 0 -12 -4
-5 -12z"/>
<path d="M3798 848 c2 -10 6 -18 7 -18 1 0 5 8 7 18 3 11 0 19 -7 19 -7 0 -10
-8 -7 -19z"/>
<path d="M3959 863 c-1 -5 -1 -12 0 -17 1 -4 -3 -14 -8 -20 -8 -9 -7 -13 4
-13 8 0 11 5 8 10 -4 6 0 8 8 5 10 -4 15 1 15 12 0 11 -5 16 -15 12 -9 -3 -12
-1 -7 6 4 7 5 12 2 12 -3 0 -7 -3 -7 -7z"/>
<path d="M1820 849 c0 -5 -4 -8 -9 -4 -5 3 -12 1 -15 -4 -4 -5 2 -8 11 -7 15
3 33 26 19 26 -3 0 -6 -5 -6 -11z"/>
<path d="M2053 845 c0 -8 5 -11 10 -8 6 4 8 0 5 -9 -4 -8 0 -15 7 -15 10 0 11
5 4 18 -12 24 -26 31 -26 14z"/>
<path d="M2134 845 c1 -8 6 -18 11 -22 4 -4 5 -3 2 4 -4 6 -2 13 5 15 8 3 6 6
-4 10 -10 4 -15 2 -14 -7z"/>
<path d="M2331 844 c0 -11 3 -14 6 -6 3 7 2 16 -1 19 -3 4 -6 -2 -5 -13z"/>
<path d="M2512 856 c4 -5 3 -16 -2 -26 -6 -12 -5 -17 5 -17 8 0 11 7 7 16 -5
13 -3 14 9 4 12 -10 15 -8 16 10 0 12 -1 16 -4 9 -4 -10 -8 -10 -21 0 -10 7
-14 9 -10 4z"/>
<path d="M2933 845 c0 -8 4 -12 9 -9 5 3 6 10 3 15 -9 13 -12 11 -12 -6z"/>
<path d="M2972 851 c-11 -7 -11 -9 0 -14 9 -3 15 1 15 9 0 8 -1 14 -1 14 -1 0
-7 -4 -14 -9z"/>
<path d="M3093 845 c0 -7 6 -11 14 -8 7 3 13 6 13 8 0 2 -6 5 -13 8 -8 3 -14
-1 -14 -8z"/>
<path d="M4116 853 c-4 -5 -12 -9 -17 -9 -5 -1 -13 -2 -18 -3 -5 0 -12 -9 -15
-18 -6 -16 -6 -16 12 0 10 9 21 15 24 12 3 -3 11 1 18 10 13 15 10 21 -4 8z"/>
<path d="M4333 843 c1 -18 4 -20 16 -10 12 10 14 9 9 -4 -4 -9 -1 -16 7 -16
10 0 11 5 4 19 -6 10 -14 16 -19 13 -4 -3 -10 1 -13 7 -3 7 -4 3 -4 -9z"/>
<path d="M4474 849 c-3 -6 -2 -15 3 -20 5 -5 9 -1 9 11 0 23 -2 24 -12 9z"/>
<path d="M1893 835 c0 -7 8 -10 19 -7 10 2 18 6 18 7 0 1 -8 5 -18 7 -11 3
-19 0 -19 -7z"/>
<path d="M1994 833 c2 -10 -2 -25 -8 -33 -9 -13 -9 -13 6 -2 16 12 18 35 6 48
-4 3 -5 -2 -4 -13z"/>
<path d="M2108 832 c-3 -11 0 -19 7 -19 7 0 10 8 7 19 -2 10 -6 18 -7 18 -1 0
-5 -8 -7 -18z"/>
<path d="M3068 832 c-3 -11 0 -19 7 -19 7 0 10 8 7 19 -2 10 -6 18 -7 18 -1 0
-5 -8 -7 -18z"/>
<path d="M3360 840 c-12 -7 -10 -9 8 -7 12 0 22 5 22 9 0 11 -12 10 -30 -2z"/>
<path d="M3534 842 c4 -3 14 -7 22 -8 9 -1 13 0 10 4 -4 3 -14 7 -22 8 -9 1
-13 0 -10 -4z"/>
<path d="M3772 841 c-11 -7 -11 -9 0 -14 9 -3 15 1 15 9 0 8 -1 14 -1 14 -1 0
-7 -4 -14 -9z"/>
<path d="M4590 830 c-6 -12 -5 -17 5 -17 7 0 11 7 7 15 -3 10 -1 13 6 8 6 -3
13 -3 16 2 3 5 -2 9 -10 9 -8 0 -19 -8 -24 -17z"/>
<path d="M4639 840 c-3 -20 -4 -25 -13 -40 -7 -12 -6 -13 4 -3 13 12 25 53 15
53 -3 0 -6 -4 -6 -10z"/>
<path d="M4750 840 c0 -5 5 -10 10 -10 6 0 10 5 10 10 0 6 -4 10 -10 10 -5 0
-10 -4 -10 -10z"/>
<path d="M4846 842 c-3 -5 1 -9 9 -9 8 0 15 4 15 9 0 4 -4 8 -9 8 -6 0 -12 -4
-15 -8z"/>
<path d="M2234 832 c3 -5 0 -13 -6 -15 -9 -4 -10 -6 -1 -6 17 -1 25 16 12 25
-7 4 -9 3 -5 -4z"/>
<path d="M2627 826 c-4 -10 -1 -13 8 -9 8 3 12 9 9 14 -7 12 -11 11 -17 -5z"/>
<path d="M2879 833 c-1 -5 -1 -12 0 -17 1 -5 -5 -6 -14 -2 -10 3 -14 2 -10 -5
9 -14 28 -6 31 14 1 9 0 17 -2 17 -2 0 -5 -3 -5 -7z"/>
<path d="M4236 831 c-3 -5 1 -11 9 -14 9 -4 12 -1 8 9 -6 16 -10 17 -17 5z"/>
<path d="M4707 827 c-3 -8 1 -14 8 -14 7 0 11 6 8 14 -3 7 -6 13 -8 13 -2 0
-5 -6 -8 -13z"/>
<path d="M1820 820 c-9 -6 -10 -10 -3 -10 6 0 15 5 18 10 8 12 4 12 -15 0z"/>
<path d="M2398 811 c5 -14 4 -14 -14 -1 -17 14 -18 14 -6 -2 8 -9 11 -23 7
-30 -4 -7 0 -5 8 4 9 12 17 14 24 7 6 -6 10 -5 10 5 0 8 -5 12 -10 9 -6 -4 -8
0 -5 9 4 8 1 15 -7 15 -8 0 -11 -7 -7 -16z"/>
<path d="M2669 824 c5 -3 7 -17 5 -32 -3 -19 -2 -23 5 -13 12 18 7 44 -8 47
-6 1 -7 0 -2 -2z"/>
<path d="M3405 822 c-12 -8 -13 -28 -2 -36 4 -3 5 -3 2 0 -2 4 0 15 6 25 11
21 9 23 -6 11z"/>
<path d="M3595 821 c-3 -5 -2 -12 3 -15 5 -3 9 1 9 9 0 17 -3 19 -12 6z"/>
<path d="M3870 809 c5 -9 6 -20 2 -24 -4 -5 -1 -5 6 -1 7 5 11 11 8 14 -3 3
-2 10 4 16 6 8 3 12 -10 12 -14 0 -16 -4 -10 -17z"/>
<path d="M4195 821 c-3 -5 0 -13 6 -17 7 -4 9 -3 5 4 -3 5 0 13 6 15 9 4 10 6
1 6 -6 1 -14 -3 -18 -8z"/>
<path d="M4313 811 c0 -11 5 -18 9 -15 4 3 5 11 1 19 -7 21 -12 19 -10 -4z"/>
<path d="M4427 813 c5 -12 3 -14 -7 -8 -9 5 -11 4 -6 -4 6 -9 11 -9 22 0 17
14 17 16 0 22 -11 4 -13 1 -9 -10z"/>
<path d="M4507 813 c5 -12 3 -14 -7 -8 -9 5 -11 4 -6 -4 6 -9 11 -9 22 0 17
14 17 16 0 22 -11 4 -13 1 -9 -10z"/>
<path d="M4786 817 c3 -10 9 -15 12 -12 3 3 0 11 -7 18 -10 9 -11 8 -5 -6z"/>
<path d="M4826 817 c3 -10 9 -15 12 -12 3 3 0 11 -7 18 -10 9 -11 8 -5 -6z"/>
<path d="M1918 813 c7 -3 16 -2 19 1 4 3 -2 6 -13 5 -11 0 -14 -3 -6 -6z"/>
<path d="M2555 809 c-4 -6 -5 -12 -2 -15 2 -3 7 2 10 11 7 17 1 20 -8 4z"/>
<path d="M2785 805 c11 -9 19 -19 18 -23 -1 -4 0 -9 2 -10 2 -2 2 4 1 13 -1
10 -11 22 -22 27 -18 9 -17 8 1 -7z"/>
<path d="M2998 813 c7 -3 16 -2 19 1 4 3 -2 6 -13 5 -11 0 -14 -3 -6 -6z"/>
<path d="M3295 809 c-4 -6 -13 -8 -21 -5 -8 3 -11 0 -7 -10 6 -16 23 -19 23
-3 0 5 4 8 8 5 5 -3 9 1 9 9 0 18 -3 19 -12 4z"/>
<path d="M3558 813 c7 -3 16 -2 19 1 4 3 -2 6 -13 5 -11 0 -14 -3 -6 -6z"/>
<path d="M3716 807 c3 -10 9 -15 12 -12 3 3 0 11 -7 18 -10 9 -11 8 -5 -6z"/>
<path d="M2036 802 c-3 -4 4 -9 15 -9 23 -2 25 3 4 10 -8 4 -16 3 -19 -1z"/>
<path d="M2150 802 c0 -5 7 -9 15 -9 8 0 12 4 9 9 -3 4 -9 8 -15 8 -5 0 -9 -4
-9 -8z"/>
<path d="M2240 800 c-12 -7 -10 -9 7 -7 12 0 19 5 17 9 -6 10 -6 10 -24 -2z"/>
<path d="M2355 803 c3 -3 0 -11 -5 -18 -7 -8 -5 -12 4 -12 14 0 16 22 3 32 -4
3 -5 2 -2 -2z"/>
<path d="M2476 802 c-3 -5 1 -9 9 -9 8 0 12 4 9 9 -3 4 -7 8 -9 8 -2 0 -6 -4
-9 -8z"/>
<path d="M2950 800 c0 -5 5 -10 10 -10 6 0 10 5 10 10 0 6 -4 10 -10 10 -5 0
-10 -4 -10 -10z"/>
<path d="M3110 802 c0 -5 7 -9 15 -9 8 0 12 4 9 9 -3 4 -9 8 -15 8 -5 0 -9 -4
-9 -8z"/>
<path d="M3330 801 c0 -6 4 -13 10 -16 6 -3 7 1 4 9 -7 18 -14 21 -14 7z"/>
<path d="M3446 802 c-3 -5 1 -9 9 -9 8 0 15 4 15 9 0 4 -4 8 -9 8 -6 0 -12 -4
-15 -8z"/>
<path d="M3516 793 c-6 -14 -5 -15 5 -6 7 7 10 15 7 18 -3 3 -9 -2 -12 -12z"/>
<path d="M3633 795 c0 -8 4 -12 9 -9 5 3 6 10 3 15 -9 13 -12 11 -12 -6z"/>
<path d="M3679 793 c-13 -16 -12 -17 4 -4 9 7 17 15 17 17 0 8 -8 3 -21 -13z"/>
<path d="M3780 806 c0 -2 8 -10 18 -17 15 -13 16 -12 3 4 -13 16 -21 21 -21
13z"/>
<path d="M3975 801 c-3 -5 -2 -12 3 -15 5 -3 9 1 9 9 0 17 -3 19 -12 6z"/>
<path d="M4116 802 c-3 -5 1 -9 9 -9 8 0 12 4 9 9 -3 4 -7 8 -9 8 -2 0 -6 -4
-9 -8z"/>
<path d="M2450 791 c0 -6 4 -13 10 -16 6 -3 7 1 4 9 -7 18 -14 21 -14 7z"/>
<path d="M2733 785 c0 -8 4 -12 9 -9 5 3 6 10 3 15 -9 13 -12 11 -12 -6z"/>
<path d="M2835 790 c-3 -5 -1 -10 4 -10 6 0 11 5 11 10 0 6 -2 10 -4 10 -3 0
-8 -4 -11 -10z"/>
<path d="M3076 787 c3 -10 9 -15 12 -12 3 3 0 11 -7 18 -10 9 -11 8 -5 -6z"/>
<path d="M1948 783 c7 -3 16 -2 19 1 4 3 -2 6 -13 5 -11 0 -14 -3 -6 -6z"/>
<path d="M2108 768 c2 -10 6 -18 7 -18 1 0 5 8 7 18 3 11 0 19 -7 19 -7 0 -10
-8 -7 -19z"/>
<path d="M2196 778 c5 -7 2 -9 -8 -6 -8 4 -15 0 -15 -7 0 -10 5 -11 19 -4 16
9 17 29 2 29 -3 0 -2 -5 2 -12z"/>
<path d="M2908 783 c7 -3 16 -2 19 1 4 3 -2 6 -13 5 -11 0 -14 -3 -6 -6z"/>
<path d="M1970 770 c-9 -6 -10 -10 -3 -10 6 0 15 5 18 10 8 12 4 12 -15 0z"/>
</g>
</svg>
