<?xml version="1.0" standalone="no"?>
<!DOCTYPE svg PUBLIC "-//W3C//DTD SVG 20010904//EN"
 "http://www.w3.org/TR/2001/REC-SVG-20010904/DTD/svg10.dtd">
<svg version="1.0" xmlns="http://www.w3.org/2000/svg"
 width="700.000000pt" height="700.000000pt" viewBox="0 0 700.000000 700.000000"
 preserveAspectRatio="xMidYMid meet">
<metadata>
Created by potrace 1.14, written by Peter Selinger 2001-2017
</metadata>
<g transform="translate(0.000000,700.000000) scale(0.100000,-0.100000)"
fill="#000000" stroke="none">
<path d="M870 6380 l-635 -5 -52 -24 c-86 -38 -147 -122 -172 -232 -10 -45 -8
-200 3 -254 25 -117 106 -264 187 -339 53 -48 144 -103 162 -98 4 1 7 -2 7 -6
0 -4 10 -8 23 -9 63 -2 93 -9 105 -23 11 -13 11 -13 6 3 -5 13 -1 17 18 17 13
0 30 -6 37 -12 11 -10 13 -10 7 0 -5 8 1 12 18 12 14 0 26 -6 26 -12 0 -10 2
-10 8 -1 5 8 26 12 53 10 l44 -2 23 -90 c38 -151 55 -235 76 -375 13 -83 18
-119 32 -230 3 -25 13 -132 19 -205 4 -42 14 -194 20 -305 4 -63 9 -314 20
-1060 4 -195 8 -382 10 -415 13 -194 16 -238 20 -267 2 -18 6 -64 10 -102 4
-38 8 -79 10 -90 2 -12 11 -70 20 -131 20 -131 66 -331 100 -435 16 -47 27
-108 30 -164 6 -103 22 -165 67 -258 23 -47 39 -68 51 -68 10 0 15 -5 12 -10
-4 -6 -11 -7 -17 -4 -7 4 -8 2 -4 -4 5 -8 13 -9 24 -3 20 10 45 3 36 -10 -3
-6 4 -7 18 -4 18 5 25 2 25 -9 0 -10 -4 -13 -12 -6 -6 5 -16 5 -25 0 -11 -7
-12 -10 -2 -10 7 0 10 -5 6 -11 -4 -8 -9 -7 -15 2 -4 7 -5 17 -3 21 3 4 0 8
-6 8 -6 0 -8 5 -5 10 10 17 -2 11 -16 -7 -7 -10 -9 -15 -5 -11 5 5 14 -2 21
-15 6 -12 17 -21 23 -20 7 2 13 -2 13 -7 1 -6 2 -14 3 -20 0 -5 3 -9 6 -7 3 1
23 -17 44 -41 27 -30 42 -40 50 -32 17 17 30 11 15 -7 -10 -11 -10 -14 -1 -9
6 4 12 2 12 -3 0 -6 7 -11 16 -11 9 0 12 -5 8 -12 -4 -7 -4 -10 0 -6 5 4 26
-4 47 -18 21 -13 39 -21 39 -18 0 4 7 1 15 -6 8 -6 19 -9 25 -5 5 3 10 0 10
-7 0 -10 3 -9 9 2 11 16 4 33 -10 25 -5 -4 -6 2 -2 11 4 12 8 14 11 6 3 -10 7
-10 18 -1 8 7 17 9 21 6 3 -4 -1 -9 -10 -13 -15 -5 -15 -8 0 -31 12 -18 18
-21 24 -11 12 18 11 30 -1 23 -6 -3 -10 -1 -10 4 0 19 19 12 31 -10 8 -15 8
-19 0 -15 -6 4 -11 1 -11 -6 0 -18 60 -23 61 -6 1 7 1 19 0 26 -1 6 3 12 9 12
6 0 8 6 5 13 -4 6 2 2 13 -10 11 -12 23 -19 28 -15 5 4 0 -3 -10 -15 -16 -20
-17 -23 -3 -23 8 0 17 5 19 12 3 7 7 5 11 -6 4 -10 3 -15 -3 -11 -6 3 -10 1
-10 -5 0 -6 11 -8 24 -6 14 2 27 1 29 -2 2 -4 2 -1 0 6 -1 8 3 12 9 9 7 -2 19
3 26 12 12 14 13 14 9 -5 -3 -12 1 -21 8 -21 18 0 9 39 -12 55 -9 6 -13 12 -7
12 15 0 30 -14 37 -32 7 -19 27 -25 27 -7 0 5 -6 7 -13 3 -6 -4 -3 2 7 14 21
25 36 31 16 7 -10 -13 -9 -15 9 -15 11 0 20 5 18 11 -3 15 46 19 55 5 5 -7 8
-3 8 9 0 15 2 17 9 6 6 -9 11 -10 15 -2 4 6 21 11 37 11 22 0 28 -4 23 -12 -6
-9 -3 -9 9 0 9 8 21 11 27 7 5 -3 10 -2 10 2 0 5 61 8 135 8 74 0 135 4 135 8
0 5 5 5 12 1 16 -10 118 -12 118 -2 0 4 5 8 11 8 5 0 8 -4 5 -9 -3 -5 8 -6 27
-2 28 5 83 6 97 1 18 -7 40 -7 40 0 0 13 55 6 68 -10 8 -8 11 -10 8 -3 -4 6
-2 14 4 18 5 3 10 1 10 -5 0 -6 5 -8 13 -3 18 11 67 10 67 -2 0 -5 4 -5 8 2 8
13 29 12 51 -1 10 -6 12 -5 7 2 -10 16 7 15 23 -1 8 -6 11 -7 8 -2 -3 7 8 11
29 12 22 0 31 -3 27 -11 -5 -8 -3 -8 8 0 20 15 62 15 71 1 5 -8 8 -8 8 -1 0 6
20 12 45 12 38 2 44 0 38 -15 -5 -15 -3 -14 10 2 14 17 19 18 37 7 12 -8 19
-9 16 -3 -4 7 40 10 133 10 122 1 142 -2 151 -17 10 -15 10 -15 6 3 -5 18 -1
20 34 20 29 0 39 -4 35 -13 -3 -7 -1 -11 4 -7 5 3 12 -1 15 -7 3 -7 4 -5 3 6
-2 17 6 19 65 20 43 1 64 -2 60 -9 -3 -5 1 -4 9 2 12 10 18 10 29 0 7 -7 10
-7 7 -1 -7 12 33 11 54 -2 7 -4 10 -3 6 2 -9 15 166 13 178 -3 7 -9 14 -10 25
-2 13 9 12 10 -2 5 -10 -3 -18 -1 -18 4 0 5 65 8 148 7 81 0 152 2 158 6 6 3
22 0 37 -8 17 -9 24 -9 21 -2 -3 8 8 12 30 12 19 0 32 -4 28 -9 -3 -5 5 -6 19
-2 37 11 78 13 91 5 7 -5 26 2 45 17 17 13 34 24 38 24 11 0 145 103 145 112
0 4 7 8 16 8 8 0 12 5 9 10 -3 6 -2 10 3 10 5 0 28 27 52 60 24 32 47 57 51
54 5 -3 6 2 3 11 -4 8 -2 21 4 28 5 6 15 30 22 52 7 22 15 44 18 50 6 10 12
44 15 90 1 17 6 36 11 44 6 10 6 12 -2 7 -7 -4 -12 -2 -12 3 0 6 6 11 13 11 8
0 9 3 1 8 -6 4 -12 21 -13 37 -2 49 -6 70 -13 75 -4 3 -8 20 -10 38 -1 18 -5
32 -8 32 -3 0 -12 17 -19 38 -32 87 -142 212 -236 267 l-48 29 -261 -3 c-404
-5 -400 -5 -392 7 3 5 -1 9 -8 9 -8 0 -12 -5 -10 -11 3 -7 -9 -10 -28 -10 -19
1 -32 7 -31 13 2 6 -1 11 -6 11 -5 0 -11 -7 -13 -15 -6 -26 -28 0 -43 49 -11
34 -11 45 -2 39 9 -5 9 -3 1 8 -18 23 -34 79 -23 80 5 1 13 2 18 3 5 0 13 4
16 8 4 4 -4 5 -18 3 -23 -5 -26 -1 -40 57 -12 48 -13 64 -4 70 9 6 9 8 -1 8
-7 0 -10 5 -7 10 4 6 11 7 17 4 7 -4 8 -2 4 4 -4 6 -12 9 -20 6 -7 -3 -13 1
-14 8 -3 46 -10 87 -16 97 -4 6 -9 30 -11 54 -2 23 -4 42 -5 42 -4 0 -12 53
-14 87 0 20 -4 34 -7 32 -6 -3 -9 24 -12 89 -1 15 -6 27 -12 27 -5 0 -3 5 5
10 8 5 10 10 4 10 -7 0 -14 12 -17 26 -3 19 -1 24 10 20 9 -4 11 -2 7 6 -5 7
-2 9 8 6 8 -4 15 0 15 7 0 10 -5 11 -19 4 -10 -5 -18 -8 -19 -7 -6 25 -11 60
-12 90 -1 21 -5 38 -8 38 -4 0 -5 18 -4 40 1 22 -1 40 -4 40 -4 0 -7 10 -8 23
0 28 -10 118 -18 174 -6 40 -5 43 22 55 15 7 31 17 34 22 4 5 12 5 19 1 9 -6
11 -4 6 4 -5 8 0 14 13 18 12 3 21 10 21 16 0 6 3 7 7 4 3 -4 11 0 17 8 6 7
18 15 26 17 8 2 21 11 29 21 7 10 20 16 28 13 8 -3 12 -2 8 3 -7 12 44 53 59
48 6 -2 10 -14 10 -25 -1 -12 2 -22 7 -22 10 0 7 29 -5 48 -4 7 -5 16 -1 20 3
3 10 0 15 -8 11 -18 37 -21 37 -4 0 10 -4 11 -12 4 -9 -7 -14 -6 -18 4 -7 17
60 79 75 70 5 -3 7 0 6 8 -2 7 5 12 14 12 10 -1 16 2 13 6 -7 12 34 60 51 60
9 0 12 5 8 12 -5 8 -2 9 10 5 10 -4 15 -3 11 3 -3 5 15 31 40 57 24 26 45 54
45 61 0 7 4 11 9 8 5 -3 15 2 22 12 12 15 12 16 -1 6 -21 -16 -52 -9 -72 15
-9 12 -21 21 -27 21 -6 0 -11 5 -11 10 0 6 -7 10 -17 10 -9 0 -13 3 -10 6 4 4
19 2 34 -4 72 -29 89 -35 100 -38 17 -3 43 -30 37 -37 -3 -3 1 -4 10 -3 8 1
19 6 23 11 4 4 3 5 -3 2 -7 -4 -18 1 -25 10 -12 14 -11 15 8 9 41 -13 63 -15
63 -5 0 5 7 9 16 9 9 0 38 11 65 25 27 13 49 21 49 17 0 -4 6 4 13 18 8 16 22
25 40 27 22 1 26 -1 18 -10 -7 -9 -5 -13 8 -13 12 0 17 5 13 15 -4 10 -1 12 8
6 8 -5 11 -4 7 3 -4 5 -18 9 -32 7 -16 -1 -24 2 -22 9 2 6 11 10 20 10 9 -1
14 2 12 7 -7 11 54 95 67 91 5 -1 7 2 4 7 -7 11 32 81 46 81 5 0 7 4 4 9 -3 5
1 14 9 21 8 7 15 19 15 27 0 7 7 16 15 19 8 4 15 11 15 18 0 6 12 22 25 35 14
13 25 27 25 33 0 5 5 6 10 3 6 -3 10 0 10 7 0 7 19 32 42 55 31 32 38 43 24
43 -9 0 -14 5 -11 10 4 6 11 7 17 4 7 -4 8 -2 4 4 -7 11 -36 6 -36 -7 0 -4
-23 -7 -51 -8 -33 0 -46 3 -38 8 8 5 9 9 4 9 -6 0 -16 -5 -23 -12 -9 -9 -12
-8 -12 5 0 16 16 21 73 20 9 0 17 4 17 9 0 5 5 6 10 3 6 -4 8 -12 4 -18 -3 -7
0 -5 8 3 7 8 24 16 38 18 15 2 45 25 78 60 29 31 58 56 65 54 7 -2 9 0 5 3
-11 11 43 77 58 71 8 -3 11 0 7 10 -3 9 1 14 13 14 9 0 15 3 11 6 -8 8 25 44
41 44 7 0 11 4 7 9 -7 12 29 33 40 23 5 -4 5 -1 1 6 -4 6 0 19 8 28 9 8 16 12
16 7 0 -4 7 3 16 15 8 12 20 19 26 16 6 -4 8 -3 5 3 -7 11 65 83 83 83 6 0 8
5 4 12 -5 8 -2 9 9 5 9 -3 19 -1 23 5 4 7 3 8 -4 4 -24 -15 -10 5 31 43 23 22
48 41 55 41 8 0 10 5 6 12 -5 8 -2 9 10 5 9 -4 15 -3 11 3 -3 5 4 18 16 29 18
16 26 18 38 10 9 -7 3 1 -13 16 -16 14 -32 23 -35 18 -13 -20 -117 -57 -191
-69 -19 -3 -21 -2 -10 5 8 5 17 8 21 5 4 -2 10 3 13 12 3 8 10 12 16 9 5 -3
10 -1 10 4 0 6 7 11 16 11 8 0 12 -4 9 -10 -3 -5 -1 -10 4 -10 6 0 11 6 11 14
0 17 59 38 112 40 14 1 24 4 21 9 -7 12 22 8 36 -5 11 -11 13 -10 7 0 -7 11
38 38 57 33 4 -1 7 4 6 11 -3 27 2 38 17 38 9 0 12 5 8 12 -5 7 -2 9 9 5 12
-4 14 -2 10 11 -3 9 -2 14 2 10 5 -5 13 2 20 15 6 12 17 21 23 20 7 -2 12 4
12 13 0 8 4 13 9 10 5 -3 11 3 14 14 4 14 10 18 23 13 11 -4 15 -3 11 4 -4 6
1 17 10 24 9 8 14 9 10 3 -3 -6 0 -11 7 -11 8 0 12 6 10 12 -3 7 3 18 12 26
16 12 17 12 10 -1 -4 -8 1 -4 12 9 12 15 25 22 35 18 11 -4 14 -2 11 7 -3 7 2
16 12 20 11 4 15 2 11 -7 -3 -8 1 -14 8 -14 7 0 11 7 8 14 -7 17 27 44 45 38
7 -3 11 -1 8 3 -3 5 9 17 26 27 22 13 29 14 24 4 -4 -8 -2 -7 6 2 7 9 19 14
27 11 8 -3 11 0 7 7 -6 10 5 15 26 13 3 -1 11 5 18 13 6 7 19 11 27 8 11 -4
14 -2 9 5 -6 10 2 15 17 11 1 0 15 6 31 15 16 8 33 13 38 10 4 -3 8 0 8 6 0 7
7 9 16 6 8 -3 13 -2 10 3 -7 11 41 24 56 15 6 -4 8 -3 4 4 -8 13 29 26 45 16
8 -5 9 -3 4 6 -6 10 -3 12 14 7 13 -3 20 -3 17 1 -4 3 8 12 26 19 25 11 33 11
40 1 5 -9 8 -7 8 6 0 11 3 16 7 13 3 -4 13 -1 21 6 13 9 14 9 8 0 -4 -7 -3
-13 2 -13 6 0 13 7 16 16 5 14 9 14 23 3 12 -10 15 -10 9 -1 -7 12 5 21 36 26
39 6 87 29 82 38 -6 9 -297 4 -404 -6 -136 -14 -172 -20 -240 -42 -43 -13 -93
-35 -113 -48 -33 -23 -57 -20 -42 4 12 19 -23 21 -81 5 -318 -88 -907 -310
-976 -368 -15 -12 -43 -59 -63 -107 l-36 -85 5 63 c4 39 2 62 -4 62 -6 0 -36
-13 -68 -29 -184 -94 -515 -341 -566 -422 -15 -24 -29 -121 -31 -211 0 -16 -2
-28 -5 -28 -3 0 -3 -46 -2 -102 2 -57 1 -100 -3 -97 -3 4 -7 18 -9 31 -1 13
-5 29 -9 34 -16 26 -24 93 -13 105 8 9 8 10 -1 5 -7 -4 -13 -4 -14 1 -5 71
-12 130 -18 145 -7 19 -13 16 -72 -33 -35 -29 -85 -75 -111 -103 -57 -60 -133
-208 -150 -288 -12 -56 -13 -57 -42 -52 -16 3 -33 7 -38 10 -4 3 -5 -1 -2 -9
2 -7 15 -13 27 -12 43 4 55 -33 23 -74 -6 -8 -6 -12 -1 -9 6 3 10 -5 10 -18 0
-13 -4 -24 -10 -24 -5 0 -3 -5 5 -10 8 -5 10 -10 4 -10 -7 0 -8 -17 -4 -50 4
-27 3 -50 -1 -50 -7 0 -11 29 -24 169 -7 66 -19 70 -56 17 -18 -25 -36 -46
-41 -46 -4 0 -7 16 -6 35 1 19 -2 38 -5 42 -4 3 -2 12 4 19 8 10 16 11 30 4
15 -8 17 -7 13 4 -3 8 -14 13 -25 11 -21 -4 -35 10 -19 20 5 3 10 12 10 18 0
8 -3 8 -9 -1 -5 -9 -9 7 -10 43 0 31 -4 62 -8 67 -4 7 -1 8 7 3 9 -6 11 -4 5
6 -17 27 -25 149 -11 168 8 11 8 13 -1 8 -8 -5 -11 8 -11 43 -1 28 -4 61 -8
73 -6 20 -6 21 12 7 18 -14 18 -14 4 4 -15 19 -18 36 -24 152 -2 34 -5 66 -7
70 -10 21 -3 109 8 109 6 0 15 3 18 7 4 4 -4 5 -17 3 -23 -4 -24 -2 -25 40 -1
25 -2 46 -3 48 0 1 -3 26 -4 55 -3 47 -2 51 12 40 13 -11 14 -11 8 0 -4 7 -2
21 5 30 11 14 11 15 -1 5 -8 -7 -21 -13 -29 -13 -14 0 -14 1 -1 10 8 5 10 10
5 10 -15 0 -16 41 -2 59 8 10 8 13 1 8 -16 -10 -25 18 -11 33 9 10 9 11 -1 6
-9 -6 -11 -1 -8 18 3 14 1 26 -3 26 -4 0 -8 6 -8 13 0 6 -3 39 -7 72 -5 42 -4
56 3 45 7 -9 11 -10 11 -3 0 7 -6 16 -14 20 -7 4 -15 20 -18 35 -3 18 -1 25 6
21 6 -4 5 1 -3 10 -11 14 -11 17 0 17 12 0 12 2 0 9 -8 5 -11 16 -8 26 4 9 3
14 -3 10 -6 -3 -10 3 -10 14 0 10 -2 26 -5 33 -4 9 4 19 17 26 22 11 22 11 -4
6 -25 -6 -28 -3 -28 22 0 16 -4 36 -10 44 -6 9 -5 20 3 29 8 10 8 13 1 8 -7
-4 -15 0 -18 9 -5 13 -2 15 13 11 15 -3 18 -1 14 11 -5 11 -3 13 8 7 8 -5 11
-4 6 0 -10 12 -38 15 -31 4 3 -5 1 -9 -4 -9 -12 0 -30 41 -26 63 1 9 -1 17 -6
17 -4 0 -13 14 -19 32 -9 24 -8 34 1 41 9 6 8 7 -5 3 -11 -4 -20 0 -24 12 -13
34 -83 130 -115 157 -18 16 -53 38 -78 49 -44 21 -54 21 -850 21 -443 0 -1091
-2 -1440 -5z m470 -5230 c-8 -5 -11 -12 -8 -15 4 -4 12 2 19 13 12 20 14 20
28 3 9 -10 38 -34 64 -54 27 -21 43 -37 35 -37 -10 0 -10 -2 2 -9 8 -6 18 -7
24 -4 5 4 6 1 1 -7 -6 -10 -4 -12 8 -7 10 3 17 2 17 -2 0 -17 -25 -18 -37 -2
-10 13 -14 14 -25 3 -11 -11 -10 -12 6 -6 15 6 17 3 12 -12 -7 -23 8 -52 18
-35 4 6 2 11 -3 11 -6 0 -11 4 -11 8 0 13 33 11 49 -2 11 -9 13 -6 6 14 -7 23
-7 23 9 7 10 -9 22 -14 28 -11 7 4 8 2 4 -4 -5 -8 1 -12 16 -13 18 -1 19 -2 5
-6 -10 -3 -24 0 -32 7 -14 11 -18 8 -28 -25 -7 -20 -7 -20 8 -1 13 17 15 18
15 3 0 -9 -6 -17 -12 -17 -9 0 -8 -4 2 -10 9 -6 10 -10 3 -10 -6 0 -15 5 -18
10 -4 6 -11 8 -16 5 -5 -4 -12 1 -15 9 -3 9 -10 13 -15 10 -5 -3 -20 6 -34 20
-14 14 -29 26 -33 26 -4 0 -8 5 -8 10 -1 6 -2 15 -3 22 -1 7 -8 5 -20 -6 -17
-16 -20 -15 -52 21 -18 21 -36 37 -39 36 -4 -1 -7 3 -8 10 0 7 -3 23 -6 35 -4
20 -3 22 10 11 13 -10 16 -9 21 10 4 16 9 19 17 11 8 -8 7 -13 -4 -20z m325
-172 c5 4 5 2 2 -4 -4 -7 0 -14 7 -17 8 -3 16 -1 19 6 2 7 6 7 10 1 3 -5 -4
-16 -16 -23 -12 -8 -19 -10 -15 -6 4 4 -5 18 -20 32 -15 14 -20 20 -11 14 9
-6 20 -7 24 -3z m125 -38 c0 -5 -2 -10 -4 -10 -3 0 -8 5 -11 10 -3 6 -1 10 4
10 6 0 11 -4 11 -10z m22 -6 c-5 -9 -7 -26 -5 -38 4 -19 3 -19 -7 -4 -10 17 1
58 16 58 3 0 1 -7 -4 -16z m32 -10 c3 -8 2 -12 -4 -9 -6 3 -10 1 -10 -6 0 -7
-2 -10 -5 -7 -5 5 4 38 10 38 2 0 6 -7 9 -16z m-153 -17 c-10 -9 -11 -8 -5 6
3 10 9 15 12 12 3 -3 0 -11 -7 -18z"/>
<path d="M1350 1135 c-9 -11 -17 -12 -32 -4 -25 14 -20 2 30 -59 32 -41 35
-42 52 -27 17 16 19 15 29 -3 6 -11 7 -23 3 -27 -4 -3 -2 -5 5 -3 6 2 18 -5
25 -15 13 -18 14 -17 14 2 0 11 -4 18 -7 15 -4 -2 -10 0 -13 5 -4 5 -2 12 3
15 16 10 5 41 -14 38 -9 -2 -14 1 -11 6 3 6 -11 24 -33 41 -33 27 -40 29 -51
16z m77 -58 c-1 -7 5 -11 14 -11 16 1 20 -20 6 -31 -4 -3 -5 -2 -2 2 3 3 -3
12 -13 19 -14 10 -20 10 -33 -2 -15 -13 -20 -11 -50 28 -19 23 -29 39 -23 35
7 -4 17 0 24 8 10 12 17 11 46 -11 18 -14 32 -31 31 -37z"/>
<path d="M1350 1115 c-10 -12 -9 -16 4 -21 9 -3 14 -10 11 -14 -3 -4 1 -13 9
-19 10 -8 17 -6 30 8 11 12 14 21 7 26 -6 3 -11 3 -11 -1 0 -4 -8 3 -19 15
-16 18 -20 19 -31 6z m30 -20 c7 -8 17 -12 24 -8 6 4 5 -1 -3 -10 -13 -17 -36
-14 -26 3 3 5 -3 13 -12 19 -10 6 -13 11 -7 11 6 0 17 -7 24 -15z"/>
<path d="M1519 992 c11 -8 11 -10 0 -15 -11 -4 -11 -6 -1 -6 7 -1 10 -6 6 -13
-4 -6 -3 -8 4 -5 14 10 8 40 -9 45 -12 3 -12 2 0 -6z"/>
<path d="M3426 6082 c-3 -5 1 -9 9 -9 8 0 15 4 15 9 0 4 -4 8 -9 8 -6 0 -12
-4 -15 -8z"/>
<path d="M3468 6059 c6 -9 8 -20 4 -24 -4 -5 -2 -5 5 -2 6 4 14 1 16 -5 3 -8
6 -8 6 -2 1 6 -9 19 -21 30 -14 12 -18 13 -10 3z"/>
<path d="M3481 5941 c-8 -5 -9 -11 -3 -15 5 -3 12 1 16 9 6 17 6 18 -13 6z"/>
<path d="M3536 5933 c-6 -14 -5 -15 5 -6 7 7 10 15 7 18 -3 3 -9 -2 -12 -12z"/>
<path d="M3550 5900 c0 -5 5 -10 11 -10 5 0 7 5 4 10 -3 6 -8 10 -11 10 -2 0
-4 -4 -4 -10z"/>
<path d="M3555 5860 c-16 -7 -17 -9 -3 -9 9 -1 20 4 23 9 7 11 7 11 -20 0z"/>
<path d="M6760 5836 c0 -2 7 -7 16 -10 8 -3 12 -2 9 4 -6 10 -25 14 -25 6z"/>
<path d="M6816 5831 c-4 -5 3 -7 14 -4 23 6 26 13 6 13 -8 0 -17 -4 -20 -9z"/>
<path d="M3483 5815 c-3 -9 -3 -18 -1 -21 3 -3 8 4 11 16 6 23 -1 27 -10 5z"/>
<path d="M3518 5823 c7 -3 16 -2 19 1 4 3 -2 6 -13 5 -11 0 -14 -3 -6 -6z"/>
<path d="M6907 5813 c3 -7 6 -13 8 -13 2 0 5 6 8 13 3 8 -1 14 -8 14 -7 0 -11
-6 -8 -14z"/>
<path d="M6974 5805 c1 -8 6 -18 11 -22 4 -4 5 -3 2 4 -4 6 -2 13 5 15 8 3 6
6 -4 10 -10 4 -15 2 -14 -7z"/>
<path d="M6933 5795 c0 -7 6 -11 14 -8 7 3 13 6 13 8 0 2 -6 5 -13 8 -8 3 -14
-1 -14 -8z"/>
<path d="M6615 5790 c-3 -6 1 -7 9 -4 18 7 21 14 7 14 -6 0 -13 -4 -16 -10z"/>
<path d="M6773 5765 c0 -8 5 -11 10 -8 6 4 8 0 5 -8 -4 -10 1 -15 12 -15 11 0
16 5 12 15 -4 10 -1 12 8 6 9 -5 11 -4 6 4 -4 6 -12 9 -17 5 -5 -3 -16 -1 -23
5 -9 8 -13 7 -13 -4z"/>
<path d="M3548 5752 c-4 -12 1 -18 13 -18 12 0 15 4 9 12 -6 6 -7 14 -3 17 3
4 2 7 -4 7 -6 0 -13 -8 -15 -18z"/>
<path d="M6536 5762 c-3 -4 4 -9 15 -9 23 -2 25 3 4 10 -8 4 -16 3 -19 -1z"/>
<path d="M6673 5763 c4 -3 3 -11 -3 -17 -6 -8 -3 -12 9 -12 12 0 17 6 13 18
-2 10 -9 18 -15 18 -6 0 -7 -3 -4 -7z"/>
<path d="M6548 5733 c6 -2 18 -2 25 0 6 3 1 5 -13 5 -14 0 -19 -2 -12 -5z"/>
<path d="M3580 5720 c-12 -7 -10 -9 8 -7 12 0 22 5 22 9 0 11 -12 10 -30 -2z"/>
<path d="M6410 5718 c0 -4 4 -8 9 -8 6 0 12 4 15 8 3 5 -1 9 -9 9 -8 0 -15 -4
-15 -9z"/>
<path d="M6500 5720 c8 -5 20 -10 25 -10 6 0 3 5 -5 10 -8 5 -19 10 -25 10 -5
0 -3 -5 5 -10z"/>
<path d="M6600 5720 c-9 -6 -10 -10 -3 -10 6 0 15 5 18 10 8 12 4 12 -15 0z"/>
<path d="M6753 5715 c0 -8 4 -12 9 -9 4 3 8 9 8 15 0 5 -4 9 -8 9 -5 0 -9 -7
-9 -15z"/>
<path d="M6850 5718 c0 -6 3 -8 7 -5 3 4 13 1 22 -6 14 -11 14 -10 2 6 -15 20
-31 22 -31 5z"/>
<path d="M6950 5720 c0 -5 5 -10 10 -10 6 0 10 5 10 10 0 6 -4 10 -10 10 -5 0
-10 -4 -10 -10z"/>
<path d="M3518 5703 c7 -3 16 -2 19 1 4 3 -2 6 -13 5 -11 0 -14 -3 -6 -6z"/>
<path d="M3616 5693 c-6 -14 -5 -15 5 -6 7 7 10 15 7 18 -3 3 -9 -2 -12 -12z"/>
<path d="M6470 5700 c14 -9 7 -14 -13 -11 -5 1 -6 -3 -2 -9 3 -6 11 -8 16 -4
5 3 16 1 23 -5 9 -8 13 -7 13 4 0 8 -5 11 -10 8 -6 -4 -8 0 -5 8 4 10 -1 15
-15 17 -17 1 -19 -1 -7 -8z"/>
<path d="M6633 5691 c10 -12 9 -14 -4 -9 -9 4 -16 1 -16 -7 0 -10 5 -11 17 -5
10 5 21 6 26 2 5 -4 3 0 -4 10 -10 13 -10 17 0 21 7 3 3 4 -9 4 -18 -1 -20 -4
-10 -16z"/>
<path d="M6724 5699 c-3 -6 -2 -15 4 -21 6 -6 12 -6 17 3 6 8 4 10 -5 4 -10
-6 -12 -4 -7 8 7 19 2 23 -9 6z"/>
<path d="M6827 5689 c6 -22 20 -26 20 -4 0 8 -6 16 -13 19 -7 3 -10 -2 -7 -15z"/>
<path d="M6310 5685 c-7 -9 -11 -17 -9 -20 3 -2 10 5 17 15 14 24 10 26 -8 5z"/>
<path d="M3510 5685 c0 -7 30 -13 34 -7 3 4 -4 9 -15 9 -10 1 -19 0 -19 -2z"/>
<path d="M6335 5679 c-4 -6 -4 -13 -1 -16 3 -4 6 -1 6 6 0 7 5 9 12 5 7 -4 8
-3 4 4 -9 15 -13 15 -21 1z"/>
<path d="M6370 5678 c0 -4 4 -8 9 -8 6 0 12 4 15 8 3 5 -1 9 -9 9 -8 0 -15 -4
-15 -9z"/>
<path d="M6713 5655 c0 -8 4 -12 9 -9 5 3 6 10 3 15 -9 13 -12 11 -12 -6z"/>
<path d="M3570 5649 c0 -5 -6 -7 -12 -3 -7 4 -10 4 -6 -1 4 -4 3 -13 -2 -20
-7 -8 -5 -12 5 -12 8 0 11 5 8 10 -4 6 0 8 9 4 12 -4 14 -1 11 14 -6 21 -13
26 -13 8z"/>
<path d="M6235 5650 c-3 -5 -3 -10 2 -10 4 0 1 -5 -7 -10 -11 -7 -11 -10 -2
-10 8 0 10 -5 6 -12 -4 -7 -3 -9 2 -5 4 4 9 19 10 32 1 27 -1 30 -11 15z"/>
<path d="M6691 5644 c0 -11 3 -14 6 -6 3 7 2 16 -1 19 -3 4 -6 -2 -5 -13z"/>
<path d="M6770 5649 c0 -5 -4 -8 -9 -5 -11 7 -8 -21 4 -31 4 -5 5 -2 0 6 -6
11 -4 13 7 8 12 -4 14 -1 11 14 -6 21 -13 26 -13 8z"/>
<path d="M6933 5645 c0 -7 6 -11 14 -8 7 3 13 6 13 8 0 2 -6 5 -13 8 -8 3 -14
-1 -14 -8z"/>
<path d="M6979 5658 c-8 -27 -5 -36 9 -30 10 4 12 7 4 10 -7 2 -10 8 -6 13 3
5 3 9 0 9 -3 0 -6 -1 -7 -2z"/>
<path d="M6854 5638 c-5 -7 -3 -8 6 -3 9 6 12 4 8 -7 -4 -8 0 -15 7 -15 10 0
11 5 4 19 -11 21 -15 22 -25 6z"/>
<path d="M6908 5632 c-3 -11 0 -19 7 -19 7 0 10 8 7 19 -2 10 -6 18 -7 18 -1
0 -5 -8 -7 -18z"/>
<path d="M3595 5609 c-4 -6 -5 -12 -2 -15 2 -3 7 2 10 11 7 17 1 20 -8 4z"/>
<path d="M6330 5611 c-8 -6 -17 -8 -21 -5 -4 2 -11 0 -14 -6 -4 -6 -3 -10 2
-9 20 3 27 -2 13 -11 -12 -7 -10 -9 7 -7 18 1 20 4 10 16 -10 12 -9 14 4 9 10
-4 16 -1 16 8 0 8 -1 14 -1 14 -1 0 -8 -4 -16 -9z"/>
<path d="M6455 5610 c-4 -6 -11 -8 -16 -5 -5 4 -9 2 -9 -3 0 -5 8 -12 18 -14
12 -4 18 1 18 13 0 22 -2 23 -11 9z"/>
<path d="M6494 5609 c3 -15 29 -20 47 -8 10 7 6 8 -13 5 -15 -2 -29 0 -32 5
-2 5 -3 4 -2 -2z"/>
<path d="M6620 5612 c0 -6 -11 -9 -27 -6 -15 3 -25 3 -22 -1 12 -11 49 -14 55
-4 3 6 3 13 0 16 -3 4 -6 1 -6 -5z"/>
<path d="M6654 5601 c0 -12 6 -17 18 -13 10 2 18 9 18 15 0 6 -3 7 -7 4 -3 -4
-11 -3 -17 3 -8 6 -12 3 -12 -9z"/>
<path d="M3515 5601 c-3 -5 -2 -12 3 -15 5 -3 9 1 9 9 0 17 -3 19 -12 6z"/>
<path d="M6950 5598 c0 -4 4 -8 9 -8 6 0 12 4 15 8 3 5 -1 9 -9 9 -8 0 -15 -4
-15 -9z"/>
<path d="M6115 5589 c-4 -6 -5 -12 -2 -15 2 -3 7 2 10 11 7 17 1 20 -8 4z"/>
<path d="M6540 5584 c0 -1 6 -7 14 -13 10 -9 15 -8 19 2 3 8 -3 13 -14 13 -11
0 -19 -1 -19 -2z"/>
<path d="M6719 5588 c-6 -21 -5 -37 2 -32 5 3 7 9 4 14 -3 4 1 11 7 13 10 4
10 6 1 6 -7 1 -13 0 -14 -1z"/>
<path d="M6910 5564 c5 -12 7 -25 4 -28 -2 -3 -1 -4 3 -1 12 9 9 52 -3 52 -9
0 -10 -7 -4 -23z"/>
<path d="M6181 5564 c0 -11 3 -14 6 -6 3 7 2 16 -1 19 -3 4 -6 -2 -5 -13z"/>
<path d="M6803 5558 c-9 -19 -8 -25 2 -25 8 0 11 7 7 15 -3 10 -1 13 6 8 6 -3
14 -1 18 5 4 7 3 9 -4 5 -5 -3 -12 -1 -14 5 -2 6 -9 0 -15 -13z"/>
<path d="M6935 5571 c-3 -5 -2 -12 3 -15 5 -3 9 1 9 9 0 17 -3 19 -12 6z"/>
<path d="M3600 5550 c-6 -12 -5 -17 5 -17 7 0 11 7 7 15 -3 10 -1 13 6 8 6 -3
13 -3 16 2 3 5 -2 9 -10 9 -8 0 -19 -8 -24 -17z"/>
<path d="M6070 5566 c0 -2 7 -7 16 -10 8 -3 12 -2 9 4 -6 10 -25 14 -25 6z"/>
<path d="M6239 5553 c-13 -17 -13 -17 6 -3 11 8 22 16 24 17 2 2 0 3 -6 3 -6
0 -17 -8 -24 -17z"/>
<path d="M6340 5560 c-8 -5 -10 -10 -5 -10 6 0 17 5 25 10 8 5 11 10 5 10 -5
0 -17 -5 -25 -10z"/>
<path d="M6470 5566 c0 -2 7 -7 16 -10 8 -3 12 -2 9 4 -6 10 -25 14 -25 6z"/>
<path d="M6517 5552 c-14 -15 -15 -19 -2 -19 8 0 11 5 8 10 -4 6 0 8 10 4 11
-4 14 -2 10 9 -7 18 -7 18 -26 -4z"/>
<path d="M6577 5556 c-4 -11 -1 -13 10 -9 10 4 14 2 10 -4 -3 -5 0 -10 8 -10
13 0 12 4 -2 19 -19 22 -19 22 -26 4z"/>
<path d="M6625 5560 c-3 -6 1 -7 9 -4 18 7 21 14 7 14 -6 0 -13 -4 -16 -10z"/>
<path d="M6891 5554 c0 -11 3 -14 6 -6 3 7 2 16 -1 19 -3 4 -6 -2 -5 -13z"/>
<path d="M6390 5550 c-12 -8 -12 -10 -1 -10 11 0 11 -3 0 -17 -11 -15 -11 -16
1 -6 8 7 15 20 16 28 3 18 3 17 -16 5z"/>
<path d="M3552 5540 c3 -8 1 -23 -4 -32 -6 -13 -5 -16 6 -12 14 5 14 40 0 53
-4 3 -4 -1 -2 -9z"/>
<path d="M6268 5528 c2 -10 9 -18 15 -18 6 0 7 3 4 7 -4 3 -3 11 3 17 6 8 3
12 -9 12 -12 0 -17 -6 -13 -18z"/>
<path d="M6956 5542 c-3 -5 1 -9 9 -9 8 0 12 4 9 9 -3 4 -7 8 -9 8 -2 0 -6 -4
-9 -8z"/>
<path d="M6181 5524 c0 -11 3 -14 6 -6 3 7 2 16 -1 19 -3 4 -6 -2 -5 -13z"/>
<path d="M6213 5525 c0 -7 6 -11 14 -8 7 3 13 6 13 8 0 2 -6 5 -13 8 -8 3 -14
-1 -14 -8z"/>
<path d="M3626 5521 c-3 -4 6 -7 19 -7 14 0 22 2 19 5 -8 8 -34 10 -38 2z"/>
<path d="M6074 5506 c3 -16 8 -31 11 -35 3 -3 4 7 1 23 -3 16 -8 31 -11 35 -3
3 -4 -7 -1 -23z"/>
<path d="M6116 5518 c3 -4 11 -5 19 -1 21 7 19 12 -4 10 -11 0 -18 -5 -15 -9z"/>
<path d="M6454 5518 c-3 -5 -2 -8 3 -7 20 4 27 -2 13 -12 -12 -8 -12 -10 -1
-7 19 5 23 35 4 35 -7 0 -16 -4 -19 -9z"/>
<path d="M6550 5520 c0 -5 5 -10 10 -10 6 0 10 5 10 10 0 6 -4 10 -10 10 -5 0
-10 -4 -10 -10z"/>
<path d="M6634 5505 c0 -15 5 -21 14 -18 11 5 11 7 0 14 -13 8 -3 13 17 9 6
-1 6 2 2 6 -16 16 -33 11 -33 -11z"/>
<path d="M6747 5511 c-3 -13 0 -18 7 -15 7 3 13 11 13 19 0 22 -14 18 -20 -4z"/>
<path d="M6029 5492 c5 -9 16 -17 25 -18 9 -1 14 2 10 7 -3 5 -10 6 -16 3 -7
-5 -9 -2 -6 8 4 8 0 15 -8 15 -9 0 -10 -5 -5 -15z"/>
<path d="M6147 5493 c3 -7 6 -13 8 -13 2 0 5 6 8 13 3 8 -1 14 -8 14 -7 0 -11
-6 -8 -14z"/>
<path d="M3637 5487 c2 -4 0 -14 -6 -21 -8 -9 -7 -13 4 -13 8 0 11 5 8 10 -4
6 0 8 8 5 9 -4 15 0 15 11 0 9 -8 17 -17 17 -10 0 -15 -4 -12 -9z"/>
<path d="M6337 5481 c-4 -17 -3 -21 5 -13 5 5 8 16 6 23 -3 8 -7 3 -11 -10z"/>
<path d="M5970 5482 c0 -5 7 -9 15 -9 8 0 12 4 9 9 -3 4 -9 8 -15 8 -5 0 -9
-4 -9 -8z"/>
<path d="M6190 5480 c0 -5 5 -10 10 -10 6 0 10 5 10 10 0 6 -4 10 -10 10 -5 0
-10 -4 -10 -10z"/>
<path d="M6358 5472 c-3 -11 0 -19 7 -19 7 0 10 8 7 19 -2 10 -6 18 -7 18 -1
0 -5 -8 -7 -18z"/>
<path d="M6690 5480 c0 -5 5 -10 10 -10 6 0 10 5 10 10 0 6 -4 10 -10 10 -5 0
-10 -4 -10 -10z"/>
<path d="M3564 5462 c-12 -7 -11 -39 2 -50 4 -4 4 0 2 8 -3 8 -1 23 4 33 10
19 8 20 -8 9z"/>
<path d="M5949 5464 c5 -3 7 -17 5 -32 -3 -19 -2 -23 5 -13 12 18 7 44 -8 47
-6 1 -7 0 -2 -2z"/>
<path d="M6146 5462 c-3 -5 1 -9 9 -9 8 0 12 4 9 9 -3 4 -7 8 -9 8 -2 0 -6 -4
-9 -8z"/>
<path d="M6227 5452 c4 -9 2 -13 -4 -9 -5 3 -10 0 -10 -8 0 -10 4 -12 12 -5 7
5 16 6 20 2 5 -4 5 -2 2 5 -4 6 -2 13 5 15 7 3 3 7 -9 10 -17 4 -20 2 -16 -10z"/>
<path d="M6310 5465 c0 -5 5 -17 10 -25 5 -8 10 -10 10 -5 0 6 -5 17 -10 25
-5 8 -10 11 -10 5z"/>
<path d="M6429 5464 c5 -3 7 -17 5 -32 -3 -19 -2 -23 5 -13 12 18 7 44 -8 47
-6 1 -7 0 -2 -2z"/>
<path d="M6540 5452 c0 -6 -11 -9 -27 -6 -15 3 -25 3 -22 -1 12 -11 49 -14 55
-4 3 6 3 13 0 16 -3 4 -6 1 -6 -5z"/>
<path d="M6574 5448 c3 -14 56 -20 56 -6 0 4 -11 6 -24 4 -14 -2 -27 0 -30 5
-2 5 -3 4 -2 -3z"/>
<path d="M3673 5431 c0 -11 5 -18 9 -15 4 3 5 11 1 19 -7 21 -12 19 -10 -4z"/>
<path d="M6010 5445 c0 -7 30 -13 34 -7 3 4 -4 9 -15 9 -10 1 -19 0 -19 -2z"/>
<path d="M6094 5439 c-3 -6 -3 -13 0 -16 3 -4 6 -1 6 5 0 6 11 9 27 6 15 -3
25 -3 22 1 -12 11 -49 14 -55 4z"/>
<path d="M5996 5403 c0 -12 4 -26 9 -30 4 -5 4 -2 0 6 -6 10 -4 13 7 9 8 -4
15 0 15 8 0 7 -5 10 -10 7 -6 -4 -8 0 -5 9 4 8 1 15 -6 15 -6 0 -11 -11 -10
-24z"/>
<path d="M6276 5421 c-3 -5 1 -14 8 -20 10 -9 16 -9 21 -1 4 6 4 14 1 17 -3 4
-6 1 -6 -6 0 -7 -5 -9 -10 -6 -6 4 -8 11 -5 16 4 5 4 9 1 9 -3 0 -7 -4 -10 -9z"/>
<path d="M6477 5417 c4 -6 0 -8 -9 -5 -8 4 -15 0 -15 -7 0 -10 5 -11 18 -4 24
12 31 26 14 26 -8 0 -11 -5 -8 -10z"/>
<path d="M5973 5405 c0 -8 4 -12 9 -9 5 3 6 10 3 15 -9 13 -12 11 -12 -6z"/>
<path d="M335 5400 c3 -5 8 -10 11 -10 2 0 4 5 4 10 0 6 -5 10 -11 10 -5 0 -7
-4 -4 -10z"/>
<path d="M395 5400 c-3 -5 -1 -10 4 -10 6 0 11 5 11 10 0 6 -2 10 -4 10 -3 0
-8 -4 -11 -10z"/>
<path d="M5910 5400 c0 -5 5 -10 11 -10 5 0 7 5 4 10 -3 6 -8 10 -11 10 -2 0
-4 -4 -4 -10z"/>
<path d="M6320 5392 c-18 -14 -19 -19 -7 -19 9 0 13 5 10 10 -4 6 0 8 9 5 9
-4 15 0 15 8 0 18 0 18 -27 -4z"/>
<path d="M6497 5396 c-4 -11 -1 -13 10 -9 12 5 14 3 8 -7 -5 -9 -4 -11 4 -6 9
6 9 11 0 22 -14 17 -16 17 -22 0z"/>
<path d="M6553 5395 c0 -8 4 -12 9 -9 4 3 8 9 8 15 0 5 -4 9 -8 9 -5 0 -9 -7
-9 -15z"/>
<path d="M467 5387 c-3 -8 1 -14 8 -14 7 0 11 6 8 14 -3 7 -6 13 -8 13 -2 0
-5 -6 -8 -13z"/>
<path d="M5840 5391 c0 -6 4 -13 10 -16 6 -3 7 1 4 9 -7 18 -14 21 -14 7z"/>
<path d="M519 5380 c-4 -34 -3 -44 9 -46 7 -1 8 0 3 2 -5 3 -7 16 -5 30 2 13
2 24 -1 24 -3 0 -6 -4 -6 -10z"/>
<path d="M3547 5379 c7 -7 15 -10 18 -7 3 3 -2 9 -12 12 -14 6 -15 5 -6 -5z"/>
<path d="M6359 5380 c-4 -34 -3 -44 9 -46 7 -1 8 0 3 2 -5 3 -7 16 -5 30 2 13
2 24 -1 24 -3 0 -6 -4 -6 -10z"/>
<path d="M656 5366 c3 -7 11 -13 19 -13 22 0 18 14 -4 20 -13 3 -18 0 -15 -7z"/>
<path d="M6091 5371 c-8 -5 -16 -17 -17 -25 -1 -9 2 -14 7 -10 5 3 6 10 3 16
-5 7 -2 9 8 6 9 -4 15 0 15 8 0 8 -1 14 -1 14 -1 0 -7 -4 -15 -9z"/>
<path d="M6133 5365 c0 -7 8 -10 19 -7 10 2 18 6 18 7 0 1 -8 5 -18 7 -11 3
-19 0 -19 -7z"/>
<path d="M376 5357 c3 -10 9 -15 12 -12 3 3 0 11 -7 18 -10 9 -11 8 -5 -6z"/>
<path d="M414 5358 c-3 -5 -3 -12 0 -15 3 -4 6 -1 6 5 0 6 10 9 21 7 12 -3 19
-1 15 2 -11 11 -35 12 -42 1z"/>
<path d="M630 5361 c0 -6 4 -13 10 -16 6 -3 7 1 4 9 -7 18 -14 21 -14 7z"/>
<path d="M3628 5352 c-4 -12 1 -18 13 -18 12 0 15 4 9 12 -6 6 -7 14 -3 17 3
4 2 7 -4 7 -6 0 -13 -8 -15 -18z"/>
<path d="M5860 5360 c-12 -7 -10 -9 7 -7 12 0 19 5 17 9 -6 10 -6 10 -24 -2z"/>
<path d="M5936 5354 c-3 -7 2 -10 15 -7 22 6 26 20 4 20 -8 0 -16 -6 -19 -13z"/>
<path d="M6254 5359 c-3 -6 -3 -13 0 -16 3 -4 6 -1 6 5 0 6 11 9 27 6 15 -3
25 -3 22 1 -12 11 -49 14 -55 4z"/>
<path d="M6470 5359 c0 -5 5 -7 10 -4 6 3 10 8 10 11 0 2 -4 4 -10 4 -5 0 -10
-5 -10 -11z"/>
<path d="M6393 5345 c0 -8 4 -12 9 -9 5 3 6 10 3 15 -9 13 -12 11 -12 -6z"/>
<path d="M591 5334 c6 -7 8 -18 5 -23 -4 -5 -2 -13 4 -16 6 -4 10 -3 9 2 -3
20 2 27 11 13 7 -12 9 -10 8 7 -2 14 -7 19 -17 15 -8 -3 -12 -1 -8 5 3 5 0 10
-8 10 -11 0 -12 -4 -4 -13z"/>
<path d="M6157 5333 c3 -7 6 -13 8 -13 2 0 5 6 8 13 3 8 -1 14 -8 14 -7 0 -11
-6 -8 -14z"/>
<path d="M6428 5343 c7 -3 16 -2 19 1 4 3 -2 6 -13 5 -11 0 -14 -3 -6 -6z"/>
<path d="M712 5335 c4 -4 3 -17 -3 -28 -9 -15 -8 -18 2 -12 8 6 11 4 7 -7 -4
-8 0 -15 7 -15 10 0 11 5 4 19 -5 10 -7 23 -4 28 3 5 0 12 -7 16 -7 4 -10 4
-6 -1z"/>
<path d="M433 5315 c0 -8 4 -12 9 -9 5 3 6 10 3 15 -9 13 -12 11 -12 -6z"/>
<path d="M3670 5324 c0 -20 27 -37 36 -23 4 7 3 9 -4 5 -6 -3 -15 2 -21 11 -6
10 -11 13 -11 7z"/>
<path d="M5875 5319 c-3 -4 2 -6 10 -5 21 3 28 13 10 13 -9 0 -18 -4 -20 -8z"/>
<path d="M6113 5315 c0 -8 4 -12 9 -9 4 3 8 9 8 15 0 5 -4 9 -8 9 -5 0 -9 -7
-9 -15z"/>
<path d="M6234 5306 c3 -16 8 -31 11 -35 3 -3 4 7 1 23 -3 16 -8 31 -11 35 -3
3 -4 -7 -1 -23z"/>
<path d="M6350 5310 c-9 -6 -10 -10 -3 -10 6 0 15 5 18 10 8 12 4 12 -15 0z"/>
<path d="M470 5299 c0 -15 18 -19 23 -6 3 8 -1 14 -9 14 -8 0 -14 -4 -14 -8z"/>
<path d="M3628 5288 c2 -10 9 -18 15 -18 6 0 7 3 4 7 -4 3 -3 11 3 17 6 8 3
12 -9 12 -12 0 -17 -6 -13 -18z"/>
<path d="M5830 5303 c5 -2 8 -9 5 -13 -3 -5 -1 -11 4 -14 5 -4 8 2 7 11 -2 9
-8 18 -15 19 -6 1 -7 0 -1 -3z"/>
<path d="M6005 5302 c-5 -4 -11 -12 -12 -19 -3 -13 22 -12 34 2 5 4 2 5 -6 0
-11 -6 -13 -4 -8 8 7 19 6 20 -8 9z"/>
<path d="M6079 5288 c-6 -13 -8 -20 -4 -16 5 4 13 3 20 -2 8 -7 12 -5 12 5 0
8 -5 11 -10 8 -6 -4 -8 0 -4 10 9 25 0 21 -14 -5z"/>
<path d="M6315 5301 c-3 -5 -2 -12 3 -15 5 -3 9 1 9 9 0 17 -3 19 -12 6z"/>
<path d="M5868 5293 c7 -3 16 -2 19 1 4 3 -2 6 -13 5 -11 0 -14 -3 -6 -6z"/>
<path d="M501 5274 c0 -11 3 -14 6 -6 3 7 2 16 -1 19 -3 4 -6 -2 -5 -13z"/>
<path d="M555 5281 c-6 -11 13 -26 22 -17 4 3 1 6 -6 6 -7 0 -9 5 -6 10 3 6 4
10 1 10 -3 0 -7 -4 -11 -9z"/>
<path d="M5910 5282 c0 -5 7 -9 15 -9 8 0 12 4 9 9 -3 4 -9 8 -15 8 -5 0 -9
-4 -9 -8z"/>
<path d="M6190 5279 c0 -3 9 -9 19 -12 13 -3 18 0 15 7 -5 13 -34 18 -34 5z"/>
<path d="M3696 5267 c3 -10 9 -15 12 -12 3 3 0 11 -7 18 -10 9 -11 8 -5 -6z"/>
<path d="M5759 5263 c-1 -5 -1 -12 0 -17 1 -5 -4 -6 -12 -3 -7 3 -14 -1 -14
-8 0 -8 7 -11 15 -7 11 4 13 1 7 -8 -5 -9 -4 -11 4 -6 6 4 8 12 5 18 -5 7 -2
9 8 6 8 -4 15 -1 15 7 0 8 -7 11 -15 7 -10 -3 -13 -1 -8 6 4 7 5 12 2 12 -3 0
-7 -3 -7 -7z"/>
<path d="M5867 5253 c3 -7 6 -13 8 -13 2 0 5 6 8 13 3 8 -1 14 -8 14 -7 0 -11
-6 -8 -14z"/>
<path d="M5956 5258 c5 -7 2 -9 -9 -5 -11 4 -14 2 -10 -9 4 -11 9 -12 19 -3
12 10 11 29 -2 29 -3 0 -2 -5 2 -12z"/>
<path d="M6278 5263 c7 -3 16 -2 19 1 4 3 -2 6 -13 5 -11 0 -14 -3 -6 -6z"/>
<path d="M5895 5249 c-4 -6 -5 -12 -2 -15 2 -3 7 2 10 11 7 17 1 20 -8 4z"/>
<path d="M6257 5249 c7 -7 15 -10 18 -7 3 3 -2 9 -12 12 -14 6 -15 5 -6 -5z"/>
<path d="M3560 5236 c0 -8 4 -17 9 -20 5 -4 7 3 4 14 -6 23 -13 26 -13 6z"/>
<path d="M3654 5239 c-3 -6 -3 -13 0 -16 3 -4 6 -1 6 5 0 6 7 9 15 6 8 -4 15
-4 15 -1 0 11 -30 16 -36 6z"/>
<path d="M5840 5240 c-9 -6 -10 -10 -3 -10 6 0 15 5 18 10 8 12 4 12 -15 0z"/>
<path d="M6114 5234 c1 -8 6 -17 11 -21 4 -5 5 -2 0 6 -6 11 -4 13 8 8 10 -4
14 -2 11 7 -6 17 -32 16 -30 0z"/>
<path d="M5640 5231 c0 -6 4 -13 10 -16 6 -3 7 1 4 9 -7 18 -14 21 -14 7z"/>
<path d="M5912 5227 c-8 -10 -6 -13 7 -13 11 0 17 6 14 13 -3 7 -6 13 -8 13
-1 0 -7 -6 -13 -13z"/>
<path d="M6231 5227 c-8 -10 -7 -14 2 -14 8 0 14 6 14 14 0 7 -1 13 -2 13 -2
0 -8 -6 -14 -13z"/>
<path d="M5815 5210 c-4 -6 -11 -8 -16 -5 -5 4 -9 2 -9 -3 0 -5 8 -12 18 -14
12 -4 18 1 18 13 0 22 -2 23 -11 9z"/>
<path d="M6014 5199 c0 -12 4 -15 12 -9 6 6 14 7 17 3 4 -3 7 -2 7 4 0 6 -8
13 -18 15 -12 4 -18 -1 -18 -13z"/>
<path d="M3595 5191 c1 -8 7 -16 14 -17 7 -2 7 0 1 3 -7 3 -8 9 -1 17 8 9 7
13 -3 13 -8 0 -13 -7 -11 -16z"/>
<path d="M5856 5194 c-4 -11 -1 -12 12 -6 9 5 24 7 32 4 8 -2 12 -2 9 2 -13
14 -48 14 -53 0z"/>
<path d="M3565 5179 c-4 -6 -5 -12 -2 -15 2 -3 7 2 10 11 7 17 1 20 -8 4z"/>
<path d="M5667 5174 c2 -7 11 -10 19 -7 19 7 18 10 -5 16 -13 3 -18 1 -14 -9z"/>
<path d="M6079 5183 c-1 -5 -1 -12 0 -17 1 -5 -4 -6 -12 -3 -7 3 -14 -1 -14
-8 0 -10 5 -11 19 -4 10 6 16 14 13 19 -3 4 1 11 7 13 10 4 10 6 1 6 -7 1 -14
-2 -14 -6z"/>
<path d="M3681 5156 c-9 -10 -8 -15 3 -19 11 -4 13 -1 9 10 -5 12 -3 14 7 8 9
-5 11 -4 6 3 -9 15 -11 15 -25 -2z"/>
<path d="M5966 5158 c3 -5 10 -6 15 -3 13 9 11 12 -6 12 -8 0 -12 -4 -9 -9z"/>
<path d="M5747 5133 c5 -12 3 -14 -7 -8 -8 5 -11 4 -6 -3 4 -6 13 -9 22 -5 11
4 12 9 3 19 -15 19 -20 18 -12 -3z"/>
<path d="M5614 5121 c0 -12 6 -17 18 -13 10 2 18 9 18 15 0 6 -3 7 -7 4 -3 -4
-11 -3 -17 3 -8 6 -12 3 -12 -9z"/>
<path d="M5855 5129 c-4 -6 -13 -8 -21 -5 -7 3 -16 0 -20 -6 -5 -7 -2 -8 6 -3
9 6 12 4 8 -6 -4 -10 1 -15 12 -15 11 0 16 5 12 15 -3 8 -1 12 5 8 5 -3 10 0
10 8 0 18 -3 19 -12 4z"/>
<path d="M5926 5131 c-19 -7 -19 -8 0 -13 13 -3 21 0 21 8 0 8 -1 14 -1 13 -1
0 -10 -4 -20 -8z"/>
<path d="M5973 5125 c0 -8 7 -11 16 -7 13 5 14 3 4 -9 -10 -12 -8 -15 10 -16
12 0 16 1 9 4 -6 3 -10 9 -7 13 3 5 -3 13 -13 19 -14 7 -19 6 -19 -4z"/>
<path d="M3596 5102 c-2 -4 -1 -14 3 -20 6 -10 11 -9 21 3 11 13 10 14 -5 9
-13 -5 -16 -4 -11 4 4 7 5 12 2 12 -3 0 -7 -4 -10 -8z"/>
<path d="M3707 5090 c3 -11 9 -22 13 -25 5 -3 6 4 3 15 -3 11 -9 22 -13 25 -5
3 -6 -4 -3 -15z"/>
<path d="M5548 5088 c2 -10 6 -18 7 -18 1 0 5 8 7 18 3 11 0 19 -7 19 -7 0
-10 -8 -7 -19z"/>
<path d="M5515 5091 c-3 -5 -2 -12 3 -15 5 -3 9 1 9 9 0 17 -3 19 -12 6z"/>
<path d="M5701 5084 c0 -11 3 -14 6 -6 3 7 2 16 -1 19 -3 4 -6 -2 -5 -13z"/>
<path d="M5874 5080 c0 -13 4 -16 10 -10 7 7 7 13 0 20 -6 6 -10 3 -10 -10z"/>
<path d="M3636 5082 c-3 -5 1 -9 9 -9 8 0 12 4 9 9 -3 4 -7 8 -9 8 -2 0 -6 -4
-9 -8z"/>
<path d="M5770 5078 c0 -6 3 -8 7 -5 3 4 13 1 22 -6 14 -11 14 -10 2 6 -15 20
-31 22 -31 5z"/>
<path d="M5930 5078 c0 -11 12 -10 30 2 12 7 10 9 -8 7 -12 0 -22 -5 -22 -9z"/>
<path d="M5499 5068 c-8 -27 -5 -36 9 -30 15 5 16 4 2 -14 -14 -18 -14 -18 2
-5 10 7 16 17 13 21 -3 5 1 11 7 14 7 3 2 3 -11 0 -16 -4 -21 -3 -17 5 4 6 5
11 2 11 -3 0 -6 -1 -7 -2z"/>
<path d="M5828 5051 c3 -8 1 -12 -5 -8 -5 3 -10 0 -10 -8 0 -11 4 -12 13 -4 7
6 18 8 23 5 5 -4 13 -1 17 5 5 8 3 9 -6 4 -9 -6 -12 -4 -8 6 4 10 -1 15 -12
15 -11 0 -16 -5 -12 -15z"/>
<path d="M5988 5052 c4 -11 1 -13 -8 -7 -9 5 -11 4 -6 -3 10 -16 14 -15 25 6
7 14 6 19 -4 19 -7 0 -11 -7 -7 -15z"/>
<path d="M6028 5063 c6 -2 18 -2 25 0 6 3 1 5 -13 5 -14 0 -19 -2 -12 -5z"/>
<path d="M3590 5050 c-12 -8 -12 -10 -1 -10 11 0 11 -3 0 -17 -11 -15 -11 -16
1 -6 8 7 15 20 16 28 3 18 3 17 -16 5z"/>
<path d="M5616 5046 c3 -7 11 -13 19 -13 22 0 18 14 -4 20 -13 3 -18 0 -15 -7z"/>
<path d="M3670 5041 c0 -6 4 -13 10 -16 6 -3 7 1 4 9 -7 18 -14 21 -14 7z"/>
<path d="M5734 5038 c-5 -7 -2 -8 6 -3 10 6 12 4 6 -10 -5 -15 -4 -16 9 -5 19
15 19 16 0 23 -8 4 -17 1 -21 -5z"/>
<path d="M3631 5014 c6 -7 8 -18 5 -23 -4 -5 -2 -13 4 -16 6 -4 10 -3 9 2 -3
20 2 27 11 13 7 -12 9 -10 8 7 -2 14 -7 19 -17 15 -8 -3 -12 -1 -8 5 3 5 0 10
-8 10 -11 0 -12 -4 -4 -13z"/>
<path d="M5559 5023 c-1 -5 -1 -12 0 -17 1 -4 -3 -14 -8 -20 -8 -9 -7 -13 4
-13 8 0 11 5 8 10 -4 6 0 8 8 5 10 -4 15 1 17 15 1 17 -1 19 -8 7 -9 -14 -14
-7 -11 13 0 4 -1 7 -4 7 -3 0 -6 -3 -6 -7z"/>
<path d="M6000 5020 c-8 -5 -10 -10 -5 -10 6 0 17 5 25 10 8 5 11 10 5 10 -5
0 -17 -5 -25 -10z"/>
<path d="M5717 5013 c-10 -9 -9 -23 1 -23 5 0 9 7 9 15 0 17 -1 18 -10 8z"/>
<path d="M3721 4992 c-7 -13 -6 -19 2 -19 7 0 13 9 13 19 0 10 -1 18 -3 18 -1
0 -7 -8 -12 -18z"/>
<path d="M5444 4998 c-3 -4 5 -5 17 -3 30 6 36 14 9 12 -12 -1 -24 -5 -26 -9z"/>
<path d="M5667 4987 c-3 -8 1 -14 8 -14 7 0 11 6 8 14 -3 7 -6 13 -8 13 -2 0
-5 -6 -8 -13z"/>
<path d="M5484 4982 c-12 -7 -11 -39 2 -50 4 -4 4 0 2 8 -3 8 -1 23 4 33 10
19 8 20 -8 9z"/>
<path d="M5956 4973 c-6 -14 -5 -15 5 -6 7 7 10 15 7 18 -3 3 -9 -2 -12 -12z"/>
<path d="M5595 4969 c-4 -6 -5 -12 -2 -15 2 -3 7 2 10 11 7 17 1 20 -8 4z"/>
<path d="M5808 4973 c-22 -5 -24 -20 -3 -20 8 0 16 6 19 14 3 7 4 12 3 12 -1
-1 -10 -3 -19 -6z"/>
<path d="M5854 4959 c0 -12 4 -15 12 -9 6 6 14 7 17 3 4 -3 7 -2 7 4 0 6 -8
13 -18 15 -12 4 -18 -1 -18 -13z"/>
<path d="M3676 4954 c-8 -20 -8 -24 2 -24 4 0 8 9 9 20 2 24 -3 26 -11 4z"/>
<path d="M5414 4958 c-5 -7 -3 -8 6 -3 10 6 12 4 7 -8 -4 -11 -2 -14 9 -10 11
4 12 9 3 19 -14 17 -16 17 -25 2z"/>
<path d="M5686 4961 c-19 -7 -19 -8 0 -13 13 -3 21 0 21 8 0 8 -1 14 -1 13 -1
0 -10 -4 -20 -8z"/>
<path d="M5733 4955 c0 -7 6 -11 14 -8 7 3 13 6 13 8 0 2 -6 5 -13 8 -8 3 -14
-1 -14 -8z"/>
<path d="M3598 4943 c7 -3 16 -2 19 1 4 3 -2 6 -13 5 -11 0 -14 -3 -6 -6z"/>
<path d="M3718 4943 c7 -3 16 -2 19 1 4 3 -2 6 -13 5 -11 0 -14 -3 -6 -6z"/>
<path d="M5395 4930 c-4 -6 -10 -8 -14 -6 -4 3 -13 0 -21 -5 -11 -7 -10 -8 8
-6 20 3 56 27 40 27 -4 0 -10 -5 -13 -10z"/>
<path d="M5446 4921 c-15 -16 -15 -19 -2 -24 11 -4 13 -1 9 10 -4 10 -2 14 4
10 5 -3 10 0 10 8 0 19 0 19 -21 -4z"/>
<path d="M5606 4923 c-6 -14 -5 -15 5 -6 7 7 10 15 7 18 -3 3 -9 -2 -12 -12z"/>
<path d="M3693 4918 c-4 -7 -1 -8 7 -3 9 6 12 4 8 -7 -4 -8 -1 -15 7 -15 8 0
11 7 7 15 -4 11 -1 13 9 7 8 -5 11 -4 6 0 -12 13 -36 15 -44 3z"/>
<path d="M5516 4922 c-3 -5 1 -9 9 -9 8 0 12 4 9 9 -3 4 -7 8 -9 8 -2 0 -6 -4
-9 -8z"/>
<path d="M5696 4922 c-3 -5 1 -9 9 -9 8 0 12 4 9 9 -3 4 -7 8 -9 8 -2 0 -6 -4
-9 -8z"/>
<path d="M5772 4921 c-11 -7 -11 -9 0 -14 9 -3 15 1 15 9 0 8 -1 14 -1 14 -1
0 -7 -4 -14 -9z"/>
<path d="M5830 4926 c0 -2 7 -7 16 -10 8 -3 12 -2 9 4 -6 10 -25 14 -25 6z"/>
<path d="M5890 4921 c0 -6 4 -13 10 -16 6 -3 7 1 4 9 -7 18 -14 21 -14 7z"/>
<path d="M5866 4903 c-6 -14 -5 -15 5 -6 7 7 10 15 7 18 -3 3 -9 -2 -12 -12z"/>
<path d="M5404 4902 c-12 -7 -11 -39 2 -50 4 -4 4 0 2 8 -3 8 -1 23 4 33 10
19 8 20 -8 9z"/>
<path d="M5534 4879 c0 -12 4 -15 12 -9 6 6 14 7 17 3 4 -3 7 -2 7 4 0 6 -8
13 -18 15 -12 4 -18 -1 -18 -13z"/>
<path d="M3636 4878 c3 -4 11 -5 19 -1 21 7 19 12 -4 10 -11 0 -18 -5 -15 -9z"/>
<path d="M5460 4880 c-12 -7 -10 -9 7 -7 12 0 19 5 17 9 -6 10 -6 10 -24 -2z"/>
<path d="M5833 4865 c0 -8 4 -12 9 -9 5 3 6 10 3 15 -9 13 -12 11 -12 -6z"/>
<path d="M3666 4856 c5 -12 4 -17 -3 -13 -5 3 -10 -1 -10 -9 0 -13 2 -13 16 0
12 13 13 18 2 28 -10 11 -11 9 -5 -6z"/>
<path d="M5639 4868 c0 -2 -2 -10 -4 -19 -3 -19 22 -21 29 -3 3 9 -1 11 -11 7
-11 -4 -14 -2 -9 5 4 7 5 12 2 12 -3 0 -6 -1 -7 -2z"/>
<path d="M5747 4853 c5 -12 3 -14 -7 -8 -8 5 -11 4 -6 -3 4 -6 13 -9 22 -5 11
4 12 9 3 19 -15 19 -20 18 -12 -3z"/>
<path d="M3713 4845 c0 -8 4 -12 8 -9 4 2 9 -1 11 -8 3 -7 7 -4 12 7 4 11 4
16 0 12 -4 -4 -12 -2 -19 3 -8 7 -12 5 -12 -5z"/>
<path d="M5292 4851 c-11 -7 -11 -9 0 -14 9 -3 15 1 15 9 0 8 -1 14 -1 14 -1
0 -7 -4 -14 -9z"/>
<path d="M5343 4842 c9 -10 15 -21 12 -24 -3 -3 3 -11 12 -19 16 -12 17 -12 6
1 -11 15 -13 20 -13 39 0 5 -8 12 -17 15 -16 6 -16 6 0 -12z"/>
<path d="M5255 4840 c3 -5 8 -10 11 -10 2 0 4 5 4 10 0 6 -5 10 -11 10 -5 0
-7 -4 -4 -10z"/>
<path d="M5486 4838 c3 -5 10 -6 15 -3 13 9 11 12 -6 12 -8 0 -12 -4 -9 -9z"/>
<path d="M5573 4835 c0 -7 7 -11 15 -7 11 4 13 1 7 -8 -5 -9 -4 -11 3 -6 16
10 15 14 -6 25 -14 7 -19 6 -19 -4z"/>
<path d="M5434 4815 c1 -13 6 -28 10 -32 5 -5 6 -2 1 6 -6 10 -4 13 7 9 8 -4
15 -1 15 7 0 8 -7 11 -15 7 -10 -3 -13 -1 -8 6 3 6 2 13 -2 16 -5 3 -8 -6 -8
-19z"/>
<path d="M3632 4820 c3 -8 1 -23 -4 -32 -6 -13 -5 -16 6 -12 14 5 14 40 0 53
-4 3 -4 -1 -2 -9z"/>
<path d="M5762 4821 c-10 -6 -10 -10 2 -20 11 -9 16 -9 22 0 5 8 3 9 -6 4 -10
-6 -12 -4 -7 8 7 19 7 20 -11 8z"/>
<path d="M5798 4823 c7 -3 16 -2 19 1 4 3 -2 6 -13 5 -11 0 -14 -3 -6 -6z"/>
<path d="M3690 4805 c-10 -13 -11 -18 -1 -28 10 -9 11 -8 5 7 -5 12 -4 17 3
13 5 -3 10 0 10 8 0 19 -2 19 -17 0z"/>
<path d="M5493 4805 c0 -8 7 -11 16 -7 13 5 14 3 4 -9 -10 -12 -8 -15 10 -16
12 0 16 1 9 4 -6 3 -10 9 -7 13 3 5 -3 13 -13 19 -14 7 -19 6 -19 -4z"/>
<path d="M5610 4805 c-10 -13 -11 -18 -1 -28 10 -9 11 -8 5 7 -5 12 -4 17 3
13 5 -3 10 0 10 8 0 19 -2 19 -17 0z"/>
<path d="M5298 4798 c-10 -7 -9 -8 2 -5 8 2 23 0 32 -5 13 -6 16 -5 12 5 -6
16 -27 18 -46 5z"/>
<path d="M5707 4791 c-3 -13 0 -18 7 -15 7 3 13 11 13 19 0 22 -14 18 -20 -4z"/>
<path d="M5397 4777 c4 -6 0 -8 -8 -5 -10 4 -15 -1 -15 -12 0 -11 5 -16 15
-12 10 4 12 1 6 -8 -5 -9 -4 -11 4 -6 6 4 9 12 5 17 -3 5 -1 16 5 23 8 9 7 13
-4 13 -8 0 -11 -5 -8 -10z"/>
<path d="M5633 4765 c0 -8 4 -15 9 -15 4 0 8 4 8 9 0 6 -4 12 -8 15 -5 3 -9
-1 -9 -9z"/>
<path d="M3670 4761 c0 -10 19 -25 25 -20 1 2 -3 10 -11 17 -8 7 -14 8 -14 3z"/>
<path d="M3720 4760 c18 -12 30 -13 30 -2 0 4 -10 9 -22 9 -18 2 -20 0 -8 -7z"/>
<path d="M5195 4762 c3 -3 0 -10 -5 -17 -7 -8 -5 -12 5 -12 8 0 11 5 8 10 -4
6 0 8 10 4 10 -4 14 -2 11 7 -3 7 -11 13 -19 13 -8 0 -13 -3 -10 -5z"/>
<path d="M5450 4758 c0 -11 12 -10 30 2 12 7 10 9 -8 7 -12 0 -22 -5 -22 -9z"/>
<path d="M5560 4760 c-12 -7 -10 -9 8 -7 12 0 22 5 22 9 0 11 -12 10 -30 -2z"/>
<path d="M5237 4735 c-4 -8 -3 -16 1 -19 4 -3 9 4 9 15 2 23 -3 25 -10 4z"/>
<path d="M5510 4740 c14 -9 7 -14 -13 -11 -5 1 -6 -3 -2 -9 3 -6 11 -8 16 -4
5 3 16 1 23 -5 9 -8 13 -7 13 4 0 8 -5 11 -10 8 -6 -4 -8 0 -5 8 4 10 -1 15
-15 17 -17 1 -19 -1 -7 -8z"/>
<path d="M5600 4740 c-9 -6 -10 -10 -3 -10 6 0 15 5 18 10 8 12 4 12 -15 0z"/>
<path d="M5706 4737 c3 -10 9 -15 12 -12 3 3 0 11 -7 18 -10 9 -11 8 -5 -6z"/>
<path d="M5308 4733 c7 -3 16 -2 19 1 4 3 -2 6 -13 5 -11 0 -14 -3 -6 -6z"/>
<path d="M3633 4709 c-2 -23 3 -25 10 -4 4 8 3 16 -1 19 -4 3 -9 -4 -9 -15z"/>
<path d="M3686 4718 c3 -5 10 -6 15 -3 13 9 11 12 -6 12 -8 0 -12 -4 -9 -9z"/>
<path d="M5136 4714 c-5 -13 -4 -14 7 -6 8 7 17 9 20 5 4 -3 7 -1 7 5 0 18
-27 14 -34 -4z"/>
<path d="M5350 4725 c0 -5 5 -17 10 -25 5 -8 10 -10 10 -5 0 6 -5 17 -10 25
-5 8 -10 11 -10 5z"/>
<path d="M5434 4722 c3 -5 0 -13 -6 -15 -9 -4 -10 -6 -1 -6 17 -1 25 16 12 25
-7 4 -9 3 -5 -4z"/>
<path d="M5606 4721 c-19 -7 -19 -8 0 -13 13 -3 21 0 21 8 0 8 -1 14 -1 13 -1
0 -10 -4 -20 -8z"/>
<path d="M5651 4714 c0 -11 3 -14 6 -6 3 7 2 16 -1 19 -3 4 -6 -2 -5 -13z"/>
<path d="M3676 4698 c5 -7 2 -9 -8 -6 -8 4 -15 0 -15 -7 0 -10 5 -11 19 -4 16
9 17 29 2 29 -3 0 -2 -5 2 -12z"/>
<path d="M5308 4688 c2 -10 6 -18 7 -18 1 0 5 8 7 18 3 11 0 19 -7 19 -7 0
-10 -8 -7 -19z"/>
<path d="M3730 4689 c0 -5 -6 -7 -12 -3 -7 4 -10 4 -6 -1 4 -4 3 -13 -2 -20
-7 -8 -5 -12 5 -12 8 0 11 5 8 10 -4 6 0 8 9 4 12 -4 14 -1 11 14 -6 21 -13
26 -13 8z"/>
<path d="M5193 4685 c0 -8 4 -12 9 -9 5 3 6 10 3 15 -9 13 -12 11 -12 -6z"/>
<path d="M5339 4698 c-8 -27 -5 -36 9 -30 10 4 12 7 4 10 -7 2 -10 8 -6 13 3
5 3 9 0 9 -3 0 -6 -1 -7 -2z"/>
<path d="M5227 4679 c7 -7 15 -10 18 -7 3 3 -2 9 -12 12 -14 6 -15 5 -6 -5z"/>
<path d="M5110 4660 c0 -5 5 -10 10 -10 6 0 10 5 10 10 0 6 -4 10 -10 10 -5 0
-10 -4 -10 -10z"/>
<path d="M5195 4660 c-16 -7 -17 -9 -3 -9 9 -1 20 4 23 9 7 11 7 11 -20 0z"/>
<path d="M5488 4653 c-10 -2 -18 -9 -18 -15 0 -6 3 -8 7 -5 3 4 11 3 17 -3 8
-6 12 -3 12 11 0 10 0 18 -1 18 0 -1 -8 -3 -17 -6z"/>
<path d="M5534 4649 c3 -15 29 -20 47 -8 10 7 6 8 -13 5 -15 -2 -29 0 -32 5
-2 5 -3 4 -2 -2z"/>
<path d="M3614 4639 c-3 -6 -3 -13 0 -16 3 -4 6 -1 6 5 0 6 11 9 27 6 15 -3
25 -3 22 1 -12 11 -49 14 -55 4z"/>
<path d="M3753 4631 c0 -11 5 -18 9 -15 4 3 5 11 1 19 -7 21 -12 19 -10 -4z"/>
<path d="M5206 4641 c-19 -7 -19 -8 0 -13 13 -3 21 0 21 8 0 8 -1 14 -1 13 -1
0 -10 -4 -20 -8z"/>
<path d="M5251 4634 c0 -11 3 -14 6 -6 3 7 2 16 -1 19 -3 4 -6 -2 -5 -13z"/>
<path d="M5393 4643 c4 -3 3 -11 -3 -17 -6 -8 -3 -12 9 -12 12 0 17 6 13 18
-2 10 -9 18 -15 18 -6 0 -7 -3 -4 -7z"/>
<path d="M5079 4628 c-5 -18 -6 -38 -1 -34 7 8 12 36 6 36 -2 0 -4 -1 -5 -2z"/>
<path d="M5586 4618 c3 -5 10 -6 15 -3 13 9 11 12 -6 12 -8 0 -12 -4 -9 -9z"/>
<path d="M5125 4603 c-11 -24 -17 -58 -9 -51 3 3 6 12 8 20 1 7 5 19 10 26 4
7 6 15 3 18 -2 3 -8 -3 -12 -13z"/>
<path d="M5278 4613 c7 -3 16 -2 19 1 4 3 -2 6 -13 5 -11 0 -14 -3 -6 -6z"/>
<path d="M5431 4607 c-8 -10 -7 -14 2 -14 8 0 14 6 14 14 0 7 -1 13 -2 13 -2
0 -8 -6 -14 -13z"/>
<path d="M3700 4595 c-11 -13 -10 -14 5 -9 11 5 16 4 12 -3 -3 -5 0 -10 8 -10
12 0 12 3 3 16 -7 9 -13 17 -14 19 -1 1 -7 -4 -14 -13z"/>
<path d="M5510 4599 c0 -5 5 -7 10 -4 6 3 10 8 10 11 0 2 -4 4 -10 4 -5 0 -10
-5 -10 -11z"/>
<path d="M4155 4591 c-3 -5 -2 -12 3 -15 5 -3 9 1 9 9 0 17 -3 19 -12 6z"/>
<path d="M5191 4587 c-8 -10 -7 -14 4 -14 8 0 11 5 8 10 -4 6 1 8 11 4 10 -4
15 -3 11 3 -8 14 -20 12 -34 -3z"/>
<path d="M5020 4580 c8 -5 20 -10 25 -10 6 0 3 5 -5 10 -8 5 -19 10 -25 10 -5
0 -3 -5 5 -10z"/>
<path d="M5239 4580 c-4 -34 -3 -44 9 -46 7 -1 8 0 3 2 -5 3 -7 16 -5 30 2 13
2 24 -1 24 -3 0 -6 -4 -6 -10z"/>
<path d="M5348 4583 c10 -4 10 -8 0 -21 -7 -10 -9 -14 -4 -10 5 4 16 3 26 -2
12 -6 17 -5 17 5 0 8 -7 11 -16 7 -13 -5 -14 -3 -4 9 10 12 8 15 -10 16 -12 0
-16 -1 -9 -4z"/>
<path d="M3676 4567 c3 -10 9 -15 12 -12 3 3 0 11 -7 18 -10 9 -11 8 -5 -6z"/>
<path d="M5491 4570 c0 -8 4 -22 9 -30 12 -18 12 -2 0 25 -6 13 -9 15 -9 5z"/>
<path d="M3619 4559 c-10 -7 -6 -8 13 -5 15 2 29 0 32 -5 2 -5 3 -4 2 2 -3 15
-29 20 -47 8z"/>
<path d="M4995 4560 c-3 -5 -3 -10 2 -10 4 0 1 -5 -7 -11 -12 -8 -12 -10 -1
-7 8 2 15 12 17 21 3 19 -2 22 -11 7z"/>
<path d="M5134 4559 c-3 -6 -3 -13 0 -16 3 -4 6 -1 6 5 0 6 11 9 27 6 15 -3
25 -3 22 1 -12 11 -49 14 -55 4z"/>
<path d="M5274 4546 c1 -8 5 -18 8 -22 4 -3 5 1 4 10 -1 8 -5 18 -8 22 -4 3
-5 -1 -4 -10z"/>
<path d="M3750 4546 c0 -2 7 -7 16 -10 8 -3 12 -2 9 4 -6 10 -25 14 -25 6z"/>
<path d="M5071 4534 c6 -7 8 -18 5 -23 -4 -5 -1 -13 5 -17 8 -5 9 -3 4 6 -6 9
-4 12 6 8 10 -4 15 1 15 12 0 11 -5 16 -15 12 -8 -3 -12 -1 -8 5 3 5 0 10 -8
10 -11 0 -12 -4 -4 -13z"/>
<path d="M5199 4528 c-1 -2 -2 -15 -3 -29 -3 -26 13 -33 31 -15 4 4 4 7 -2 6
-21 -5 -29 1 -15 10 11 7 11 10 2 10 -7 0 -10 5 -7 10 3 6 4 10 1 10 -3 0 -6
-1 -7 -2z"/>
<path d="M4990 4494 c6 -6 7 -14 3 -17 -3 -4 -2 -7 4 -7 6 0 13 8 15 18 4 12
-1 18 -13 18 -12 0 -15 -4 -9 -12z"/>
<path d="M5466 4498 c3 -5 10 -6 15 -3 13 9 11 12 -6 12 -8 0 -12 -4 -9 -9z"/>
<path d="M3648 4493 c-10 -2 -18 -9 -18 -15 0 -6 3 -8 7 -5 3 4 11 3 17 -3 8
-6 12 -3 12 11 0 10 0 18 -1 18 0 -1 -8 -3 -17 -6z"/>
<path d="M3696 4486 c5 -14 40 -14 53 0 3 4 -1 4 -9 2 -8 -3 -23 -1 -32 4 -13
6 -16 5 -12 -6z"/>
<path d="M5335 4490 c-4 -6 -11 -8 -16 -5 -5 4 -9 2 -9 -3 0 -5 8 -12 18 -14
12 -4 18 1 18 13 0 22 -2 23 -11 9z"/>
<path d="M5374 4489 c3 -15 29 -20 47 -8 10 7 6 8 -13 5 -15 -2 -29 0 -32 5
-2 5 -3 4 -2 -2z"/>
<path d="M5116 4475 c-9 -26 -7 -32 5 -12 6 10 9 21 6 23 -2 3 -7 -2 -11 -11z"/>
<path d="M3752 4454 c10 -10 20 -16 22 -13 3 3 -5 11 -17 18 -21 13 -21 12 -5
-5z"/>
<path d="M4951 4448 c6 -10 14 -16 19 -13 4 3 11 0 13 -5 3 -6 4 -5 3 2 -2 7
-9 12 -16 10 -7 -2 -10 3 -7 11 3 7 -1 14 -8 14 -10 0 -11 -5 -4 -19z"/>
<path d="M5157 4457 c4 -6 0 -8 -10 -4 -10 4 -14 2 -11 -7 3 -7 11 -13 19 -13
8 0 13 3 10 5 -3 3 0 10 5 17 7 8 5 12 -5 12 -8 0 -11 -5 -8 -10z"/>
<path d="M5253 4443 c1 -18 4 -20 16 -10 12 10 14 9 9 -4 -4 -9 -1 -16 7 -16
10 0 11 5 5 17 -5 10 -6 21 -2 26 4 5 0 3 -10 -4 -13 -10 -17 -10 -21 0 -3 7
-4 3 -4 -9z"/>
<path d="M3665 4440 c-3 -6 1 -7 9 -4 18 7 21 14 7 14 -6 0 -13 -4 -16 -10z"/>
<path d="M5072 4445 c4 -5 3 -13 -2 -20 -7 -8 -5 -12 5 -12 8 0 11 5 8 10 -4
6 0 8 10 4 25 -9 21 0 -5 14 -13 6 -20 8 -16 4z"/>
<path d="M5354 4424 c7 -38 14 -40 12 -5 0 17 -4 31 -9 31 -4 0 -5 -12 -3 -26z"/>
<path d="M3695 4430 c-4 -6 1 -7 11 -3 10 4 15 2 11 -4 -3 -5 0 -10 8 -10 11
0 12 4 4 14 -14 15 -26 17 -34 3z"/>
<path d="M5234 4408 c2 -15 0 -29 -5 -32 -5 -2 -4 -3 2 -2 15 3 20 29 8 47 -7
10 -8 6 -5 -13z"/>
<path d="M3683 4398 c-9 -16 -16 -54 -7 -46 3 3 6 12 8 20 1 7 5 19 9 26 5 6
6 12 3 12 -3 0 -8 -6 -13 -12z"/>
<path d="M3753 4395 c0 -8 4 -15 9 -15 4 0 8 4 8 9 0 6 -4 12 -8 15 -5 3 -9
-1 -9 -9z"/>
<path d="M4915 4400 c-2 -3 5 -7 16 -7 10 -1 19 2 19 6 0 9 -29 10 -35 1z"/>
<path d="M5013 4397 c-4 -6 -1 -7 7 -2 10 6 12 4 7 -8 -4 -10 -2 -14 7 -11 7
3 13 11 13 18 0 15 -25 17 -34 3z"/>
<path d="M5106 4398 c3 -4 9 -8 15 -8 5 0 9 4 9 8 0 5 -7 9 -15 9 -8 0 -12 -4
-9 -9z"/>
<path d="M5305 4400 c-3 -5 3 -7 12 -6 10 2 22 -2 26 -8 6 -7 7 -6 5 3 -5 16
-35 24 -43 11z"/>
<path d="M5157 4377 c4 -6 0 -8 -8 -5 -10 4 -15 -1 -17 -15 -1 -17 1 -19 8 -7
9 14 14 7 11 -13 -1 -5 3 -6 9 -2 6 3 8 11 4 16 -3 5 -1 16 5 23 8 9 7 13 -4
13 -8 0 -11 -5 -8 -10z"/>
<path d="M4896 4358 c3 -5 10 -6 15 -3 13 9 11 12 -6 12 -8 0 -12 -4 -9 -9z"/>
<path d="M5270 4361 c0 -6 4 -13 10 -16 6 -3 7 1 4 9 -7 18 -14 21 -14 7z"/>
<path d="M4839 4358 c-6 -20 -6 -39 0 -42 4 -3 7 6 7 20 0 20 -4 32 -7 22z"/>
<path d="M5230 4334 c6 -6 7 -14 3 -17 -3 -4 -2 -7 4 -7 6 0 13 8 15 18 4 12
-1 18 -13 18 -12 0 -15 -4 -9 -12z"/>
<path d="M4884 4325 c-10 -8 -14 -15 -9 -15 6 0 3 -5 -5 -10 -12 -7 -10 -9 7
-7 18 1 20 4 10 16 -10 12 -9 14 4 9 10 -4 16 -1 16 8 0 17 1 17 -23 -1z"/>
<path d="M4933 4325 c0 -7 8 -10 19 -7 10 2 18 6 18 7 0 1 -8 5 -18 7 -11 3
-19 0 -19 -7z"/>
<path d="M5088 4333 c-22 -5 -24 -20 -3 -20 8 0 16 6 19 14 3 7 4 12 3 12 -1
-1 -10 -3 -19 -6z"/>
<path d="M5290 4330 c-9 -6 -10 -10 -3 -10 6 0 15 5 18 10 8 12 4 12 -15 0z"/>
<path d="M5037 4297 c4 -6 0 -8 -9 -5 -8 4 -15 0 -15 -7 0 -10 5 -11 18 -4 24
12 31 26 14 26 -8 0 -11 -5 -8 -10z"/>
<path d="M5115 4301 c3 -5 1 -12 -5 -16 -5 -3 -10 -11 -10 -18 0 -6 7 -2 15 9
17 23 19 34 4 34 -5 0 -8 -4 -4 -9z"/>
<path d="M4791 4271 c-9 -17 -8 -18 11 -13 13 3 17 7 10 10 -7 2 -10 8 -6 13
3 5 3 9 0 9 -3 0 -10 -9 -15 -19z"/>
<path d="M4905 4280 c-3 -6 1 -7 9 -4 18 7 21 14 7 14 -6 0 -13 -4 -16 -10z"/>
<path d="M5194 4282 c4 -3 14 -7 22 -8 9 -1 13 0 10 4 -4 3 -14 7 -22 8 -9 1
-13 0 -10 -4z"/>
<path d="M5255 4279 c-4 -6 -4 -13 -1 -16 3 -4 6 -1 6 6 0 7 5 9 12 5 7 -4 8
-3 4 4 -9 15 -13 15 -21 1z"/>
<path d="M3640 4271 c0 -6 4 -13 10 -16 6 -3 7 1 4 9 -7 18 -14 21 -14 7z"/>
<path d="M4925 4262 c-13 -9 -17 -32 -6 -32 5 0 11 9 14 20 6 22 6 22 -8 12z"/>
<path d="M4972 4251 c-11 -7 -11 -9 0 -14 9 -3 15 1 15 9 0 8 -1 14 -1 14 -1
0 -7 -4 -14 -9z"/>
<path d="M5013 4245 c0 -7 8 -10 19 -7 10 2 18 6 18 7 0 1 -8 5 -18 7 -11 3
-19 0 -19 -7z"/>
<path d="M5136 4246 c3 -7 11 -13 19 -13 22 0 18 14 -4 20 -13 3 -18 0 -15 -7z"/>
<path d="M4745 4220 c-3 -6 1 -7 9 -4 18 7 21 14 7 14 -6 0 -13 -4 -16 -10z"/>
<path d="M4786 4216 c6 -15 4 -17 -6 -11 -9 6 -11 4 -5 -4 5 -9 10 -10 18 -2
8 8 7 14 -2 24 -10 10 -11 8 -5 -7z"/>
<path d="M5023 4217 c-3 -6 -1 -7 5 -3 5 3 12 1 14 -6 3 -8 6 -7 10 3 7 17
-19 22 -29 6z"/>
<path d="M4854 4205 c1 -8 6 -18 11 -22 4 -4 5 -3 2 4 -4 6 -2 13 5 15 8 3 6
6 -4 10 -10 4 -15 2 -14 -7z"/>
<path d="M4828 4192 c-3 -11 0 -19 7 -19 7 0 10 8 7 19 -2 10 -6 18 -7 18 -1
0 -5 -8 -7 -18z"/>
<path d="M4993 4195 c0 -8 4 -12 9 -9 4 3 8 9 8 15 0 5 -4 9 -8 9 -5 0 -9 -7
-9 -15z"/>
<path d="M5110 4200 c0 -5 5 -10 10 -10 6 0 10 5 10 10 0 6 -4 10 -10 10 -5 0
-10 -4 -10 -10z"/>
<path d="M5188 4188 c-7 -17 15 -19 29 -3 4 4 3 5 -4 2 -6 -4 -13 -2 -15 5 -3
8 -6 6 -10 -4z"/>
<path d="M4955 4180 c-11 -5 -14 -9 -7 -9 7 -1 11 -5 8 -10 -7 -11 21 -8 31 4
5 4 2 5 -6 0 -11 -6 -13 -4 -8 8 3 10 5 17 4 16 -1 0 -11 -4 -22 -9z"/>
<path d="M4748 4152 c-4 -12 1 -18 13 -18 12 0 15 4 9 12 -6 6 -7 14 -3 17 3
4 2 7 -4 7 -6 0 -13 -8 -15 -18z"/>
<path d="M4870 4162 c0 -5 7 -9 15 -9 8 0 12 4 9 9 -3 4 -9 8 -15 8 -5 0 -9
-4 -9 -8z"/>
<path d="M5070 4159 c0 -3 9 -9 19 -12 13 -3 18 0 15 7 -5 13 -34 18 -34 5z"/>
<path d="M5157 4149 c7 -7 15 -10 18 -7 3 3 -2 9 -12 12 -14 6 -15 5 -6 -5z"/>
<path d="M4829 4132 c5 -9 16 -17 25 -18 9 -1 14 2 10 7 -3 5 -10 6 -16 3 -7
-5 -9 -2 -6 8 4 8 0 15 -8 15 -9 0 -10 -5 -5 -15z"/>
<path d="M4915 4141 c6 -11 4 -13 -8 -8 -23 9 -21 0 2 -13 15 -7 19 -7 17 5
-1 8 -6 18 -11 22 -4 5 -5 2 0 -6z"/>
<path d="M5015 4128 c1 -7 8 -12 15 -10 7 2 10 -3 7 -11 -3 -7 1 -14 8 -14 10
0 11 5 4 19 -6 10 -14 16 -19 13 -4 -3 -11 0 -13 5 -3 6 -4 5 -2 -2z"/>
<path d="M4676 4113 c-6 -14 -5 -15 5 -6 7 7 10 15 7 18 -3 3 -9 -2 -12 -12z"/>
<path d="M4747 4089 c6 -22 20 -26 20 -4 0 8 -6 16 -13 19 -7 3 -10 -2 -7 -15z"/>
<path d="M5110 4101 c0 -6 4 -12 8 -15 5 -3 9 1 9 9 0 8 -4 15 -9 15 -4 0 -8
-4 -8 -9z"/>
<path d="M4988 4072 c-4 -12 1 -18 13 -18 12 0 15 4 9 12 -6 6 -7 14 -3 17 3
4 2 7 -4 7 -6 0 -13 -8 -15 -18z"/>
<path d="M4798 4052 c3 -10 1 -13 -6 -8 -6 3 -14 1 -18 -5 -5 -8 -3 -9 6 -4 9
6 12 4 8 -7 -4 -8 -1 -15 7 -15 8 0 11 7 7 16 -5 13 -3 14 9 4 13 -10 16 -10
16 2 0 8 -5 11 -10 8 -6 -4 -8 0 -5 9 4 8 1 15 -7 15 -8 0 -11 -7 -7 -15z"/>
<path d="M4915 4061 c6 -11 4 -13 -8 -8 -10 4 -14 2 -11 -7 6 -17 32 -16 30 0
-1 8 -6 17 -11 21 -4 5 -5 2 0 -6z"/>
<path d="M4710 4040 c0 -5 5 -10 11 -10 5 0 7 5 4 10 -3 6 -8 10 -11 10 -2 0
-4 -4 -4 -10z"/>
<path d="M5030 4041 c0 -6 4 -12 8 -15 5 -3 9 1 9 9 0 8 -4 15 -9 15 -4 0 -8
-4 -8 -9z"/>
<path d="M4590 4021 c0 -6 4 -13 10 -16 6 -3 7 1 4 9 -7 18 -14 21 -14 7z"/>
<path d="M4933 4005 c0 -8 5 -11 10 -8 6 4 8 0 4 -10 -9 -25 0 -21 14 6 6 12
8 19 4 15 -5 -4 -13 -3 -20 2 -8 7 -12 5 -12 -5z"/>
<path d="M4833 3995 c0 -8 6 -16 13 -19 7 -3 10 2 7 15 -6 22 -20 26 -20 4z"/>
<path d="M4597 3973 c3 -7 6 -13 8 -13 2 0 5 6 8 13 3 8 -1 14 -8 14 -7 0 -11
-6 -8 -14z"/>
<path d="M5037 3977 c4 -6 0 -8 -10 -4 -10 4 -14 2 -11 -7 3 -7 11 -13 19 -13
8 0 13 3 10 5 -3 3 0 10 5 17 7 8 5 12 -5 12 -8 0 -11 -5 -8 -10z"/>
<path d="M4524 3964 c-10 -8 -14 -13 -7 -10 6 4 13 1 15 -6 3 -7 7 -2 10 10 7
26 7 26 -18 6z"/>
<path d="M4731 3973 c-1 -17 16 -25 25 -12 4 7 3 9 -4 5 -5 -3 -13 0 -15 6 -4
9 -6 10 -6 1z"/>
<path d="M4915 3970 c-4 -6 -11 -8 -16 -5 -5 4 -9 1 -9 -4 0 -16 16 -13 30 4
7 8 10 15 7 15 -3 0 -9 -5 -12 -10z"/>
<path d="M4260 3956 c0 -2 7 -7 16 -10 8 -3 12 -2 9 4 -6 10 -25 14 -25 6z"/>
<path d="M4470 3940 c-9 -6 -10 -10 -3 -10 6 0 15 5 18 10 8 12 4 12 -15 0z"/>
<path d="M4828 3928 c2 -10 9 -18 15 -18 6 0 7 3 4 7 -4 3 -3 11 3 17 6 8 3
12 -9 12 -12 0 -17 -6 -13 -18z"/>
<path d="M4948 3943 c7 -3 16 -2 19 1 4 3 -2 6 -13 5 -11 0 -14 -3 -6 -6z"/>
<path d="M4608 3933 c-10 -2 -18 -9 -18 -15 0 -6 3 -8 7 -5 3 4 11 3 17 -3 8
-6 12 -3 12 11 0 10 0 18 -1 18 0 -1 -8 -3 -17 -6z"/>
<path d="M4726 3931 c-19 -7 -19 -8 0 -13 13 -3 21 0 21 8 0 8 -1 14 -1 13 -1
0 -10 -4 -20 -8z"/>
<path d="M4773 3925 c0 -7 6 -11 14 -8 7 3 13 6 13 8 0 2 -6 5 -13 8 -8 3 -14
-1 -14 -8z"/>
<path d="M4966 3931 c-19 -7 -19 -8 0 -13 13 -3 21 0 21 8 0 8 -1 14 -1 13 -1
0 -10 -4 -20 -8z"/>
<path d="M4482 3921 c-10 -6 -10 -10 3 -21 13 -11 14 -10 9 5 -6 14 -4 16 6
10 9 -5 11 -4 6 3 -8 14 -7 14 -24 3z"/>
<path d="M4320 3900 c-9 -6 -10 -10 -3 -10 6 0 15 5 18 10 8 12 4 12 -15 0z"/>
<path d="M4707 3893 c3 -7 6 -13 8 -13 2 0 5 6 8 13 3 8 -1 14 -8 14 -7 0 -11
-6 -8 -14z"/>
<path d="M4414 3889 c1 -7 10 -13 19 -15 9 -1 15 2 11 7 -3 5 -9 7 -14 4 -4
-3 -11 0 -13 5 -3 6 -4 5 -3 -1z"/>
<path d="M4890 3890 c-11 -7 -11 -10 -2 -10 8 0 10 -5 6 -12 -4 -7 -3 -9 1 -5
7 6 17 37 12 37 -1 0 -9 -5 -17 -10z"/>
<path d="M4326 3881 c-19 -7 -19 -8 0 -13 13 -3 21 0 21 8 0 8 -1 14 -1 13 -1
0 -10 -4 -20 -8z"/>
<path d="M4520 3880 c-8 -5 -10 -10 -5 -10 6 0 17 5 25 10 8 5 11 10 5 10 -5
0 -17 -5 -25 -10z"/>
<path d="M4633 3870 c-1 -11 2 -20 5 -20 4 0 8 9 9 20 1 11 -2 20 -5 20 -4 0
-8 -9 -9 -20z"/>
<path d="M4750 3881 c0 -6 4 -12 8 -15 5 -3 9 1 9 9 0 8 -4 15 -9 15 -4 0 -8
-4 -8 -9z"/>
<path d="M4918 3872 c-3 -11 0 -19 7 -19 7 0 10 8 7 19 -2 10 -6 18 -7 18 -1
0 -5 -8 -7 -18z"/>
<path d="M4560 3869 c0 -5 -6 -7 -12 -3 -7 4 -9 3 -5 -1 13 -15 36 -14 30 1
-6 17 -13 18 -13 3z"/>
<path d="M4357 3855 c-4 -8 -3 -16 1 -19 4 -3 9 4 9 15 2 23 -3 25 -10 4z"/>
<path d="M4475 3861 c6 -10 4 -13 -7 -9 -8 4 -15 1 -15 -7 0 -8 7 -11 16 -7
13 5 14 3 4 -9 -10 -13 -10 -16 1 -16 14 0 16 41 2 54 -5 5 -6 2 -1 -6z"/>
<path d="M4787 3852 c4 -9 2 -13 -4 -9 -5 3 -10 0 -10 -8 0 -10 4 -12 12 -5 7
5 16 6 20 2 5 -4 5 -2 2 5 -4 6 -2 13 5 15 7 3 3 7 -9 10 -17 4 -20 2 -16 -10z"/>
<path d="M4870 3865 c0 -5 5 -17 10 -25 5 -8 10 -10 10 -5 0 6 -5 17 -10 25
-5 8 -10 11 -10 5z"/>
<path d="M4955 3861 c-3 -5 -2 -12 3 -15 5 -3 9 1 9 9 0 17 -3 19 -12 6z"/>
<path d="M4249 3843 c-13 -16 -12 -17 4 -4 9 7 17 15 17 17 0 8 -8 3 -21 -13z"/>
<path d="M4421 3844 c0 -11 3 -14 6 -6 3 7 2 16 -1 19 -3 4 -6 -2 -5 -13z"/>
<path d="M4399 3848 c-5 -18 -6 -38 -1 -34 7 8 12 36 6 36 -2 0 -4 -1 -5 -2z"/>
<path d="M4501 3834 c0 -11 3 -14 6 -6 3 7 2 16 -1 19 -3 4 -6 -2 -5 -13z"/>
<path d="M4533 3835 c0 -7 8 -10 19 -7 10 2 18 6 18 7 0 1 -8 5 -18 7 -11 3
-19 0 -19 -7z"/>
<path d="M4656 3834 c-3 -7 2 -10 15 -7 22 6 26 20 4 20 -8 0 -16 -6 -19 -13z"/>
<path d="M4835 3820 c-3 -5 -4 -10 0 -10 3 0 1 -8 -4 -18 -7 -14 -6 -19 4 -19
7 0 11 7 7 15 -3 9 -1 13 5 9 6 -4 13 0 16 8 4 10 1 12 -10 8 -11 -4 -14 -2
-9 5 4 7 5 12 2 12 -3 0 -8 -4 -11 -10z"/>
<path d="M4917 3813 c3 -7 6 -13 8 -13 2 0 5 6 8 13 3 8 -1 14 -8 14 -7 0 -11
-6 -8 -14z"/>
<path d="M4235 3810 c-3 -6 1 -7 9 -4 18 7 21 14 7 14 -6 0 -13 -4 -16 -10z"/>
<path d="M4620 3813 c0 -19 21 -27 33 -13 9 10 9 11 -2 5 -8 -4 -17 -2 -22 6
-6 9 -9 10 -9 2z"/>
<path d="M4280 3800 c-12 -7 -10 -9 8 -7 12 0 22 5 22 9 0 11 -12 10 -30 -2z"/>
<path d="M4324 3803 c4 -4 16 -8 28 -10 12 -2 19 -1 16 2 -3 3 -16 8 -28 10
-12 2 -20 1 -16 -2z"/>
<path d="M4440 3800 c8 -5 20 -10 25 -10 6 0 3 5 -5 10 -8 5 -19 10 -25 10 -5
0 -3 -5 5 -10z"/>
<path d="M4712 3790 c-7 -12 -7 -17 4 -17 7 0 10 5 7 10 -4 6 0 8 9 5 8 -4 15
-1 15 6 0 18 -23 15 -35 -4z"/>
<path d="M4535 3790 c-4 -6 1 -7 11 -3 10 4 15 2 11 -4 -3 -5 0 -10 8 -10 11
0 12 4 4 14 -14 15 -26 17 -34 3z"/>
<path d="M4230 3780 c14 -9 7 -14 -13 -11 -5 1 -6 -3 -2 -9 3 -6 11 -8 16 -4
5 3 16 1 23 -5 9 -8 13 -7 13 4 0 8 -5 11 -10 8 -6 -4 -8 0 -5 8 4 10 -1 15
-15 17 -17 1 -19 -1 -7 -8z"/>
<path d="M4393 3771 c10 -12 9 -14 -4 -9 -9 4 -16 1 -16 -7 0 -10 5 -11 19 -4
10 6 16 14 13 19 -3 4 1 10 7 13 7 3 3 4 -9 4 -18 -1 -20 -4 -10 -16z"/>
<path d="M4513 3771 c0 -11 5 -18 9 -15 4 3 5 11 1 19 -7 21 -12 19 -10 -4z"/>
<path d="M4757 3775 c-4 -8 -3 -16 1 -19 4 -3 9 4 9 15 2 23 -3 25 -10 4z"/>
<path d="M4893 3765 c0 -8 4 -12 9 -9 5 3 6 10 3 15 -9 13 -12 11 -12 -6z"/>
<path d="M4326 3761 c-19 -7 -19 -8 0 -13 13 -3 21 0 21 8 0 8 -1 14 -1 13 -1
0 -10 -4 -20 -8z"/>
<path d="M4579 3759 c-10 -7 -6 -8 13 -5 15 2 29 0 32 -5 2 -5 3 -4 2 2 -3 15
-29 20 -47 8z"/>
<path d="M4654 3759 c-3 -6 -3 -13 0 -16 3 -4 6 -1 6 5 0 6 11 9 27 6 15 -3
25 -3 22 1 -12 11 -49 14 -55 4z"/>
<path d="M4479 3753 c-1 -5 -1 -12 0 -17 1 -5 -4 -6 -12 -3 -7 3 -14 -1 -14
-9 0 -19 30 -1 33 20 1 9 0 16 -2 16 -2 0 -5 -3 -5 -7z"/>
<path d="M4150 3740 c0 -5 8 -14 18 -19 14 -7 19 -6 19 4 0 7 -7 11 -15 7 -10
-3 -13 -1 -8 6 4 7 2 12 -3 12 -6 0 -11 -4 -11 -10z"/>
<path d="M4805 3742 c-5 -4 -11 -12 -12 -19 -3 -13 22 -12 34 2 5 4 2 5 -6 0
-11 -6 -13 -4 -8 8 7 19 6 20 -8 9z"/>
<path d="M4840 3740 c8 -5 20 -10 25 -10 6 0 3 5 -5 10 -8 5 -19 10 -25 10 -5
0 -3 -5 5 -10z"/>
<path d="M4554 3723 c4 -8 2 -13 -6 -13 -9 0 -9 -3 2 -10 14 -9 6 -15 -15 -10
-5 1 -6 -2 -2 -6 4 -4 13 -9 21 -10 14 -2 16 40 2 53 -5 4 -6 2 -2 -4z"/>
<path d="M4719 3728 c-5 -18 -6 -38 -1 -34 7 8 12 36 6 36 -2 0 -4 -1 -5 -2z"/>
<path d="M4747 3695 c3 -8 9 -12 14 -9 12 7 11 11 -5 17 -10 4 -13 1 -9 -8z"/>
<path d="M4256 3686 c5 -14 40 -14 53 0 3 4 -1 4 -9 2 -8 -3 -23 -1 -32 4 -13
6 -16 5 -12 -6z"/>
<path d="M4414 3681 c0 -12 6 -17 18 -13 10 2 18 9 18 15 0 6 -3 7 -7 4 -3 -4
-11 -3 -17 3 -8 6 -12 3 -12 -9z"/>
<path d="M4179 3679 c-10 -7 -6 -8 13 -5 15 2 29 0 32 -5 2 -5 3 -4 2 2 -3 15
-29 20 -47 8z"/>
<path d="M4330 3685 c0 -7 30 -13 34 -7 3 4 -4 9 -15 9 -10 1 -19 0 -19 -2z"/>
<path d="M4630 3680 c0 -5 5 -10 10 -10 6 0 10 5 10 10 0 6 -4 10 -10 10 -5 0
-10 -4 -10 -10z"/>
<path d="M4147 3653 c5 -12 3 -14 -8 -8 -8 5 -11 4 -6 0 4 -5 14 -10 22 -11
12 -2 12 2 5 17 -13 23 -22 25 -13 2z"/>
<path d="M4300 3664 c0 -1 6 -7 14 -13 10 -9 15 -8 19 2 3 8 -3 13 -14 13 -11
0 -19 -1 -19 -2z"/>
<path d="M4592 3651 c7 -9 13 -17 14 -19 1 -1 7 4 14 13 11 13 10 14 -5 9 -11
-5 -16 -4 -12 3 3 5 0 10 -8 10 -12 0 -12 -3 -3 -16z"/>
<path d="M4677 3657 c4 -6 0 -8 -10 -4 -14 5 -15 3 -4 -13 8 -14 13 -16 16 -8
2 7 8 18 12 24 5 7 3 11 -6 11 -8 0 -11 -5 -8 -10z"/>
<path d="M4750 3659 c0 -5 5 -7 10 -4 6 3 10 8 10 11 0 2 -4 4 -10 4 -5 0 -10
-5 -10 -11z"/>
<path d="M4050 3650 c-8 -5 -12 -12 -9 -15 4 -3 12 1 19 10 14 17 11 19 -10 5z"/>
<path d="M4281 3636 c-9 -10 -9 -16 -1 -21 6 -4 10 -3 9 2 -3 20 2 27 11 13 6
-9 10 -10 10 -3 0 19 -17 24 -29 9z"/>
<path d="M4337 3636 c-4 -11 -1 -13 10 -9 10 4 14 2 10 -4 -3 -5 0 -10 8 -10
13 0 12 4 -2 19 -19 22 -19 22 -26 4z"/>
<path d="M4475 3641 c-3 -5 -2 -12 3 -15 5 -3 9 1 9 9 0 17 -3 19 -12 6z"/>
<path d="M4587 3619 c7 -7 15 -10 18 -7 3 3 -2 9 -12 12 -14 6 -15 5 -6 -5z"/>
<path d="M4213 3605 c0 -8 5 -11 10 -8 6 4 8 0 4 -9 -4 -12 -1 -14 16 -10 12
3 16 7 9 10 -7 2 -9 9 -5 15 3 7 3 9 -2 5 -4 -4 -13 -3 -20 2 -8 7 -12 5 -12
-5z"/>
<path d="M4528 3612 c-17 -7 -17 -8 0 -18 15 -10 18 -8 18 7 0 11 0 19 -1 18
0 0 -8 -4 -17 -7z"/>
<path d="M4108 3592 c-4 -12 1 -18 13 -18 12 0 15 4 9 12 -6 6 -7 14 -3 17 3
4 2 7 -4 7 -6 0 -13 -8 -15 -18z"/>
<path d="M4322 3598 c-15 -15 -15 -28 0 -28 6 0 8 3 5 7 -4 3 -2 12 4 20 14
16 7 17 -9 1z"/>
<path d="M4393 3594 c0 -7 6 -15 13 -18 9 -3 11 1 7 11 -5 12 -3 14 8 8 8 -5
11 -4 6 0 -13 14 -34 14 -34 -1z"/>
<path d="M4476 3598 c3 -5 10 -6 15 -3 13 9 11 12 -6 12 -8 0 -12 -4 -9 -9z"/>
<path d="M4067 3579 c7 -7 15 -10 18 -7 3 3 -2 9 -12 12 -14 6 -15 5 -6 -5z"/>
<path d="M4507 3579 c7 -9 10 -19 6 -23 -4 -4 1 -4 10 0 10 3 17 7 15 8 -2 1
-12 8 -23 16 -18 14 -19 13 -8 -1z"/>
<path d="M4200 3560 c8 -5 20 -10 25 -10 6 0 3 5 -5 10 -8 5 -19 10 -25 10 -5
0 -3 -5 5 -10z"/>
<path d="M4067 3547 c-3 -8 1 -14 8 -14 7 0 11 6 8 14 -3 7 -6 13 -8 13 -2 0
-5 -6 -8 -13z"/>
<path d="M4153 3531 c10 -12 9 -14 -4 -9 -9 4 -16 1 -16 -7 0 -10 5 -11 17 -5
10 5 21 6 26 2 5 -4 3 0 -4 10 -10 13 -10 17 0 21 7 3 3 4 -9 4 -18 -1 -20 -4
-10 -16z"/>
<path d="M4470 3546 c0 -2 7 -7 16 -10 8 -3 12 -2 9 4 -6 10 -25 14 -25 6z"/>
<path d="M3968 3533 c-10 -2 -18 -9 -18 -15 0 -6 3 -8 7 -5 3 4 11 3 17 -3 8
-6 12 -3 12 11 0 10 0 18 -1 18 0 -1 -8 -3 -17 -6z"/>
<path d="M4288 3533 c-10 -2 -18 -9 -18 -15 0 -6 3 -8 7 -5 3 4 11 3 17 -3 8
-6 12 -3 12 11 0 10 0 18 -1 18 0 -1 -8 -3 -17 -6z"/>
<path d="M4336 3526 c3 -7 11 -13 19 -13 22 0 18 14 -4 20 -13 3 -18 0 -15 -7z"/>
<path d="M4014 3519 c-3 -6 -3 -13 0 -16 3 -4 6 -1 6 5 0 6 11 9 27 6 15 -3
25 -3 22 1 -12 11 -49 14 -55 4z"/>
<path d="M3913 3495 c0 -8 4 -12 9 -9 5 3 6 10 3 15 -9 13 -12 11 -12 -6z"/>
<path d="M4234 3504 c3 -3 1 -16 -4 -28 -6 -16 -5 -23 4 -23 12 0 15 43 3 52
-4 3 -5 2 -3 -1z"/>
<path d="M4398 3490 c12 -10 18 -21 14 -25 -4 -4 3 -2 16 4 26 14 30 23 5 14
-11 -4 -14 -3 -9 5 5 8 1 10 -10 5 -10 -4 -15 -2 -11 4 3 5 -1 10 -10 10 -13
0 -12 -4 5 -17z"/>
<path d="M4211 3484 c0 -11 3 -14 6 -6 3 7 2 16 -1 19 -3 4 -6 -2 -5 -13z"/>
<path d="M3846 3482 c-3 -5 1 -9 9 -9 8 0 12 4 9 9 -3 4 -7 8 -9 8 -2 0 -6 -4
-9 -8z"/>
<path d="M4116 3473 c-6 -14 -5 -15 5 -6 7 7 10 15 7 18 -3 3 -9 -2 -12 -12z"/>
<path d="M4315 3480 c3 -5 8 -10 11 -10 2 0 4 5 4 10 0 6 -5 10 -11 10 -5 0
-7 -4 -4 -10z"/>
<path d="M4279 3463 c0 -5 -2 -16 -4 -25 -2 -9 3 -19 11 -22 11 -4 12 -1 6 12
-5 9 -7 23 -5 30 3 6 2 12 -1 12 -3 0 -6 -3 -7 -7z"/>
<path d="M3934 3449 c3 -15 29 -20 47 -8 10 7 6 8 -13 5 -15 -2 -29 0 -32 5
-2 5 -3 4 -2 -2z"/>
<path d="M4053 3445 c0 -7 8 -10 19 -7 10 2 18 6 18 7 0 1 -8 5 -18 7 -11 3
-19 0 -19 -7z"/>
<path d="M3814 3438 c-5 -7 -2 -8 6 -3 10 6 12 4 6 -10 -5 -15 -4 -16 9 -5 19
15 19 16 0 23 -8 4 -17 1 -21 -5z"/>
<path d="M4390 3439 c0 -5 5 -7 10 -4 6 3 10 8 10 11 0 2 -4 4 -10 4 -5 0 -10
-5 -10 -11z"/>
<path d="M4362 3424 c10 -10 20 -16 22 -13 3 3 -5 11 -17 18 -21 13 -21 12 -5
-5z"/>
<path d="M3879 3428 c-7 -25 -5 -36 9 -34 9 2 18 9 20 17 3 11 1 11 -7 -1 -10
-13 -15 -8 -12 13 1 6 -8 11 -10 5z"/>
<path d="M3988 3412 c3 -9 1 -13 -5 -9 -5 3 -10 0 -10 -8 0 -17 14 -10 26 14
7 13 6 18 -4 18 -7 0 -11 -7 -7 -15z"/>
<path d="M4066 3421 c-4 -5 3 -7 14 -4 23 6 26 13 6 13 -8 0 -17 -4 -20 -9z"/>
<path d="M4320 3420 c-9 -6 -10 -10 -3 -10 6 0 15 5 18 10 8 12 4 12 -15 0z"/>
<path d="M3700 3406 c0 -2 7 -7 16 -10 8 -3 12 -2 9 4 -6 10 -25 14 -25 6z"/>
<path d="M3770 3402 c0 -4 10 -9 22 -9 18 -2 20 0 8 7 -18 12 -30 13 -30 2z"/>
<path d="M4040 3400 c8 -5 20 -10 25 -10 6 0 3 5 -5 10 -8 5 -19 10 -25 10 -5
0 -3 -5 5 -10z"/>
<path d="M4176 3399 c3 -5 10 -6 16 -3 7 5 9 2 6 -8 -4 -8 0 -15 8 -15 19 0 1
30 -20 33 -9 1 -14 -2 -10 -7z"/>
<path d="M4330 3400 c-11 -7 -11 -10 -2 -10 8 0 10 -5 6 -12 -4 -7 -3 -9 1 -5
7 6 17 37 12 37 -1 0 -9 -5 -17 -10z"/>
<path d="M3708 3378 c5 -5 16 -8 23 -6 8 3 3 7 -10 11 -17 4 -21 3 -13 -5z"/>
<path d="M3954 3368 c2 -15 0 -29 -5 -32 -5 -2 -4 -3 2 -2 15 3 20 29 8 47 -7
10 -8 6 -5 -13z"/>
<path d="M3996 3381 c-3 -5 1 -14 8 -20 10 -9 16 -9 21 -1 4 6 3 10 -2 9 -20
-3 -27 2 -13 11 9 6 10 10 3 10 -6 0 -14 -4 -17 -9z"/>
<path d="M4235 3381 c-3 -5 0 -13 6 -17 7 -4 9 -3 5 4 -3 5 0 13 6 15 9 4 10
6 1 6 -6 1 -14 -3 -18 -8z"/>
<path d="M3854 3369 c-3 -6 -14 -9 -23 -6 -10 2 -18 -1 -18 -8 0 -8 7 -11 15
-7 9 3 13 1 9 -5 -3 -5 0 -10 7 -10 8 0 12 7 8 15 -3 9 -1 13 5 9 5 -3 10 0
10 8 0 18 -3 19 -13 4z"/>
<path d="M4135 3370 c-4 -6 -11 -8 -16 -5 -5 4 -9 2 -9 -3 0 -5 8 -12 18 -14
12 -4 18 1 18 13 0 22 -2 23 -11 9z"/>
<path d="M3766 3361 c-19 -7 -19 -8 0 -13 13 -3 21 0 21 8 0 8 -1 14 -1 13 -1
0 -10 -4 -20 -8z"/>
<path d="M4273 3355 c0 -8 4 -12 9 -9 5 3 6 10 3 15 -9 13 -12 11 -12 -6z"/>
<path d="M4198 3328 c2 -10 6 -18 7 -18 1 0 5 8 7 18 3 11 0 19 -7 19 -7 0
-10 -8 -7 -19z"/>
<path d="M4051 3324 c0 -11 3 -14 6 -6 3 7 2 16 -1 19 -3 4 -6 -2 -5 -13z"/>
<path d="M4075 3329 c-4 -6 -5 -12 -2 -15 2 -3 7 2 10 11 7 17 1 20 -8 4z"/>
<path d="M3776 3322 c-3 -5 1 -9 9 -9 8 0 12 4 9 9 -3 4 -7 8 -9 8 -2 0 -6 -4
-9 -8z"/>
<path d="M3880 3320 c18 -12 30 -13 30 -2 0 4 -10 9 -22 9 -18 2 -20 0 -8 -7z"/>
<path d="M3950 3294 c6 -6 7 -14 3 -17 -3 -4 -2 -7 4 -7 6 0 13 8 15 18 4 12
-1 18 -13 18 -12 0 -15 -4 -9 -12z"/>
<path d="M4240 3300 c-9 -6 -10 -10 -3 -10 6 0 15 5 18 10 8 12 4 12 -15 0z"/>
<path d="M3726 3287 c-16 -12 -16 -14 -3 -14 9 0 18 6 21 14 3 7 4 13 3 13 -2
0 -11 -6 -21 -13z"/>
<path d="M4010 3285 c-10 -13 -11 -18 -1 -28 10 -9 11 -8 5 7 -5 12 -4 17 3
13 5 -3 10 0 10 8 0 19 -2 19 -17 0z"/>
<path d="M4140 3292 c0 -6 -11 -9 -27 -6 -15 3 -25 3 -22 -1 12 -11 49 -14 55
-4 3 6 3 13 0 16 -3 4 -6 1 -6 -5z"/>
<path d="M4156 3273 c-6 -14 -5 -15 5 -6 7 7 10 15 7 18 -3 3 -9 -2 -12 -12z"/>
<path d="M3826 3256 c6 -15 4 -17 -6 -11 -9 6 -11 4 -5 -4 5 -9 10 -10 18 -2
8 8 7 14 -2 24 -10 10 -11 8 -5 -7z"/>
<path d="M4076 3258 c3 -5 10 -6 15 -3 13 9 11 12 -6 12 -8 0 -12 -4 -9 -9z"/>
<path d="M3894 3245 c1 -8 6 -18 11 -22 4 -4 5 -3 2 4 -4 6 -2 13 5 15 8 3 6
6 -4 10 -10 4 -15 2 -14 -7z"/>
<path d="M3750 3239 c0 -5 5 -7 10 -4 6 3 10 8 10 11 0 2 -4 4 -10 4 -5 0 -10
-5 -10 -11z"/>
<path d="M3868 3232 c-3 -11 0 -19 7 -19 7 0 10 8 7 19 -2 10 -6 18 -7 18 -1
0 -5 -8 -7 -18z"/>
<path d="M4033 3235 c0 -8 4 -12 9 -9 4 3 8 9 8 15 0 5 -4 9 -8 9 -5 0 -9 -7
-9 -15z"/>
<path d="M4080 3231 c0 -6 4 -13 10 -16 6 -3 7 1 4 9 -7 18 -14 21 -14 7z"/>
<path d="M3916 3215 c-9 -26 -7 -32 5 -12 6 10 9 21 6 23 -2 3 -7 -2 -11 -11z"/>
<path d="M3995 3220 c-11 -5 -14 -9 -7 -9 8 -1 10 -6 6 -13 -4 -7 -4 -10 1 -6
4 4 13 3 20 -2 8 -7 12 -5 12 5 0 8 -5 11 -10 8 -6 -4 -8 0 -4 10 3 10 5 17 4
16 -1 0 -11 -4 -22 -9z"/>
<path d="M4119 3213 c-13 -16 -12 -17 4 -4 16 13 21 21 13 21 -2 0 -10 -8 -17
-17z"/>
<path d="M3787 3191 c-3 -13 0 -18 7 -15 7 3 13 11 13 19 0 22 -14 18 -20 -4z"/>
<path d="M3869 3172 c5 -9 16 -17 25 -18 9 -1 14 2 10 7 -3 5 -10 6 -16 3 -7
-5 -9 -2 -6 8 4 8 0 15 -8 15 -9 0 -10 -5 -5 -15z"/>
<path d="M3955 3181 c6 -10 4 -13 -6 -9 -10 4 -15 -1 -15 -13 0 -14 3 -16 15
-6 12 10 14 9 9 -4 -4 -9 -1 -16 7 -16 11 0 12 5 3 21 -6 12 -10 23 -9 24 2 2
-1 7 -5 10 -4 4 -3 1 1 -7z"/>
<path d="M3740 3166 c0 -2 8 -10 18 -17 15 -13 16 -12 3 4 -13 16 -21 21 -21
13z"/>
<path d="M3787 3129 c6 -22 20 -26 20 -4 0 8 -6 16 -13 19 -7 3 -10 -2 -7 -15z"/>
<path d="M3999 3133 c-13 -16 -12 -17 4 -4 16 13 21 21 13 21 -2 0 -10 -8 -17
-17z"/>
<path d="M3850 3125 c0 -7 30 -13 34 -7 3 4 -4 9 -15 9 -10 1 -19 0 -19 -2z"/>
<path d="M3919 3123 c0 -5 -3 -19 -5 -32 -2 -14 -2 -22 1 -19 8 8 17 58 10 58
-3 0 -5 -3 -6 -7z"/>
<path d="M3838 3092 c3 -10 1 -13 -6 -8 -6 3 -14 1 -18 -5 -5 -8 -3 -9 6 -4 9
6 12 4 8 -7 -4 -8 -1 -15 7 -15 8 0 11 7 7 16 -5 13 -3 14 9 4 13 -10 16 -10
16 2 0 8 -5 11 -10 8 -6 -4 -8 0 -5 9 4 8 1 15 -7 15 -8 0 -11 -7 -7 -15z"/>
<path d="M3754 3065 c0 -13 3 -22 7 -19 8 4 6 30 -2 38 -3 3 -5 -5 -5 -19z"/>
<path d="M3877 3053 c-8 -17 -1 -37 13 -40 10 -3 11 -2 4 4 -6 4 -10 16 -8 26
2 18 -2 23 -9 10z"/>
<path d="M3771 3013 c-1 -17 16 -25 25 -12 4 7 3 9 -4 5 -5 -3 -13 0 -15 6 -4
9 -6 10 -6 1z"/>
<path d="M3838 2983 c7 -3 16 -2 19 1 4 3 -2 6 -13 5 -11 0 -14 -3 -6 -6z"/>
<path d="M3813 2965 c0 -7 8 -10 19 -7 10 2 18 6 18 7 0 1 -8 5 -18 7 -11 3
-19 0 -19 -7z"/>
<path d="M3890 2926 c0 -8 4 -17 9 -20 5 -4 7 3 4 14 -6 23 -13 26 -13 6z"/>
<path d="M3790 2920 c0 -5 5 -10 10 -10 6 0 10 5 10 10 0 6 -4 10 -10 10 -5 0
-10 -4 -10 -10z"/>
<path d="M3867 2911 c-4 -17 -3 -21 5 -13 5 5 8 16 6 23 -3 8 -7 3 -11 -10z"/>
<path d="M3827 2899 c7 -7 15 -10 18 -7 3 3 -2 9 -12 12 -14 6 -15 5 -6 -5z"/>
<path d="M3813 2875 c0 -7 6 -11 14 -8 7 3 13 6 13 8 0 2 -6 5 -13 8 -8 3 -14
-1 -14 -8z"/>
<path d="M3842 2861 c-10 -6 -10 -10 2 -20 11 -9 16 -9 22 0 5 8 3 9 -6 4 -10
-6 -12 -4 -7 8 7 19 7 20 -11 8z"/>
<path d="M3773 2836 c-3 -6 -3 -8 2 -4 4 4 13 3 20 -2 8 -7 12 -5 12 3 0 16
-25 18 -34 3z"/>
<path d="M3873 2803 c4 -3 3 -11 -3 -17 -6 -8 -3 -12 9 -12 12 0 17 6 13 18
-2 10 -9 18 -15 18 -6 0 -7 -3 -4 -7z"/>
<path d="M3798 2768 c2 -10 6 -18 7 -18 1 0 5 8 7 18 3 11 0 19 -7 19 -7 0
-10 -8 -7 -19z"/>
<path d="M3869 2744 c5 -3 7 -17 5 -32 -3 -19 -2 -23 5 -13 12 18 7 44 -8 47
-6 1 -7 0 -2 -2z"/>
<path d="M3917 2697 c4 -6 0 -8 -9 -5 -8 4 -15 1 -15 -7 0 -8 7 -11 15 -7 11
4 13 1 7 -9 -5 -8 -5 -11 1 -6 5 5 9 12 9 15 0 4 3 12 7 18 4 6 1 11 -7 11 -8
0 -11 -5 -8 -10z"/>
<path d="M3868 2653 c7 -3 16 -2 19 1 4 3 -2 6 -13 5 -11 0 -14 -3 -6 -6z"/>
<path d="M3910 2640 c0 -5 5 -10 11 -10 5 0 7 5 4 10 -3 6 -8 10 -11 10 -2 0
-4 -4 -4 -10z"/>
<path d="M3868 2608 c2 -10 6 -18 7 -18 1 0 5 8 7 18 3 11 0 19 -7 19 -7 0
-10 -8 -7 -19z"/>
<path d="M3893 2605 c-3 -9 -3 -18 -1 -21 3 -3 8 4 11 16 6 23 -1 27 -10 5z"/>
<path d="M3953 2563 c4 -3 1 -13 -6 -22 -11 -14 -10 -14 5 -2 16 12 16 31 1
31 -4 0 -3 -3 0 -7z"/>
<path d="M3891 2525 c4 -3 19 -8 35 -11 16 -3 26 -2 23 1 -4 3 -19 8 -35 11
-16 3 -26 2 -23 -1z"/>
<path d="M3868 2488 c2 -10 9 -18 15 -18 6 0 7 3 4 7 -4 3 -3 11 3 17 6 8 3
12 -9 12 -12 0 -17 -6 -13 -18z"/>
<path d="M3906 2438 c3 -4 9 -8 15 -8 5 0 9 4 9 8 0 5 -7 9 -15 9 -8 0 -12 -4
-9 -9z"/>
<path d="M3934 2401 c0 -12 6 -17 18 -13 10 2 18 9 18 15 0 6 -3 7 -7 4 -3 -4
-11 -3 -17 3 -8 6 -12 3 -12 -9z"/>
<path d="M3859 2399 c-10 -7 -6 -8 13 -5 15 2 29 0 32 -5 2 -5 3 -4 2 2 -3 15
-29 20 -47 8z"/>
<path d="M3896 2353 c-6 -14 -5 -15 5 -6 7 7 10 15 7 18 -3 3 -9 -2 -12 -12z"/>
<path d="M3918 2352 c-3 -11 0 -19 7 -19 7 0 10 8 7 19 -2 10 -6 18 -7 18 -1
0 -5 -8 -7 -18z"/>
<path d="M3874 2326 c1 -8 5 -18 8 -22 4 -3 5 1 4 10 -1 8 -5 18 -8 22 -4 3
-5 -1 -4 -10z"/>
<path d="M3939 2319 c-10 -7 -6 -8 13 -5 15 2 29 0 32 -5 2 -5 3 -4 2 2 -3 15
-29 20 -47 8z"/>
<path d="M3955 2279 c-3 -4 2 -6 10 -5 21 3 28 13 10 13 -9 0 -18 -4 -20 -8z"/>
<path d="M3948 2253 c7 -3 16 -2 19 1 4 3 -2 6 -13 5 -11 0 -14 -3 -6 -6z"/>
<path d="M4011 2244 c0 -11 3 -14 6 -6 3 7 2 16 -1 19 -3 4 -6 -2 -5 -13z"/>
<path d="M3898 2238 c5 -5 16 -8 23 -6 8 3 3 7 -10 11 -17 4 -21 3 -13 -5z"/>
<path d="M3948 2208 c2 -10 6 -18 7 -18 1 0 5 8 7 18 3 11 0 19 -7 19 -7 0
-10 -8 -7 -19z"/>
<path d="M4016 2207 c3 -10 9 -15 12 -12 3 3 0 11 -7 18 -10 9 -11 8 -5 -6z"/>
<path d="M4006 2171 c-19 -7 -19 -8 0 -13 13 -3 21 0 21 8 0 8 -1 14 -1 13 -1
0 -10 -4 -20 -8z"/>
<path d="M3987 2132 c5 -11 3 -13 -8 -7 -8 5 -11 4 -6 0 14 -16 36 -14 30 3
-5 11 -3 13 8 7 8 -5 11 -4 6 0 -14 16 -36 14 -30 -3z"/>
<path d="M5037 1728 c19 -22 19 -22 26 -4 4 11 1 13 -10 9 -10 -4 -14 -2 -10
4 3 5 0 10 -8 10 -13 0 -12 -4 2 -19z"/>
<path d="M5054 1689 c3 -15 29 -20 47 -8 10 7 6 8 -13 5 -15 -2 -29 0 -32 5
-2 5 -3 4 -2 -2z"/>
<path d="M5106 1656 c5 -12 4 -17 -3 -13 -5 3 -10 -1 -10 -9 0 -13 2 -13 16 0
12 13 13 18 2 28 -10 11 -11 9 -5 -6z"/>
<path d="M5074 1608 c2 -15 0 -29 -5 -32 -5 -2 -4 -3 2 -2 15 3 20 29 8 47 -7
10 -8 6 -5 -13z"/>
<path d="M5115 1621 c-3 -6 3 -14 13 -20 14 -7 19 -6 19 4 0 7 -7 11 -15 7
-10 -3 -13 -1 -8 6 4 7 5 12 2 12 -3 0 -7 -4 -11 -9z"/>
<path d="M5110 1560 c0 -5 5 -10 11 -10 5 0 7 5 4 10 -3 6 -8 10 -11 10 -2 0
-4 -4 -4 -10z"/>
<path d="M5068 1528 c2 -10 9 -18 15 -18 6 0 7 3 4 7 -4 3 -3 11 3 17 6 8 3
12 -9 12 -12 0 -17 -6 -13 -18z"/>
<path d="M5165 1542 c-13 -9 -19 -35 -6 -28 5 4 11 0 14 -6 2 -7 4 -1 3 14 0
16 -1 28 -1 28 0 0 -4 -4 -10 -8z"/>
<path d="M5135 1489 c-4 -6 -13 -8 -21 -5 -7 3 -16 0 -20 -6 -5 -7 -2 -8 6 -3
9 6 12 4 8 -6 -4 -10 1 -15 12 -15 11 0 16 5 12 15 -3 8 -1 12 5 8 5 -3 10 0
10 8 0 18 -3 19 -12 4z"/>
<path d="M5140 1440 c-12 -7 -10 -9 7 -7 12 0 19 5 17 9 -6 10 -6 10 -24 -2z"/>
<path d="M5054 1409 c1 -7 10 -13 19 -15 9 -1 15 2 11 7 -3 5 -9 7 -14 4 -4
-3 -11 0 -13 5 -3 6 -4 5 -3 -1z"/>
<path d="M5166 1398 c3 -5 10 -6 15 -3 13 9 11 12 -6 12 -8 0 -12 -4 -9 -9z"/>
<path d="M5061 1364 c0 -11 3 -14 6 -6 3 7 2 16 -1 19 -3 4 -6 -2 -5 -13z"/>
<path d="M5093 1365 c0 -5 12 -10 27 -10 15 0 27 5 27 10 0 6 -12 10 -27 10
-15 0 -27 -4 -27 -10z"/>
<path d="M5173 1366 c0 -6 10 -11 23 -11 25 0 23 10 -4 17 -10 3 -19 0 -19 -6z"/>
<path d="M5105 1340 c-3 -6 1 -7 9 -4 18 7 21 14 7 14 -6 0 -13 -4 -16 -10z"/>
<path d="M5070 1320 c0 -5 5 -10 10 -10 6 0 10 5 10 10 0 6 -4 10 -10 10 -5 0
-10 -4 -10 -10z"/>
<path d="M5160 1320 c8 -5 20 -10 25 -10 6 0 3 5 -5 10 -8 5 -19 10 -25 10 -5
0 -3 -5 5 -10z"/>
<path d="M5044 1296 c-3 -8 -14 -13 -25 -11 -11 2 -17 0 -14 -5 3 -4 13 -7 23
-5 9 1 22 -1 28 -6 7 -5 11 -3 11 6 0 8 -5 11 -10 8 -6 -4 -8 0 -4 10 3 10 4
17 1 17 -2 0 -7 -6 -10 -14z"/>
<path d="M5116 1282 c-3 -5 1 -9 9 -9 8 0 12 4 9 9 -3 4 -7 8 -9 8 -2 0 -6 -4
-9 -8z"/>
<path d="M4996 1258 c5 -7 2 -9 -9 -5 -11 4 -14 2 -10 -9 4 -11 9 -12 19 -3
12 10 11 29 -2 29 -3 0 -2 -5 2 -12z"/>
<path d="M5170 1246 c0 -8 4 -17 9 -20 5 -4 7 3 4 14 -6 23 -13 26 -13 6z"/>
<path d="M5148 1232 c-3 -11 0 -19 7 -19 7 0 10 8 7 19 -2 10 -6 18 -7 18 -1
0 -5 -8 -7 -18z"/>
<path d="M4957 1227 c-3 -8 1 -14 8 -14 7 0 11 6 8 14 -3 7 -6 13 -8 13 -2 0
-5 -6 -8 -13z"/>
<path d="M5056 1206 c5 -14 40 -14 53 0 3 4 -1 4 -9 2 -8 -3 -23 -1 -32 4 -13
6 -16 5 -12 -6z"/>
<path d="M4910 1190 c-8 -15 -8 -18 3 -14 8 3 14 11 14 19 0 20 -4 19 -17 -5z"/>
<path d="M5020 1171 c0 -7 -5 -9 -12 -5 -7 5 -8 3 -3 -5 5 -9 10 -10 18 -2 6
6 8 14 4 18 -4 3 -7 1 -7 -6z"/>
<path d="M5153 1164 c0 -7 4 -11 8 -8 4 2 10 -2 12 -8 4 -8 6 -7 6 3 1 9 -5
19 -12 22 -8 3 -14 -1 -14 -9z"/>
<path d="M4918 1158 c-9 -5 -6 -7 9 -5 12 2 25 6 28 8 8 9 -23 6 -37 -3z"/>
<path d="M5093 1155 c0 -7 7 -11 15 -7 11 4 13 1 7 -8 -5 -9 -4 -11 3 -6 16
10 15 14 -6 25 -14 7 -19 6 -19 -4z"/>
<path d="M4882 1138 c-7 -7 -12 -16 -12 -22 0 -5 3 -6 7 -3 3 4 11 2 18 -3 8
-7 12 -5 12 5 0 8 -5 11 -10 8 -6 -4 -8 0 -4 10 8 20 5 21 -11 5z"/>
<path d="M4959 1148 c-7 -24 -4 -40 9 -50 16 -12 16 -11 2 6 -13 18 -13 19 1
14 9 -4 16 -1 16 7 0 8 -7 11 -15 7 -10 -3 -13 -1 -8 6 4 7 5 12 2 12 -3 0 -6
-1 -7 -2z"/>
<path d="M5013 1126 c0 -8 7 -12 15 -8 10 3 13 1 8 -6 -3 -6 -2 -13 3 -16 5
-4 8 1 7 10 -3 21 -33 39 -33 20z"/>
<path d="M5130 1125 c-11 -13 -11 -18 0 -28 10 -9 11 -9 6 1 -4 7 -2 19 4 27
7 8 10 15 7 15 -2 0 -10 -7 -17 -15z"/>
<path d="M4802 1084 c-7 -8 -8 -14 -3 -14 10 0 25 19 20 25 -2 1 -10 -3 -17
-11z"/>
<path d="M4990 1081 c0 -6 4 -12 8 -15 5 -3 9 1 9 9 0 8 -4 15 -9 15 -4 0 -8
-4 -8 -9z"/>
<path d="M5078 1072 c-11 -15 -11 -15 2 -6 8 6 23 10 33 8 11 -1 16 0 13 4
-13 12 -36 10 -48 -6z"/>
<path d="M4867 1067 c-3 -8 1 -14 8 -14 7 0 11 6 8 14 -3 7 -6 13 -8 13 -2 0
-5 -6 -8 -13z"/>
<path d="M4919 1060 c-4 -34 -3 -44 9 -46 7 -1 8 0 3 2 -5 3 -7 16 -5 30 2 13
2 24 -1 24 -3 0 -6 -4 -6 -10z"/>
<path d="M5028 1051 c4 -10 1 -12 -8 -6 -8 5 -11 4 -7 -2 7 -11 43 -10 54 2 5
4 2 4 -6 0 -10 -6 -13 -4 -9 6 4 10 -1 15 -12 15 -11 0 -16 -5 -12 -15z"/>
<path d="M4766 1041 c-3 -5 1 -11 9 -14 9 -4 12 -1 8 9 -6 16 -10 17 -17 5z"/>
<path d="M4814 1039 c-3 -6 -3 -13 0 -16 3 -4 6 -1 6 5 0 6 11 9 27 6 15 -3
25 -3 22 1 -12 11 -49 14 -55 4z"/>
<path d="M5079 1038 c-5 -18 -6 -38 -1 -34 7 8 12 36 6 36 -2 0 -4 -1 -5 -2z"/>
<path d="M4814 1002 c4 -3 14 -7 22 -8 9 -1 13 0 10 4 -4 3 -14 7 -22 8 -9 1
-13 0 -10 -4z"/>
<path d="M4707 973 c5 -12 3 -14 -8 -8 -8 5 -11 4 -6 0 4 -5 13 -10 21 -11 16
-2 17 24 0 30 -9 3 -11 -1 -7 -11z"/>
<path d="M4879 988 c-7 -23 -4 -35 7 -35 10 0 11 4 3 13 -7 8 -6 14 3 17 10 4
10 6 1 6 -7 1 -13 0 -14 -1z"/>
<path d="M4838 973 c7 -3 16 -2 19 1 4 3 -2 6 -13 5 -11 0 -14 -3 -6 -6z"/>
<path d="M5008 973 c-10 -2 -18 -9 -18 -15 0 -6 3 -8 7 -5 3 4 11 3 17 -3 8
-6 12 -3 12 11 0 10 0 18 -1 18 0 -1 -8 -3 -17 -6z"/>
<path d="M3945 959 c-3 -4 2 -6 10 -5 21 3 28 13 10 13 -9 0 -18 -4 -20 -8z"/>
<path d="M4150 960 c0 -5 5 -10 10 -10 6 0 10 5 10 10 0 6 -4 10 -10 10 -5 0
-10 -4 -10 -10z"/>
<path d="M4230 962 c0 -5 7 -9 15 -9 8 0 12 4 9 9 -3 4 -9 8 -15 8 -5 0 -9 -4
-9 -8z"/>
<path d="M4390 965 c0 -5 5 -17 10 -25 5 -8 10 -10 10 -5 0 6 -5 17 -10 25 -5
8 -10 11 -10 5z"/>
<path d="M4550 958 c0 -4 4 -8 9 -8 6 0 12 4 15 8 3 5 -1 9 -9 9 -8 0 -15 -4
-15 -9z"/>
<path d="M4786 962 c-3 -5 1 -9 9 -9 8 0 15 4 15 9 0 4 -4 8 -9 8 -6 0 -12 -4
-15 -8z"/>
<path d="M3074 952 c3 -5 0 -13 -6 -15 -9 -4 -10 -6 -1 -6 17 -1 25 16 12 25
-7 4 -9 3 -5 -4z"/>
<path d="M3147 947 c-3 -7 3 -13 14 -13 13 0 15 3 7 13 -6 7 -12 13 -13 13 -2
0 -5 -6 -8 -13z"/>
<path d="M3495 950 c-3 -6 1 -7 9 -4 18 7 21 14 7 14 -6 0 -13 -4 -16 -10z"/>
<path d="M3750 956 c0 -2 9 -6 20 -9 11 -3 18 -1 14 4 -5 9 -34 13 -34 5z"/>
<path d="M4674 946 c1 -8 5 -18 8 -22 4 -3 5 1 4 10 -1 8 -5 18 -8 22 -4 3 -5
-1 -4 -10z"/>
<path d="M2255 940 c-3 -6 1 -7 9 -4 18 7 21 14 7 14 -6 0 -13 -4 -16 -10z"/>
<path d="M2361 928 c6 -10 15 -15 21 -12 7 5 9 2 6 -8 -4 -8 0 -15 7 -15 10 0
11 5 4 19 -6 10 -15 15 -21 12 -7 -5 -9 -2 -6 8 4 8 0 15 -7 15 -10 0 -11 -5
-4 -19z"/>
<path d="M2597 933 c3 -7 6 -13 8 -13 2 0 5 6 8 13 3 8 -1 14 -8 14 -7 0 -11
-6 -8 -14z"/>
<path d="M2751 933 c8 -9 8 -17 0 -26 -8 -10 -7 -14 4 -14 8 0 11 5 8 10 -4 6
0 8 8 5 10 -4 15 1 15 12 0 11 -5 16 -15 12 -8 -3 -12 -1 -8 5 3 5 0 10 -8 10
-11 0 -12 -4 -4 -14z"/>
<path d="M2864 942 c4 -3 14 -7 22 -8 9 -1 13 0 10 4 -4 3 -14 7 -22 8 -9 1
-13 0 -10 -4z"/>
<path d="M3316 941 c-3 -5 1 -14 8 -20 10 -9 16 -9 21 -1 4 6 4 14 1 17 -3 4
-6 1 -6 -6 0 -7 -5 -9 -10 -6 -6 4 -8 11 -5 16 4 5 4 9 1 9 -3 0 -7 -4 -10 -9z"/>
<path d="M3427 933 c3 -7 6 -13 8 -13 2 0 5 6 8 13 3 8 -1 14 -8 14 -7 0 -11
-6 -8 -14z"/>
<path d="M3910 943 c0 -5 5 -15 10 -23 7 -12 9 -10 7 8 -1 19 -17 33 -17 15z"/>
<path d="M3997 928 c19 -22 19 -22 26 -4 4 11 1 13 -10 9 -10 -4 -14 -2 -10 4
3 5 0 10 -8 10 -13 0 -12 -4 2 -19z"/>
<path d="M4108 932 c3 -10 1 -13 -6 -8 -6 3 -14 1 -18 -5 -4 -7 -3 -9 4 -5 5
3 13 0 15 -6 4 -10 6 -10 6 0 1 7 5 11 10 8 5 -3 15 2 22 12 13 16 13 16 -5 2
-18 -13 -19 -13 -14 1 4 9 1 16 -7 16 -8 0 -11 -7 -7 -15z"/>
<path d="M4197 937 c4 -7 -1 -8 -12 -3 -15 5 -16 4 -5 -9 7 -9 13 -14 14 -13
1 2 7 10 14 19 9 13 9 16 -3 16 -8 0 -11 -5 -8 -10z"/>
<path d="M4347 933 c3 -7 6 -13 8 -13 2 0 5 6 8 13 3 8 -1 14 -8 14 -7 0 -11
-6 -8 -14z"/>
<path d="M4468 943 c7 -3 16 -2 19 1 4 3 -2 6 -13 5 -11 0 -14 -3 -6 -6z"/>
<path d="M4756 942 c-2 -4 -1 -14 3 -20 6 -10 11 -9 21 3 11 13 10 14 -5 9
-13 -5 -16 -4 -11 4 4 7 5 12 2 12 -3 0 -7 -4 -10 -8z"/>
<path d="M4838 931 c5 -14 4 -14 -14 -1 -18 14 -18 14 -5 -2 7 -10 17 -16 21
-13 5 3 11 -1 13 -7 4 -10 6 -10 6 0 1 7 6 10 13 6 7 -4 8 -3 4 5 -4 6 -12 8
-18 5 -7 -5 -9 -2 -6 8 4 8 1 15 -7 15 -8 0 -11 -7 -7 -16z"/>
<path d="M4953 929 c-2 -23 3 -25 10 -4 4 8 3 16 -1 19 -4 3 -9 -4 -9 -15z"/>
<path d="M1729 940 c0 -3 -2 -12 -4 -20 -12 -50 -13 -60 -3 -66 6 -4 8 -3 5 3
-3 5 0 21 7 35 8 16 10 31 5 39 -5 8 -9 12 -10 9z"/>
<path d="M2195 931 c-3 -6 -14 -8 -25 -6 -11 2 -20 0 -20 -6 0 -12 37 -6 52 9
7 7 9 12 6 12 -4 0 -9 -4 -13 -9z"/>
<path d="M2513 925 c0 -8 4 -12 9 -9 5 3 6 10 3 15 -9 13 -12 11 -12 -6z"/>
<path d="M2573 925 c0 -8 4 -12 9 -9 5 3 6 10 3 15 -9 13 -12 11 -12 -6z"/>
<path d="M2917 930 c7 -8 23 -15 35 -17 12 -2 19 -1 16 3 -3 3 -12 6 -20 8 -7
1 -20 5 -28 10 -12 7 -13 6 -3 -4z"/>
<path d="M3686 923 c-6 -14 -5 -15 5 -6 7 7 10 15 7 18 -3 3 -9 -2 -12 -12z"/>
<path d="M3715 929 c-4 -6 -5 -12 -2 -15 2 -3 7 2 10 11 7 17 1 20 -8 4z"/>
<path d="M4375 929 c-4 -6 -5 -12 -2 -15 2 -3 7 2 10 11 7 17 1 20 -8 4z"/>
<path d="M1970 916 c7 -7 13 -7 20 0 6 6 3 10 -10 10 -13 0 -16 -4 -10 -10z"/>
<path d="M2070 921 c0 -6 4 -12 8 -15 5 -3 9 1 9 9 0 8 -4 15 -9 15 -4 0 -8
-4 -8 -9z"/>
<path d="M2268 912 c-3 -11 0 -19 7 -19 7 0 10 8 7 19 -2 10 -6 18 -7 18 -1 0
-5 -8 -7 -18z"/>
<path d="M2665 919 c-4 -6 -4 -13 -1 -16 3 -4 6 -1 6 6 0 7 5 9 10 6 6 -3 10
-1 10 4 0 14 -17 14 -25 0z"/>
<path d="M3110 920 c0 -5 5 -10 10 -10 6 0 10 5 10 10 0 6 -4 10 -10 10 -5 0
-10 -4 -10 -10z"/>
<path d="M3784 918 c-5 -7 -3 -8 6 -3 9 6 12 4 8 -7 -4 -8 -1 -15 7 -15 7 0
10 8 7 19 -5 21 -17 23 -28 6z"/>
<path d="M3846 918 c3 -5 10 -6 15 -3 13 9 11 12 -6 12 -8 0 -12 -4 -9 -9z"/>
<path d="M4215 919 c-4 -6 -4 -13 -1 -16 3 -4 6 -1 6 6 0 7 5 9 12 5 7 -4 8
-3 4 4 -9 15 -13 15 -21 1z"/>
<path d="M4726 922 c-3 -5 1 -9 9 -9 8 0 12 4 9 9 -3 4 -7 8 -9 8 -2 0 -6 -4
-9 -8z"/>
<path d="M4976 922 c-3 -5 1 -9 9 -9 8 0 12 4 9 9 -3 4 -7 8 -9 8 -2 0 -6 -4
-9 -8z"/>
<path d="M2867 906 c-4 -10 -1 -13 8 -9 8 3 12 9 9 14 -7 12 -11 11 -17 -5z"/>
<path d="M3351 907 c-8 -10 -7 -14 4 -14 8 0 11 5 8 10 -4 6 1 8 11 4 10 -4
15 -3 11 3 -8 14 -20 12 -34 -3z"/>
<path d="M3467 907 c-3 -8 1 -14 8 -14 7 0 11 6 8 14 -3 7 -6 13 -8 13 -2 0
-5 -6 -8 -13z"/>
<path d="M3519 918 c-5 -19 -8 -50 -4 -46 7 7 15 48 9 48 -2 0 -4 -1 -5 -2z"/>
<path d="M3587 907 c-3 -8 1 -14 8 -14 7 0 11 6 8 14 -3 7 -6 13 -8 13 -2 0
-5 -6 -8 -13z"/>
<path d="M4387 907 c-3 -8 1 -14 8 -14 7 0 11 6 8 14 -3 7 -6 13 -8 13 -2 0
-5 -6 -8 -13z"/>
<path d="M4557 907 c-3 -8 1 -14 8 -14 7 0 11 6 8 14 -3 7 -6 13 -8 13 -2 0
-5 -6 -8 -13z"/>
<path d="M2027 889 c6 -22 20 -26 20 -4 0 8 -6 16 -13 19 -7 3 -10 -2 -7 -15z"/>
<path d="M2205 902 c-13 -9 -17 -32 -6 -32 5 0 11 9 14 20 6 22 6 22 -8 12z"/>
<path d="M2908 892 c5 -9 7 -24 4 -32 -2 -8 -2 -12 2 -9 14 13 14 48 0 53 -11
4 -12 1 -6 -12z"/>
<path d="M3164 902 c-12 -7 -11 -39 2 -50 4 -4 4 0 2 8 -3 8 -1 23 4 33 10 19
8 20 -8 9z"/>
<path d="M3639 900 c-4 -34 -3 -44 9 -46 7 -1 8 0 3 2 -5 3 -7 16 -5 30 2 13
2 24 -1 24 -3 0 -6 -4 -6 -10z"/>
<path d="M4512 900 c3 -8 1 -23 -4 -32 -6 -13 -5 -16 6 -12 14 5 14 40 0 53
-4 3 -4 -1 -2 -9z"/>
<path d="M1953 887 c0 -8 6 -14 13 -14 7 0 10 6 7 14 -3 7 -8 13 -12 13 -4 0
-8 -6 -8 -13z"/>
<path d="M2315 889 c-4 -6 -5 -12 -2 -15 2 -3 7 2 10 11 7 17 1 20 -8 4z"/>
<path d="M2574 879 c0 -12 4 -15 12 -9 6 6 14 7 17 3 4 -3 7 -2 7 4 0 6 -8 13
-18 15 -12 4 -18 -1 -18 -13z"/>
<path d="M3251 891 c-8 -5 -21 -7 -30 -3 -9 3 -13 2 -10 -2 13 -14 48 -14 53
0 6 16 6 17 -13 5z"/>
<path d="M4016 886 c3 -7 11 -13 19 -13 22 0 18 14 -4 20 -13 3 -18 0 -15 -7z"/>
<path d="M4288 893 c-22 -5 -24 -20 -3 -20 8 0 16 6 19 14 3 7 4 12 3 12 -1
-1 -10 -3 -19 -6z"/>
<path d="M4656 886 c5 -14 40 -14 53 0 3 4 -1 4 -9 2 -8 -3 -23 -1 -32 4 -13
6 -16 5 -12 -6z"/>
<path d="M4773 885 c0 -8 5 -11 10 -8 6 4 8 0 5 -8 -4 -10 1 -15 12 -15 11 0
16 5 12 15 -4 10 -1 12 8 6 9 -5 11 -4 6 4 -4 6 -12 9 -17 5 -5 -3 -16 -1 -23
5 -9 8 -13 7 -13 -4z"/>
<path d="M4925 891 c-11 -5 -23 -7 -27 -4 -5 2 -8 0 -8 -5 0 -14 49 -9 55 6 2
6 3 12 2 11 -1 0 -11 -4 -22 -8z"/>
<path d="M2433 883 c4 -3 3 -11 -3 -17 -6 -8 -3 -12 9 -12 12 0 17 6 13 18 -2
10 -9 18 -15 18 -6 0 -7 -3 -4 -7z"/>
<path d="M2693 877 c-4 -6 -1 -7 7 -2 10 6 12 4 7 -8 -4 -10 -2 -14 7 -11 7 3
13 11 13 18 0 15 -25 17 -34 3z"/>
<path d="M3073 869 c-2 -23 3 -25 10 -4 4 8 3 16 -1 19 -4 3 -9 -4 -9 -15z"/>
<path d="M3296 874 c-3 -7 2 -10 15 -7 22 6 26 20 4 20 -8 0 -16 -6 -19 -13z"/>
<path d="M3534 879 c-3 -6 -3 -13 0 -16 3 -4 6 -1 6 5 0 6 11 9 27 6 15 -3 25
-3 22 1 -12 11 -49 14 -55 4z"/>
<path d="M3750 880 c0 -5 5 -10 10 -10 6 0 10 5 10 10 0 6 -4 10 -10 10 -5 0
-10 -4 -10 -10z"/>
<path d="M3868 872 c-4 -12 1 -18 13 -18 12 0 15 4 9 12 -6 6 -7 14 -3 17 3 4
2 7 -4 7 -6 0 -13 -8 -15 -18z"/>
<path d="M4133 877 c-4 -6 -1 -7 7 -2 9 6 12 4 8 -6 -4 -10 1 -15 12 -15 11 0
16 5 12 15 -4 10 -1 12 9 6 8 -4 11 -4 6 0 -11 12 -47 13 -54 2z"/>
<path d="M4433 883 c4 -3 3 -11 -3 -17 -6 -8 -3 -12 9 -12 12 0 17 6 13 18 -2
10 -9 18 -15 18 -6 0 -7 -3 -4 -7z"/>
<path d="M4580 880 c-12 -7 -10 -9 7 -7 12 0 19 5 17 9 -6 10 -6 10 -24 -2z"/>
<path d="M1746 863 c-6 -14 -5 -15 5 -6 7 7 10 15 7 18 -3 3 -9 -2 -12 -12z"/>
<path d="M3433 865 c0 -8 4 -12 9 -9 5 3 6 10 3 15 -9 13 -12 11 -12 -6z"/>
<path d="M2267 853 c3 -7 6 -13 8 -13 2 0 5 6 8 13 3 8 -1 14 -8 14 -7 0 -11
-6 -8 -14z"/>
<path d="M2519 868 c-6 -19 -4 -50 4 -55 6 -4 7 -1 2 7 -6 9 -4 12 6 8 10 -4
15 1 15 12 0 11 -5 16 -15 12 -9 -3 -12 -1 -7 6 4 7 5 12 2 12 -3 0 -6 -1 -7
-2z"/>
<path d="M3471 848 c6 -10 14 -16 19 -13 4 3 11 0 13 -5 3 -6 4 -5 3 2 -2 7
-9 12 -16 10 -7 -2 -10 3 -7 11 3 7 -1 14 -8 14 -10 0 -11 -5 -4 -19z"/>
<path d="M3710 855 c5 -7 7 -15 3 -19 -4 -4 1 -4 11 0 15 6 17 4 11 -7 -5 -8
-4 -11 0 -6 16 14 14 36 -3 30 -9 -4 -13 -2 -9 4 3 5 0 10 -8 10 -10 0 -12 -4
-5 -12z"/>
<path d="M3798 848 c2 -10 6 -18 7 -18 1 0 5 8 7 18 3 11 0 19 -7 19 -7 0 -10
-8 -7 -19z"/>
<path d="M3959 863 c-1 -5 -1 -12 0 -17 1 -4 -3 -14 -8 -20 -8 -9 -7 -13 4
-13 8 0 11 5 8 10 -4 6 0 8 8 5 10 -4 15 1 17 15 1 17 -1 19 -8 7 -9 -14 -14
-7 -11 13 0 4 -1 7 -4 7 -3 0 -6 -3 -6 -7z"/>
<path d="M1934 849 c-3 -6 -14 -9 -23 -6 -10 2 -18 -1 -18 -8 0 -8 7 -11 15
-7 9 3 13 1 9 -5 -3 -5 0 -10 7 -10 8 0 12 7 8 15 -3 9 -1 13 5 9 5 -3 10 0
10 8 0 18 -3 19 -13 4z"/>
<path d="M2133 845 c0 -7 6 -11 14 -8 7 3 13 6 13 8 0 2 -6 5 -13 8 -8 3 -14
-1 -14 -8z"/>
<path d="M2330 846 c0 -8 4 -17 9 -20 5 -4 7 3 4 14 -6 23 -13 26 -13 6z"/>
<path d="M2972 851 c-11 -7 -11 -9 0 -14 9 -3 15 1 15 9 0 8 -1 14 -1 14 -1 0
-7 -4 -14 -9z"/>
<path d="M3093 845 c0 -7 6 -11 14 -8 7 3 13 6 13 8 0 2 -6 5 -13 8 -8 3 -14
-1 -14 -8z"/>
<path d="M4116 853 c-4 -5 -12 -9 -17 -9 -5 -1 -13 -2 -18 -3 -5 0 -12 -9 -15
-18 -6 -16 -6 -16 12 0 10 9 21 15 24 12 3 -3 11 1 18 10 13 15 10 21 -4 8z"/>
<path d="M4333 843 c1 -18 4 -20 16 -10 12 10 14 9 9 -4 -4 -9 -1 -16 7 -16
10 0 11 5 4 19 -6 10 -14 16 -19 13 -4 -3 -10 1 -13 7 -3 7 -4 3 -4 -9z"/>
<path d="M4474 849 c-3 -6 -2 -15 3 -20 5 -5 9 -1 9 11 0 23 -2 24 -12 9z"/>
<path d="M1795 839 c-3 -4 2 -6 10 -5 21 3 28 13 10 13 -9 0 -18 -4 -20 -8z"/>
<path d="M1990 840 c0 -5 5 -10 11 -10 5 0 7 5 4 10 -3 6 -8 10 -11 10 -2 0
-4 -4 -4 -10z"/>
<path d="M2054 838 c-5 -7 -3 -8 6 -3 9 6 12 4 8 -7 -4 -8 0 -15 7 -15 10 0
11 5 4 19 -11 21 -15 22 -25 6z"/>
<path d="M2108 832 c-3 -11 0 -19 7 -19 7 0 10 8 7 19 -2 10 -6 18 -7 18 -1 0
-5 -8 -7 -18z"/>
<path d="M2293 835 c0 -7 6 -11 14 -8 7 3 13 6 13 8 0 2 -6 5 -13 8 -8 3 -14
-1 -14 -8z"/>
<path d="M2753 835 c0 -8 4 -12 9 -9 5 3 6 10 3 15 -9 13 -12 11 -12 -6z"/>
<path d="M3206 841 c-19 -7 -19 -8 0 -13 13 -3 21 0 21 8 0 8 -1 14 -1 13 -1
0 -10 -4 -20 -8z"/>
<path d="M3355 840 c-3 -5 -1 -10 4 -10 6 0 11 5 11 10 0 6 -2 10 -4 10 -3 0
-8 -4 -11 -10z"/>
<path d="M3534 842 c4 -3 14 -7 22 -8 9 -1 13 0 10 4 -4 3 -14 7 -22 8 -9 1
-13 0 -10 -4z"/>
<path d="M3772 841 c-11 -7 -11 -9 0 -14 9 -3 15 1 15 9 0 8 -1 14 -1 14 -1 0
-7 -4 -14 -9z"/>
<path d="M4590 830 c-6 -12 -5 -17 5 -17 7 0 11 7 7 15 -3 10 -1 13 6 8 6 -3
13 -3 16 2 3 5 -2 9 -10 9 -8 0 -19 -8 -24 -17z"/>
<path d="M4639 843 c0 -5 -2 -16 -4 -26 -2 -11 -1 -16 3 -13 8 8 14 46 7 46
-3 0 -5 -3 -6 -7z"/>
<path d="M4750 840 c0 -5 5 -10 10 -10 6 0 10 5 10 10 0 6 -4 10 -10 10 -5 0
-10 -4 -10 -10z"/>
<path d="M4846 842 c-3 -5 1 -9 9 -9 8 0 15 4 15 9 0 4 -4 8 -9 8 -6 0 -12 -4
-15 -8z"/>
<path d="M2627 826 c-4 -10 -1 -13 8 -9 8 3 12 9 9 14 -7 12 -11 11 -17 -5z"/>
<path d="M2879 833 c-1 -5 -1 -12 0 -17 1 -5 -5 -6 -14 -2 -10 3 -14 2 -10 -5
9 -14 28 -6 31 14 1 9 0 17 -2 17 -2 0 -5 -3 -5 -7z"/>
<path d="M2997 827 c-3 -8 1 -14 8 -14 7 0 11 6 8 14 -3 7 -6 13 -8 13 -2 0
-5 -6 -8 -13z"/>
<path d="M3067 827 c-3 -8 1 -14 8 -14 7 0 11 6 8 14 -3 7 -6 13 -8 13 -2 0
-5 -6 -8 -13z"/>
<path d="M4236 831 c-3 -5 1 -11 9 -14 9 -4 12 -1 8 9 -6 16 -10 17 -17 5z"/>
<path d="M4707 827 c-3 -8 1 -14 8 -14 7 0 11 6 8 14 -3 7 -6 13 -8 13 -2 0
-5 -6 -8 -13z"/>
<path d="M1820 820 c-9 -6 -10 -10 -3 -10 6 0 15 5 18 10 8 12 4 12 -15 0z"/>
<path d="M2273 811 c0 -11 5 -18 9 -15 4 3 5 11 1 19 -7 21 -12 19 -10 -4z"/>
<path d="M2397 817 c4 -6 -1 -8 -11 -4 -9 4 -15 3 -12 -2 9 -14 45 -20 53 -9
4 7 1 8 -7 3 -9 -6 -12 -4 -8 7 4 8 0 15 -8 15 -7 0 -10 -5 -7 -10z"/>
<path d="M2669 824 c5 -3 7 -17 5 -32 -3 -19 -2 -23 5 -13 12 18 7 44 -8 47
-6 1 -7 0 -2 -2z"/>
<path d="M3399 828 c-6 -21 -6 -39 1 -43 5 -3 7 3 6 12 -2 10 2 21 8 25 8 5 7
8 -1 8 -7 0 -13 -1 -14 -2z"/>
<path d="M3595 821 c-3 -5 -2 -12 3 -15 5 -3 9 1 9 9 0 17 -3 19 -12 6z"/>
<path d="M3870 809 c5 -9 6 -20 2 -24 -4 -5 -1 -5 6 -1 7 5 11 11 8 14 -3 3
-2 10 4 16 6 8 3 12 -10 12 -14 0 -16 -4 -10 -17z"/>
<path d="M4195 821 c-3 -5 0 -13 6 -17 7 -4 9 -3 5 4 -3 5 0 13 6 15 9 4 10 6
1 6 -6 1 -14 -3 -18 -8z"/>
<path d="M4427 813 c5 -12 3 -14 -7 -8 -9 5 -11 4 -6 -4 6 -9 11 -9 22 0 17
14 17 16 0 22 -11 4 -13 1 -9 -10z"/>
<path d="M4507 813 c5 -12 3 -14 -7 -8 -9 5 -11 4 -6 -4 6 -9 11 -9 22 0 17
14 17 16 0 22 -11 4 -13 1 -9 -10z"/>
<path d="M4786 817 c3 -10 9 -15 12 -12 3 3 0 11 -7 18 -10 9 -11 8 -5 -6z"/>
<path d="M4826 817 c3 -10 9 -15 12 -12 3 3 0 11 -7 18 -10 9 -11 8 -5 -6z"/>
<path d="M2784 798 c10 -16 21 -28 24 -28 3 0 2 3 -1 7 -4 3 -1 13 6 21 10 13
9 14 -1 8 -7 -4 -20 -2 -29 6 -14 11 -13 8 1 -14z"/>
<path d="M3288 809 c-20 -11 -24 -29 -7 -29 5 0 7 5 3 12 -5 7 -2 9 8 6 9 -4
15 0 15 8 0 8 -1 14 -1 14 -1 0 -9 -5 -18 -11z"/>
<path d="M3330 806 c0 -8 4 -17 9 -20 5 -4 7 3 4 14 -6 23 -13 26 -13 6z"/>
<path d="M3558 813 c7 -3 16 -2 19 1 4 3 -2 6 -13 5 -11 0 -14 -3 -6 -6z"/>
<path d="M3716 807 c3 -10 9 -15 12 -12 3 3 0 11 -7 18 -10 9 -11 8 -5 -6z"/>
<path d="M3794 809 c-3 -6 -2 -15 3 -20 5 -5 9 -1 9 11 0 23 -2 24 -12 9z"/>
<path d="M3995 811 c-3 -5 -2 -12 3 -15 5 -3 9 1 9 9 0 17 -3 19 -12 6z"/>
<path d="M4313 805 c0 -8 4 -12 9 -9 5 3 6 10 3 15 -9 13 -12 11 -12 -6z"/>
<path d="M1956 799 c3 -5 9 -7 14 -4 4 3 11 0 13 -5 3 -6 4 -5 3 1 -1 7 -10
13 -19 15 -9 1 -15 -2 -11 -7z"/>
<path d="M2150 802 c0 -5 7 -9 15 -9 8 0 12 4 9 9 -3 4 -9 8 -15 8 -5 0 -9 -4
-9 -8z"/>
<path d="M2476 801 c-3 -4 6 -7 19 -7 14 0 22 2 19 5 -8 8 -34 10 -38 2z"/>
<path d="M2753 795 c0 -8 4 -15 9 -15 4 0 8 4 8 9 0 6 -4 12 -8 15 -5 3 -9 -1
-9 -9z"/>
<path d="M2950 800 c0 -5 5 -10 10 -10 6 0 10 5 10 10 0 6 -4 10 -10 10 -5 0
-10 -4 -10 -10z"/>
<path d="M3110 800 c0 -5 5 -10 10 -10 6 0 10 5 10 10 0 6 -4 10 -10 10 -5 0
-10 -4 -10 -10z"/>
<path d="M3516 793 c-6 -14 -5 -15 5 -6 7 7 10 15 7 18 -3 3 -9 -2 -12 -12z"/>
<path d="M3633 795 c0 -8 4 -12 9 -9 5 3 6 10 3 15 -9 13 -12 11 -12 -6z"/>
<path d="M3679 793 c-13 -16 -12 -17 4 -4 9 7 17 15 17 17 0 8 -8 3 -21 -13z"/>
<path d="M4116 802 c-3 -5 1 -9 9 -9 8 0 12 4 9 9 -3 4 -7 8 -9 8 -2 0 -6 -4
-9 -8z"/>
<path d="M2450 791 c0 -6 4 -13 10 -16 6 -3 7 1 4 9 -7 18 -14 21 -14 7z"/>
<path d="M2835 790 c-3 -5 -1 -10 4 -10 6 0 11 5 11 10 0 6 -2 10 -4 10 -3 0
-8 -4 -11 -10z"/>
<path d="M3076 787 c3 -10 9 -15 12 -12 3 3 0 11 -7 18 -10 9 -11 8 -5 -6z"/>
<path d="M1940 786 c0 -2 8 -10 18 -17 15 -13 16 -12 3 4 -13 16 -21 21 -21
13z"/>
<path d="M2108 768 c2 -10 6 -18 7 -18 1 0 5 8 7 18 3 11 0 19 -7 19 -7 0 -10
-8 -7 -19z"/>
<path d="M2197 777 c4 -6 0 -8 -9 -5 -8 4 -15 0 -15 -7 0 -10 5 -11 18 -4 24
12 31 26 14 26 -8 0 -11 -5 -8 -10z"/>
<path d="M2908 783 c7 -3 16 -2 19 1 4 3 -2 6 -13 5 -11 0 -14 -3 -6 -6z"/>
</g>
</svg>
